<svg width="24" height="24" viewBox="0 0 24 24" fill="none" xmlns="http://www.w3.org/2000/svg">
<path d="M9.94888 7.65658C10.3115 7.31663 10.3299 6.74707 9.98992 6.38445C9.64996 6.02183 9.08041 6.00346 8.71779 6.34342L9.94888 7.65658ZM4 12L3.38445 11.3434L2.6841 12L3.38445 12.6566L4 12ZM8.71779 17.6566C9.08041 17.9965 9.64996 17.9782 9.98992 17.6155C10.3299 17.2529 10.3115 16.6834 9.94888 16.3434L8.71779 17.6566ZM20 12.9C20.4971 12.9 20.9 12.4971 20.9 12C20.9 11.5029 20.4971 11.1 20 11.1V12.9ZM8.71779 6.34342L3.38445 11.3434L4.61555 12.6566L9.94888 7.65658L8.71779 6.34342ZM3.38445 12.6566L8.71779 17.6566L9.94888 16.3434L4.61555 11.3434L3.38445 12.6566ZM4 12.9L20 12.9V11.1L4 11.1L4 12.9Z" fill="white"/>
</svg>
