<svg width="36" height="36" viewBox="0 0 36 36" fill="none" xmlns="http://www.w3.org/2000/svg">
<mask id="mask0_2754_46316" style="mask-type:alpha" maskUnits="userSpaceOnUse" x="15" y="11" width="8" height="14">
<path d="M16.5303 11.4697C16.2374 11.1768 15.7626 11.1768 15.4697 11.4697C15.1768 11.7626 15.1768 12.2374 15.4697 12.5303L16.5303 11.4697ZM21.2929 17.2929L20.7626 17.8232H20.7626L21.2929 17.2929ZM21.2929 18.7071L20.7626 18.1768H20.7626L21.2929 18.7071ZM15.4697 23.4697C15.1768 23.7626 15.1768 24.2374 15.4697 24.5303C15.7626 24.8232 16.2374 24.8232 16.5303 24.5303L15.4697 23.4697ZM15.4697 12.5303L20.7626 17.8232L21.8232 16.7626L16.5303 11.4697L15.4697 12.5303ZM20.7626 18.1768L15.4697 23.4697L16.5303 24.5303L21.8232 19.2374L20.7626 18.1768ZM20.7626 17.8232C20.8602 17.9209 20.8602 18.0791 20.7626 18.1768L21.8232 19.2374C22.5066 18.554 22.5066 17.446 21.8232 16.7626L20.7626 17.8232Z" fill="#09101D"/>
</mask>
<g mask="url(#mask0_2754_46316)">
<rect x="6" y="6" width="24" height="24" fill="white" fill-opacity="0.8"/>
</g>
</svg>
