<svg width="300" height="197" viewBox="0 0 300 197" fill="none" xmlns="http://www.w3.org/2000/svg">
<path d="M95.2495 7.615H96.1845C98.5645 7.615 100.86 7.87 103.155 8.465C104.09 8.72 105.025 9.06 105.79 9.57C106.64 10.08 106.98 10.675 106.98 11.355C106.98 11.695 106.895 12.035 106.81 12.46C106.555 13.055 106.215 13.65 105.875 14.16C105.025 15.35 104.175 16.455 103.07 17.39C101.115 19.175 98.9895 20.79 96.7795 22.32C87.4295 28.61 77.3145 33.455 66.7745 37.45C61.4195 39.405 56.0645 41.19 50.2845 41.36C50.0295 41.36 49.6895 41.36 49.6045 41.7C49.6045 42.04 49.7745 42.21 49.9445 42.38C50.3695 42.635 50.7945 42.805 51.2195 42.805C52.0695 42.805 53.0045 42.805 53.8545 42.635C57.5095 42.21 61.0795 41.275 64.5645 40.085C73.5745 37.025 82.1595 33.115 90.4045 28.525C94.7395 26.06 98.9895 23.51 102.9 20.28C104.515 18.92 106.13 17.39 107.405 15.605C108.255 14.415 108.595 13.055 108.595 11.865C108.595 9.48499 107.235 7.36 104.94 6.33999C103.75 5.745 102.475 5.32 101.2 5.065C99.0745 4.64 96.9495 4.555 94.8245 4.555C92.6995 4.555 90.5745 4.64 88.4495 4.895C81.0545 5.745 73.8295 7.52999 66.7745 9.825C56.8295 12.97 47.3095 17.135 38.0445 22.065C30.9045 25.89 24.0195 30.14 17.7295 35.155C15.0095 37.28 12.4595 39.49 10.2495 42.125C9.05951 43.485 7.95451 44.93 7.18951 46.63C6.76451 47.65 6.59451 48.585 6.59451 49.435C6.59451 50.965 7.27451 52.41 8.71951 53.77C10.3345 55.385 12.3745 56.235 14.4995 56.915C17.8145 57.935 21.2145 58.53 24.6145 59.04C31.4145 60.06 38.2145 60.825 44.9295 62.015C49.0095 62.695 53.0895 63.545 57.0845 64.905C58.4445 65.5 59.8045 66.095 61.0795 67.03C62.0995 67.795 62.5245 68.56 62.5245 69.495C62.5245 70.09 62.3545 70.685 62.0145 71.45C61.4195 72.555 60.5695 73.49 59.6345 74.425C57.1695 76.635 54.3645 78.335 51.4745 79.95C46.5445 82.67 41.2745 84.795 36.0045 86.58C30.8195 88.28 25.6345 89.725 20.2795 90.49C19.2595 90.66 18.3245 90.66 17.3045 90.66C16.5395 90.66 15.6895 90.66 14.9245 90.575C14.0745 90.49 13.6495 90.15 13.6495 89.64C13.6495 89.3 13.7345 88.96 14.0745 88.535C14.3295 88.195 14.5845 87.94 14.8395 87.685C15.6895 86.835 16.7095 86.24 17.7295 85.73C20.3645 84.285 23.1695 83.095 25.9745 82.16C31.9245 80.12 37.7045 77.91 44.0795 77.91C44.4195 77.91 44.7595 77.91 44.7595 77.485V77.4C44.7595 77.145 44.5045 76.975 44.2495 76.805C43.6545 76.55 42.9745 76.465 42.3795 76.465C42.0395 76.465 41.7845 76.55 41.4445 76.55C40.0845 76.72 38.7245 76.89 37.3645 77.145C30.7345 78.42 24.3595 80.63 18.1545 83.18C16.7095 83.775 15.3495 84.37 14.1595 85.305C13.2245 85.9 12.4595 86.665 11.9495 87.6C11.7795 88.025 11.6095 88.45 11.6095 88.875C11.6095 89.47 11.8645 90.065 12.2895 90.575C13.1395 91.68 14.3295 92.105 15.6045 92.36C16.4545 92.53 17.3045 92.615 18.0695 92.615C20.0245 92.615 21.9795 92.275 23.8495 91.935C31.7545 90.49 39.3195 88.11 46.7145 85.05C51.1345 83.265 55.2995 81.225 59.2095 78.505C60.9945 77.23 62.6095 75.785 63.7995 73.915C64.4795 72.81 64.8195 71.79 64.8195 70.685C64.8195 69.75 64.5645 68.73 63.9695 67.795C62.9495 66.095 61.5045 64.82 59.8045 63.97C56.9145 62.44 53.7695 61.505 50.6245 60.825C42.4645 58.955 34.2195 58.02 25.9745 56.745C22.2345 56.235 18.4945 55.64 14.8395 54.705C13.4795 54.28 12.1195 53.855 10.8445 53.175C9.65451 52.495 9.14451 51.56 9.14451 50.37C9.14451 50.115 9.14451 49.775 9.22951 49.435C9.39951 48.5 9.82451 47.565 10.2495 46.715C11.2695 44.93 12.6295 43.4 14.0745 41.955C17.4745 38.47 21.2995 35.58 25.2945 32.86C32.6895 27.845 40.4245 23.595 48.5845 19.94C57.9345 15.605 67.6245 12.12 77.7395 9.825C83.4345 8.55 89.2995 7.615 95.2495 7.615ZM88.1905 35.835C88.7855 35.75 89.2955 35.58 89.8055 35.325C91.9305 34.135 94.1405 32.945 96.1805 31.5C96.4355 31.33 96.6905 31.075 96.9455 30.82C97.2005 30.565 97.2855 30.31 97.2855 30.14C97.2855 29.885 97.2005 29.63 96.8605 29.375C96.5205 29.035 96.1805 28.865 95.8405 28.865C95.5855 28.865 95.3305 28.95 94.9905 29.12C94.4805 29.46 93.9705 29.715 93.4605 29.97C91.0805 31.075 88.7005 32.095 86.1505 32.775C85.4705 32.945 85.1305 33.2 85.1305 33.625C85.1305 33.88 85.3005 34.135 85.6405 34.475C86.3205 35.24 87.1705 35.75 88.1905 35.835ZM67.9605 59.295C68.0455 59.21 68.2155 59.21 68.3005 59.21C68.6405 59.125 69.0655 59.125 69.3205 58.955C73.7405 57.425 77.4805 55.045 80.2005 51.22C80.7105 50.625 81.1355 50.285 81.9855 50.2C85.0455 50.115 88.1055 49.86 91.2505 49.69L94.0555 49.435C94.3955 49.435 94.7355 49.435 94.7355 49.01V48.925C94.7355 48.5 94.3955 48.33 93.9705 48.33H93.6305C92.3555 48.33 90.9955 48.33 89.7205 48.415C87.2555 48.67 84.7055 48.5 82.1555 48.755H81.9005C81.5605 48.755 81.3055 48.585 81.1355 47.99C80.7955 46.035 79.7755 45.185 77.9905 45.185C77.6505 45.185 77.3105 45.185 76.9705 45.27C76.8005 45.27 76.5455 45.355 76.3755 45.355C76.1205 45.355 75.9505 45.27 75.6955 45.185C75.2705 44.845 74.9305 44.675 74.5055 44.675C73.9105 44.675 73.3155 45.1 72.7205 45.61C70.1705 47.82 67.9605 50.37 66.3455 53.345C65.8355 54.195 65.4105 55.13 65.2405 56.15V56.575C65.2405 58.105 66.4305 59.295 67.9605 59.295ZM78.3305 50.37V50.54C78.3305 50.965 78.1605 51.05 77.9055 51.305C75.4405 54.195 72.2105 56.15 68.6405 57.34C68.3855 57.425 68.0455 57.595 67.7905 57.595C67.6205 57.595 67.4505 57.51 67.3655 57.425C67.1955 57.255 67.1955 57.17 67.1955 57C67.1955 56.745 67.4505 56.405 67.5355 56.15C68.3855 54.45 69.5755 53.005 70.8505 51.645C71.6155 50.71 72.5505 49.86 73.4005 49.01C73.5705 48.84 73.7405 48.67 73.9955 48.67C74.0805 48.67 74.2505 48.67 74.3355 48.84C75.3555 49.945 76.7155 50.115 78.0755 50.285C78.1605 50.285 78.2455 50.37 78.3305 50.37ZM78.2455 48.755V48.84C77.4805 48.755 76.7155 48.67 76.0355 48.5C75.6955 48.415 75.5255 48.245 75.5255 48.075C75.5255 47.905 75.6105 47.82 75.7805 47.65C76.4605 46.97 77.3105 46.8 78.2455 46.8H78.7555C79.3505 46.885 79.6905 47.14 79.6905 47.735C79.6905 48.33 79.3505 48.67 78.7555 48.755H78.2455ZM80.0305 34.645C79.2655 34.645 78.6705 35.07 78.0755 35.495C76.4605 36.77 74.8455 38.13 73.3155 39.575C73.1455 39.745 72.9755 39.915 72.8055 40.17C72.7205 40.255 72.6355 40.425 72.6355 40.595C72.6355 40.765 72.7205 40.935 72.8055 41.105C73.1455 41.615 73.6555 41.87 74.2505 41.87C74.4205 41.87 74.6755 41.785 74.9305 41.7C75.3555 41.445 75.7805 41.105 76.2055 40.85C77.4805 39.915 78.5855 38.895 79.8605 38.13C80.3705 37.79 80.7105 37.62 80.9655 37.62C81.3055 37.62 81.5605 37.875 82.0705 38.385C83.2605 39.49 84.3655 40.595 85.5555 41.615C85.8105 41.87 86.0655 42.21 86.4055 42.21C86.4905 42.21 86.6605 42.125 86.7455 42.04C86.9155 41.87 87.0005 41.785 87.0005 41.615C87.0005 41.36 86.6605 41.105 86.4905 40.85C85.4705 39.575 84.4505 38.3 83.3455 37.025C82.8355 36.43 82.2405 35.835 81.7305 35.325C81.2205 34.9 80.6255 34.645 80.0305 34.645ZM206.206 6.51C206.291 6.765 206.376 7.02 206.376 7.275C206.376 7.615 206.291 7.87 206.291 8.125C206.291 8.29499 206.206 8.55 206.206 8.72C206.206 9.4 206.461 9.995 206.801 10.59C206.971 10.76 207.141 10.93 207.396 10.93H207.481C207.821 10.845 207.821 10.505 207.821 10.25C207.821 9.995 207.736 9.74 207.736 9.48499C207.736 8.465 208.076 7.36 208.416 6.33999C208.926 5.14999 209.351 3.95999 209.861 2.76999C209.946 2.42999 210.116 2.00499 210.116 1.665C210.116 1.495 210.031 1.325 209.946 1.07C209.521 0.389995 209.011 0.0499945 208.501 0.0499945C208.076 0.0499945 207.736 0.219997 207.311 0.644997C206.036 1.665 205.101 2.94 204.081 4.13C200.596 8.29499 197.366 12.63 194.221 16.88C184.446 30.14 174.671 43.315 164.046 55.895C157.331 63.885 150.276 71.62 142.456 78.675C139.311 81.48 136.081 84.03 132.681 86.41C132.171 86.75 131.661 87.175 130.981 87.26C129.876 87.345 128.686 87.6 127.581 87.77C124.436 88.365 121.206 89.045 118.231 90.15C117.296 90.49 116.361 90.915 115.596 91.51C115.086 91.935 114.746 92.445 114.746 92.87C114.746 93.38 115.086 93.805 115.681 94.23C116.361 94.655 117.041 94.825 117.806 94.825C118.061 94.825 118.401 94.825 118.656 94.74C119.676 94.655 120.781 94.4 121.801 94.06C124.861 93.125 127.666 91.68 130.471 90.065C131.066 89.725 131.661 89.385 132.426 89.3C135.826 88.79 139.226 88.45 142.626 88.195C147.981 87.855 153.336 87.855 158.691 87.685H161.921C164.471 87.685 167.021 87.685 169.571 87.77C174.331 88.025 179.006 87.855 183.681 88.11C187.421 88.28 191.161 88.28 194.901 88.45C196.771 88.62 198.641 88.62 200.511 88.79C203.571 89.045 206.716 89.3 209.861 89.47C213.601 89.81 217.341 90.15 220.996 90.745C222.101 90.915 223.291 91.17 224.396 91.34C224.481 91.34 224.651 91.425 224.736 91.425C224.906 91.425 225.076 91.34 225.161 91.085C225.161 91 225.246 90.915 225.246 90.83C225.246 90.575 224.991 90.405 224.736 90.32C224.396 90.15 224.056 90.065 223.716 89.98C219.806 89.13 215.896 88.705 211.986 88.28C209.521 88.025 207.141 87.94 204.676 87.685C201.276 87.345 197.876 87.175 194.476 87.005C191.926 86.835 189.461 86.75 186.911 86.665C182.576 86.41 178.326 86.325 173.991 86.155C171.951 86.155 169.911 86.07 167.871 85.985C163.281 85.985 158.776 85.815 154.186 85.815C149.171 85.815 144.156 85.985 139.141 86.41C138.121 86.495 137.101 86.41 135.996 86.58C136.421 86.155 136.846 85.815 137.356 85.475C137.781 85.05 138.206 84.71 138.716 84.37C145.941 78.675 152.486 72.215 158.691 65.5C165.236 58.445 171.441 51.05 177.476 43.57C186.316 32.69 194.731 21.47 203.231 10.42C204.166 9.145 205.186 7.955 206.206 6.51ZM117.976 92.955C120.101 91.68 122.566 91.255 125.031 90.745C122.821 91.85 120.441 92.785 117.976 92.955ZM195.996 42.04C196.591 41.955 197.101 41.785 197.611 41.53C199.736 40.34 201.946 39.15 203.986 37.705C204.241 37.535 204.496 37.28 204.751 37.025C205.006 36.77 205.091 36.515 205.091 36.345C205.091 36.09 205.006 35.835 204.666 35.58C204.326 35.24 203.986 35.07 203.646 35.07C203.391 35.07 203.136 35.155 202.796 35.325C202.286 35.665 201.776 35.92 201.266 36.175C198.886 37.28 196.506 38.3 193.956 38.98C193.276 39.15 192.936 39.405 192.936 39.83C192.936 40.085 193.106 40.34 193.446 40.68C194.126 41.445 194.976 41.955 195.996 42.04ZM187.326 59.295C187.411 59.21 187.581 59.21 187.666 59.21C188.006 59.125 188.431 59.125 188.686 58.955C193.106 57.425 196.846 55.045 199.566 51.22C200.076 50.625 200.501 50.285 201.351 50.2C204.411 50.115 207.471 49.86 210.616 49.69L213.421 49.435C213.761 49.435 214.101 49.435 214.101 49.01V48.925C214.101 48.5 213.761 48.33 213.336 48.33H212.996C211.721 48.33 210.361 48.33 209.086 48.415C206.621 48.67 204.071 48.5 201.521 48.755H201.266C201.011 48.755 200.841 48.755 200.671 48.5C200.841 48.5 200.926 48.5 201.096 48.415C203.561 47.82 205.686 46.63 207.216 44.675C207.556 44.165 207.811 43.655 207.811 42.89C207.726 42.21 206.961 41.53 206.196 41.36C206.111 41.36 206.026 41.275 205.941 41.275C205.516 41.36 205.261 41.7 204.836 42.465C204.836 42.55 204.751 42.72 204.751 42.805C204.326 45.355 203.391 46.205 200.501 47.225C200.416 47.31 200.331 47.31 200.331 47.31C199.821 45.865 198.886 45.185 197.356 45.185C197.016 45.185 196.676 45.185 196.336 45.27C196.166 45.27 195.911 45.355 195.741 45.355C195.486 45.355 195.316 45.27 195.061 45.185C194.636 44.845 194.296 44.675 193.871 44.675C193.276 44.675 192.681 45.1 192.086 45.61C189.536 47.82 187.326 50.37 185.711 53.345C185.201 54.195 184.776 55.13 184.606 56.15V56.575C184.606 58.105 185.796 59.295 187.326 59.295ZM197.696 50.37V50.54C197.696 50.965 197.526 51.05 197.271 51.305C194.806 54.195 191.576 56.15 188.006 57.34C187.751 57.425 187.411 57.595 187.156 57.595C186.986 57.595 186.816 57.51 186.731 57.425C186.561 57.255 186.561 57.17 186.561 57C186.561 56.745 186.816 56.405 186.901 56.15C187.751 54.45 188.941 53.005 190.216 51.645C190.981 50.71 191.916 49.86 192.766 49.01C192.936 48.84 193.106 48.67 193.361 48.67C193.446 48.67 193.616 48.67 193.701 48.84C194.721 49.945 196.081 50.115 197.441 50.285C197.526 50.285 197.611 50.37 197.696 50.37ZM197.611 48.755V48.84C196.846 48.755 196.081 48.67 195.401 48.5C195.061 48.415 194.891 48.245 194.891 48.075C194.891 47.905 194.976 47.82 195.146 47.65C195.826 46.97 196.676 46.8 197.611 46.8H198.121C198.716 46.885 199.056 47.14 199.056 47.735C199.056 48.33 198.716 48.67 198.121 48.755H197.611ZM200.028 65.245C200.198 65.075 200.368 64.82 200.538 64.65C204.448 60.57 208.443 56.575 212.438 52.665C214.648 50.54 216.773 48.415 218.898 46.205C219.493 45.61 220.003 45.015 220.513 44.335C220.598 44.165 220.683 43.91 220.683 43.74C220.683 43.315 220.513 42.975 220.088 42.635C219.833 42.465 219.578 42.295 219.323 42.295C219.068 42.295 218.898 42.38 218.643 42.55C218.218 42.975 217.793 43.315 217.368 43.655C212.693 48.075 208.188 52.58 203.768 57.255C197.308 63.97 191.273 71.025 185.323 78.25C182.008 82.245 178.778 86.41 175.208 90.235C172.488 93.04 169.938 96.015 167.558 99.075C167.133 99.585 166.793 100.095 166.453 100.605C166.368 100.775 166.283 101.03 166.283 101.2C166.283 101.37 166.368 101.54 166.538 101.71C166.793 101.965 167.133 102.135 167.473 102.135C167.558 102.135 167.728 102.135 167.898 102.05C168.323 101.88 168.578 101.54 168.918 101.2C172.573 97.12 176.058 92.785 179.543 88.62C183.623 83.86 187.533 78.93 192.208 74.68C195.948 71.195 199.688 67.71 203.683 64.395C209.378 59.72 215.243 55.3 221.618 51.56C224.423 49.86 227.313 48.415 230.373 47.31C231.733 46.8 233.263 46.375 234.793 46.375C235.303 46.375 235.558 46.545 235.558 46.8C235.558 46.97 235.558 47.14 235.388 47.395C234.113 49.435 232.753 51.39 230.118 52.155C225.358 53.345 220.938 55.47 216.943 58.36C216.433 58.785 215.923 59.21 215.498 59.72C215.328 60.06 215.243 60.4 215.243 60.74C215.243 61.25 215.498 61.675 216.093 62.015C216.433 62.185 216.773 62.27 217.113 62.27C217.283 62.27 217.453 62.27 217.623 62.185C218.643 62.015 219.663 61.675 220.683 61.25C225.273 59.295 229.523 56.745 233.263 53.43C233.943 52.835 234.538 52.495 235.388 52.325C239.298 51.305 243.208 50.37 247.203 49.775L248.223 49.52C248.478 49.435 248.733 49.265 248.733 48.925C248.648 48.67 248.478 48.5 248.138 48.415H247.798C247.628 48.415 247.373 48.415 247.118 48.5C244.143 48.84 241.253 49.435 238.363 50.115C237.853 50.2 237.343 50.455 236.748 50.455C236.578 50.455 236.493 50.37 236.323 50.37C236.408 49.86 236.748 49.435 237.003 49.01C237.258 48.5 237.428 47.905 237.428 47.395C237.428 46.715 237.173 46.12 236.748 45.525C236.068 44.76 235.303 44.42 234.368 44.42C234.113 44.42 233.858 44.505 233.603 44.505C230.628 45.015 227.993 46.29 225.358 47.65C220.513 50.115 216.008 53.175 211.588 56.32C207.678 59.21 203.853 62.27 200.028 65.245ZM227.313 55.045C224.593 57.17 221.618 58.785 218.303 59.89C221.023 57.765 224.083 56.235 227.313 55.045ZM3.02451 148.705C3.36451 147.94 3.87451 147.515 4.21451 147.005C5.14951 146.07 6.16951 145.22 7.18951 144.37C8.80451 143.01 10.4195 141.735 12.2895 140.715C12.5445 140.545 12.7995 140.46 12.9695 140.46C13.1395 140.46 13.3945 140.545 13.5645 140.97C13.7345 141.395 13.9895 141.565 14.3295 141.565C14.5845 141.565 14.9245 141.395 15.0945 140.97C15.3495 140.63 15.4345 140.29 15.4345 139.865C15.4345 139.61 15.3495 139.27 15.0945 138.93C14.5845 138.335 14.0745 137.91 13.2245 137.91H12.8845C12.1195 138.08 11.4395 138.42 10.7595 138.845C7.35951 141.055 4.29951 143.605 1.74951 146.665C1.40951 147.09 1.06951 147.515 0.899512 148.025C0.729511 148.365 0.729511 148.62 0.729511 148.875C0.729511 149.385 0.984511 149.81 1.57951 150.15C2.00451 150.32 2.51451 150.405 2.93951 150.405C3.27951 150.405 3.61951 150.405 3.95951 150.32C5.14951 150.065 6.33951 149.64 7.52951 149.215C13.4795 147.175 19.3445 145.05 25.4645 143.35C25.6345 143.265 25.8045 143.265 25.9745 143.18C26.1445 143.01 26.3145 142.925 26.3145 142.755V142.585C26.2295 142.245 25.9745 142.16 25.7195 142.16C25.4645 142.16 25.1245 142.245 24.7845 142.33C23.6795 142.585 22.5745 142.84 21.4695 143.18C16.2845 144.795 11.0145 146.41 5.82951 148.025C4.97951 148.28 4.21451 148.62 3.02451 148.705ZM37.7583 148.45C38.4383 147.43 39.0333 146.75 39.7133 146.07L44.3883 141.395C44.8983 140.885 45.3233 140.29 45.8333 139.78C46.0883 139.355 46.2583 138.93 46.2583 138.505C46.2583 138.25 46.1733 137.995 46.0033 137.655C45.5783 137.145 45.0683 136.805 44.4733 136.805C44.3883 136.805 44.2183 136.89 44.0483 136.89C43.6233 136.975 43.1983 137.06 42.7733 137.23C41.4133 137.655 40.1383 138.25 38.7783 138.845C34.5283 140.885 30.5333 143.265 26.4533 145.645C25.9433 145.9 25.5183 146.325 24.9233 146.325V146.155C24.9233 145.73 25.1783 145.56 25.4333 145.305C28.3233 141.82 31.4683 138.59 34.6133 135.36C35.0383 134.935 35.5483 134.68 36.1433 134.51C38.6933 133.745 41.1583 132.555 43.6233 131.365C50.2533 127.965 56.5433 123.97 62.6633 119.635C68.6983 115.385 74.3933 110.795 79.4933 105.44C80.5983 104.25 81.6183 103.06 82.5533 101.7C82.8933 101.105 83.2333 100.51 83.4033 99.745V99.32C83.4033 97.96 82.4683 96.94 81.1083 96.855H80.5983C80.0883 96.855 79.6633 96.94 79.2383 97.025C78.0483 97.365 76.8583 97.875 75.7533 98.385C71.1633 100.595 66.9983 103.4 62.9183 106.46C55.0133 112.325 47.7033 118.955 40.6483 125.84C36.3983 129.92 32.4033 134.255 28.4083 138.59C26.6233 140.545 24.9233 142.415 23.3083 144.455C22.8833 145.135 22.3733 145.815 21.9483 146.58C21.8633 146.835 21.7783 147.09 21.7783 147.345C21.7783 147.685 21.8633 148.025 22.1183 148.28C22.4583 148.705 22.8833 148.875 23.3933 148.875C23.5633 148.875 23.8183 148.875 23.9883 148.79C24.5833 148.62 25.0933 148.365 25.6883 148.025C27.9833 146.75 30.2783 145.39 32.5733 144.115C35.7183 142.33 38.9483 140.63 42.2633 139.27C42.5183 139.185 42.7733 139.1 43.1133 139.1C43.1983 139.1 43.3683 139.1 43.5383 139.185C41.7533 141.14 39.8833 142.84 38.0133 144.625C37.3333 145.305 36.7383 146.155 36.2283 147.005C35.9733 147.345 35.8883 147.77 35.8883 148.11C35.8883 148.45 35.9733 148.875 36.2283 149.215C36.7383 149.81 37.2483 150.235 38.0133 150.235C38.0983 150.235 38.2683 150.15 38.4383 150.15C39.4583 149.98 40.4783 149.725 41.4133 149.385C45.1533 148.11 48.8083 146.92 52.5483 145.645C54.0783 145.135 55.6083 144.71 57.0533 144.2C57.6483 144.03 58.1583 143.775 58.6683 143.52C58.9233 143.35 59.1783 143.265 59.1783 143.01C59.1783 142.925 59.0933 142.84 59.0933 142.755C58.9233 142.5 58.7533 142.415 58.4983 142.415H58.2433C58.0733 142.415 57.9883 142.5 57.8183 142.5C52.8033 144.115 47.7883 145.645 42.6883 147.175C41.1583 147.685 39.6283 148.195 37.7583 148.45ZM38.3533 131.875C39.6283 130.515 40.9883 129.07 42.3483 127.795C47.0233 123.375 51.6983 119.04 56.7133 114.875C62.8333 109.86 69.0383 105.1 76.0083 101.275C77.5383 100.34 79.1533 99.575 80.8533 99.15C81.0233 99.065 81.1933 98.98 81.3633 98.98C81.4483 98.98 81.5333 99.065 81.7033 99.15C81.7033 99.83 81.2783 100.425 80.8533 101.02C79.9183 102.55 78.6433 103.91 77.4533 105.185C72.8633 110.115 67.7633 114.365 62.3233 118.19C55.9483 122.695 49.2333 126.69 42.3483 130.26C41.0733 130.94 39.7983 131.535 38.3533 131.875ZM65.6244 144.285C65.4544 144.71 65.3694 144.965 65.2844 145.135C65.1994 145.39 65.1144 145.56 65.0294 145.73C64.9444 146.07 64.8594 146.495 64.8594 146.835C64.8594 148.195 65.7944 149.13 67.3244 149.13H67.7494C68.3444 149.045 69.0244 148.875 69.6194 148.705C73.7844 147.345 77.8644 145.815 81.8594 144.2C82.2844 144.03 82.7094 143.86 83.0494 143.605C83.2194 143.435 83.4744 143.35 83.4744 143.095L83.3894 142.925C83.3044 142.755 83.1344 142.585 82.8794 142.585H82.7094C82.3694 142.67 82.0294 142.755 81.7744 142.925C77.9494 144.37 74.0394 145.56 70.1294 146.835C69.2794 147.09 68.3444 147.345 67.4094 147.515H67.1544C66.8144 147.515 66.7294 147.43 66.7294 147.175C66.7294 147.005 66.7294 146.835 66.8144 146.665C67.4094 145.39 68.2594 144.37 69.1944 143.265C69.6194 142.755 70.0444 142.245 70.3844 141.735C70.5544 141.48 70.6394 141.31 70.6394 141.14C70.6394 140.8 70.4694 140.545 70.2994 140.29C70.0444 139.95 69.7894 139.78 69.4494 139.78C69.2794 139.78 69.1094 139.865 68.9394 139.95C68.3444 140.29 67.8344 140.545 67.3244 140.885C64.6894 142.67 62.1394 144.455 59.3344 145.985C58.9094 146.24 58.4844 146.58 57.7194 146.58C58.2294 145.985 58.5694 145.475 58.9094 144.965C60.0994 143.52 61.3744 142.075 62.6494 140.63C62.9894 140.29 63.1594 140.035 63.1594 139.695C63.1594 139.44 62.9894 139.1 62.5644 138.76C62.2244 138.42 61.8844 138.25 61.4594 138.25C61.0344 138.25 60.6094 138.505 60.1844 138.93C58.3994 140.885 56.8694 143.01 55.6794 145.39C55.4244 145.815 55.2544 146.325 55.2544 146.835V147.175C55.2544 148.195 56.0194 148.875 56.9544 148.875C57.1244 148.875 57.3794 148.875 57.5494 148.79C57.9744 148.62 58.3994 148.365 58.8244 148.195C60.5244 147.345 61.9694 146.325 63.5844 145.39C64.0944 144.965 64.6894 144.54 65.6244 144.285ZM66.3044 135.7C66.8994 135.615 67.4094 135.445 67.9194 135.19C70.0444 134 72.2544 132.81 74.2944 131.365C74.5494 131.195 74.8044 130.94 75.0594 130.685C75.3144 130.43 75.3994 130.175 75.3994 130.005C75.3994 129.75 75.3144 129.495 74.9744 129.24C74.6344 128.9 74.2944 128.73 73.9544 128.73C73.6994 128.73 73.4444 128.815 73.1044 128.985C72.5944 129.325 72.0844 129.58 71.5744 129.835C69.1944 130.94 66.8144 131.96 64.2644 132.64C63.5844 132.81 63.2444 133.065 63.2444 133.49C63.2444 133.745 63.4144 134 63.7544 134.34C64.4344 135.105 65.2844 135.615 66.3044 135.7ZM96.5776 141.14C95.7276 142.415 95.0476 143.435 94.4526 144.54C94.1126 145.05 93.7726 145.645 93.6876 146.24C93.6026 146.495 93.6026 146.75 93.6026 147.005C93.6026 148.195 94.3676 149.045 95.6426 149.045C95.8126 149.045 96.0676 148.96 96.2376 148.96C97.0026 148.79 97.7676 148.535 98.5326 148.195C102.443 146.75 106.268 145.22 110.263 143.945L111.028 143.69C111.283 143.605 111.453 143.52 111.453 143.265V143.095C111.453 142.755 111.198 142.585 110.858 142.5C110.433 142.5 110.008 142.67 109.583 142.755C105.758 143.775 102.018 145.22 98.2776 146.41C97.7676 146.58 97.3426 146.75 96.9176 146.835C96.6626 146.92 96.3226 147.09 96.0676 147.09C95.9826 147.09 95.8126 147.005 95.7276 146.92C95.6426 146.835 95.6426 146.75 95.6426 146.58C95.6426 146.325 95.8976 145.985 96.0676 145.73C96.6626 144.88 97.3426 144.03 97.9376 143.095C98.2776 142.585 98.6176 142.075 98.8726 141.565C99.0426 141.225 99.1276 140.97 99.1276 140.715C99.1276 140.29 98.9576 139.95 98.6176 139.525C98.2776 139.1 97.8526 138.93 97.4276 138.93C97.1726 138.93 97.0026 138.93 96.7476 139.015C95.8126 139.27 94.8776 139.695 94.0276 140.12C89.9476 142.16 86.0376 144.455 82.0426 146.835C81.8726 147.005 81.6176 147.09 81.3626 147.09H81.1076C81.2776 146.75 81.6176 146.58 81.8726 146.325L87.9926 140.205C88.4176 139.695 88.6726 139.355 88.6726 138.93C88.6726 138.505 88.3326 138.08 87.7376 137.655C87.4826 137.485 87.2276 137.315 86.9726 137.315C86.6326 137.315 86.2076 137.57 85.6976 138.165C82.9776 140.97 80.2576 143.86 77.8776 147.09C77.5376 147.6 77.1126 148.195 76.9426 148.79C76.8576 149.045 76.7726 149.215 76.7726 149.47C76.7726 149.725 76.9426 150.065 77.1976 150.405C77.5376 150.66 77.8776 150.83 78.2176 150.83C78.3876 150.83 78.5576 150.745 78.8126 150.66C79.2376 150.49 79.6626 150.235 80.0876 149.98C84.5076 147.26 88.9276 144.54 93.6876 142.33C94.5376 141.905 95.3876 141.48 96.5776 141.14ZM122.681 140.63C122.766 140.715 122.766 140.885 122.766 140.97C122.766 141.14 122.596 141.31 122.511 141.395C120.471 144.2 118.516 147.005 116.476 149.81C116.051 150.405 115.456 150.745 114.776 151.085C104.236 155.93 94.2913 161.88 85.2813 169.19C80.0113 173.525 75.3363 178.37 71.3413 183.81C69.8113 185.935 68.4513 188.06 67.5163 190.525C67.1763 191.375 67.0063 192.31 66.9213 193.245C66.9213 195.03 68.1113 196.39 69.9813 196.475H70.3213C71.0863 196.475 71.7663 196.305 72.5313 196.05C73.8913 195.54 75.0813 194.86 76.1863 194.18C81.1163 191.035 85.4513 187.295 89.7013 183.3C93.7813 179.39 97.7763 175.395 101.686 171.145C107.296 165.025 112.651 158.65 117.751 152.02C118.346 151.17 119.026 150.575 119.961 150.15C125.741 147.685 131.436 144.965 137.641 143.52C137.811 143.435 138.066 143.35 138.066 143.095C138.066 142.755 137.896 142.585 137.641 142.5H136.706C135.771 142.67 134.921 142.925 134.071 143.18C129.906 144.625 125.741 146.325 121.661 148.025C121.491 148.11 121.236 148.28 120.981 148.28C120.896 148.28 120.811 148.195 120.726 148.195C120.726 147.855 120.981 147.6 121.151 147.43C122.596 145.305 124.041 143.265 125.401 141.055C125.656 140.63 125.911 140.12 126.166 139.525C126.251 139.355 126.251 139.185 126.251 139.015C126.251 138.59 126.081 138.165 125.741 137.825C125.486 137.57 125.231 137.485 124.976 137.485C124.721 137.485 124.466 137.57 124.211 137.655C123.616 137.91 123.106 138.165 122.511 138.505C121.576 139.1 120.556 139.695 119.621 140.375C119.366 140.46 119.196 140.545 119.026 140.545C118.771 140.545 118.601 140.46 118.346 140.205C117.666 139.44 116.901 139.185 116.051 139.185C115.541 139.185 115.031 139.27 114.521 139.44C111.631 140.46 109.336 142.245 107.551 144.795C107.296 145.135 107.126 145.475 106.956 145.985C106.871 146.24 106.871 146.41 106.871 146.665C106.871 147.77 107.636 148.62 108.826 148.62C108.996 148.62 109.166 148.62 109.421 148.535C110.016 148.45 110.526 148.11 111.121 147.855C114.096 146.155 116.986 144.37 119.791 142.5C120.726 141.82 121.661 141.225 122.681 140.63ZM113.501 153.21C112.226 155.42 110.526 157.46 108.911 159.415C101.941 167.915 94.6313 176.075 86.6413 183.555C82.9863 187.04 79.2463 190.355 74.9113 192.99C73.8063 193.67 72.6163 194.265 71.3413 194.775C70.9163 194.945 70.3213 195.115 69.8113 195.115C69.4713 195.115 69.1313 195.03 68.8763 194.775C68.5363 194.435 68.4513 194.095 68.4513 193.755C68.4513 193.245 68.6213 192.735 68.7063 192.31C69.3013 190.185 70.4063 188.315 71.5963 186.445C74.5713 181.855 78.3113 177.775 82.3063 173.95C88.5963 167.915 95.8213 163.07 103.301 158.65C106.446 156.865 109.591 155.08 112.821 153.55C113.076 153.38 113.331 153.295 113.501 153.21ZM116.986 141.565H117.326C116.391 142.67 110.951 146.07 109.251 146.58C110.356 144.37 114.776 141.565 116.986 141.565ZM179.494 141.48C178.899 142.67 178.134 143.775 177.454 144.965C177.199 145.475 176.944 145.985 176.944 146.495C176.944 146.835 177.114 147.175 177.369 147.515C177.879 148.28 178.644 148.535 179.494 148.535H179.919C180.854 148.45 181.704 148.195 182.639 147.855C186.719 146.495 190.799 145.135 194.879 143.86C195.134 143.775 195.389 143.69 195.644 143.52C195.814 143.435 196.154 143.35 196.154 143.095C196.154 143.01 196.069 142.925 196.069 142.84C195.984 142.585 195.814 142.415 195.559 142.415H195.389C194.879 142.5 194.369 142.585 193.859 142.755C189.864 143.86 185.869 145.05 181.959 146.155C181.024 146.41 180.174 146.665 179.239 146.75C179.239 146.665 179.154 146.58 179.154 146.495C179.154 146.155 179.494 145.815 179.664 145.56C180.174 144.795 180.684 143.945 181.279 143.18C181.619 142.585 182.044 142.075 182.214 141.395C182.299 141.14 182.384 140.885 182.384 140.715C182.384 139.78 181.619 139.1 180.684 139.1H180.429C179.919 139.185 179.494 139.355 178.984 139.525C177.029 140.46 175.159 141.565 173.289 142.67C172.694 143.01 172.099 143.35 171.504 143.775C171.759 143.01 172.184 142.33 172.524 141.735C172.694 141.48 172.779 141.225 172.779 140.97C172.779 140.545 172.524 140.12 172.184 139.695C171.759 139.185 171.334 138.93 170.824 138.93C170.654 138.93 170.399 139.015 170.144 139.1C169.549 139.355 168.954 139.61 168.359 139.95C165.894 141.395 163.429 142.925 160.879 144.37C160.624 144.54 160.369 144.71 160.029 144.795C160.284 144.285 160.624 143.945 160.964 143.605C162.069 142.585 163.089 141.48 164.194 140.46C164.449 140.205 164.789 139.95 164.789 139.525C164.789 139.44 164.704 139.355 164.704 139.27C164.449 138.505 163.599 137.995 162.834 137.995C162.494 137.995 162.154 138.165 161.814 138.335C161.559 138.505 161.304 138.76 161.049 139.015C158.669 141.225 156.629 143.775 154.844 146.495C154.589 146.92 154.419 147.345 154.164 147.77C154.079 148.025 153.994 148.195 153.994 148.365C153.994 148.705 154.164 149.045 154.504 149.3C154.759 149.555 155.099 149.64 155.439 149.64C155.609 149.64 155.864 149.64 156.119 149.47C156.714 149.13 157.309 148.705 157.904 148.28C161.049 146.07 164.364 144.03 167.764 142.33C168.189 142.16 168.529 141.905 169.124 141.905C168.869 142.245 168.699 142.5 168.529 142.755C168.019 143.435 167.509 144.2 167.084 144.965C166.829 145.305 166.659 145.645 166.574 146.07C166.574 146.155 166.489 146.325 166.489 146.41C166.489 146.75 166.744 147.175 167.084 147.43C167.339 147.685 167.679 147.77 167.934 147.77C168.189 147.77 168.444 147.685 168.699 147.515C169.719 146.92 170.824 146.24 171.844 145.56C174.309 144.03 176.774 142.585 179.494 141.48ZM191.114 150.065H190.774C191.114 149.13 191.624 148.535 192.134 148.025C192.984 147.09 193.834 146.24 194.769 145.39C196.129 144.03 197.574 142.755 199.019 141.65C199.444 141.31 199.614 141.055 199.614 140.715C199.614 140.46 199.359 140.12 198.934 139.78C198.764 139.61 198.509 139.44 198.254 139.44C198.084 139.44 197.914 139.525 197.744 139.61C197.319 139.865 196.894 140.035 196.469 140.375C194.004 142.245 191.879 144.37 190.094 146.835C189.669 147.345 189.329 147.94 189.074 148.45C188.904 148.875 188.819 149.3 188.819 149.725C188.819 150.915 189.754 151.765 191.284 151.765C192.474 151.765 193.579 151.425 194.684 151.085C198.084 149.81 201.399 148.535 204.799 147.26C207.349 146.325 209.899 145.305 212.449 144.37C213.129 144.115 213.724 143.775 214.234 143.52C214.404 143.35 214.489 143.265 214.489 143.095V142.925C214.404 142.67 214.234 142.585 213.979 142.5H213.809C213.554 142.5 213.384 142.585 213.214 142.67C211.429 143.435 209.644 144.03 207.774 144.71C203.099 146.325 198.424 148.11 193.664 149.47C192.899 149.81 192.049 150.065 191.114 150.065ZM202.844 136.635C203.864 136.55 204.714 136.04 205.394 135.275C205.734 134.935 205.904 134.68 205.904 134.425C205.904 134 205.564 133.745 204.884 133.575C202.334 132.895 199.954 131.875 197.574 130.77C197.064 130.515 196.554 130.26 196.044 129.92C195.704 129.75 195.449 129.665 195.194 129.665C194.854 129.665 194.514 129.835 194.174 130.175C193.834 130.43 193.749 130.685 193.749 130.94C193.749 131.11 193.834 131.365 194.089 131.62C194.344 131.875 194.599 132.13 194.854 132.3C196.894 133.745 199.104 134.935 201.229 136.125C201.739 136.38 202.249 136.55 202.844 136.635ZM227.813 141.14C226.963 142.415 226.283 143.435 225.688 144.54C225.348 145.05 225.008 145.645 224.923 146.24C224.838 146.495 224.838 146.75 224.838 147.005C224.838 148.195 225.603 149.045 226.878 149.045C227.048 149.045 227.303 148.96 227.473 148.96C228.238 148.79 229.003 148.535 229.768 148.195C233.678 146.75 237.503 145.22 241.498 143.945L242.263 143.69C242.518 143.605 242.688 143.52 242.688 143.265V143.095C242.688 142.755 242.433 142.585 242.093 142.5C241.668 142.5 241.243 142.67 240.818 142.755C236.993 143.775 233.253 145.22 229.513 146.41C229.003 146.58 228.578 146.75 228.153 146.835C227.898 146.92 227.558 147.09 227.303 147.09C227.218 147.09 227.048 147.005 226.963 146.92C226.878 146.835 226.878 146.75 226.878 146.58C226.878 146.325 227.133 145.985 227.303 145.73C227.898 144.88 228.578 144.03 229.173 143.095C229.513 142.585 229.853 142.075 230.108 141.565C230.278 141.225 230.363 140.97 230.363 140.715C230.363 140.29 230.193 139.95 229.853 139.525C229.513 139.1 229.088 138.93 228.663 138.93C228.408 138.93 228.238 138.93 227.983 139.015C227.048 139.27 226.113 139.695 225.263 140.12C221.183 142.16 217.273 144.455 213.278 146.835C213.108 147.005 212.853 147.09 212.598 147.09H212.343C212.513 146.75 212.853 146.58 213.108 146.325L219.228 140.205C219.653 139.695 219.908 139.355 219.908 138.93C219.908 138.505 219.568 138.08 218.973 137.655C218.718 137.485 218.463 137.315 218.208 137.315C217.868 137.315 217.443 137.57 216.933 138.165C214.213 140.97 211.493 143.86 209.113 147.09C208.773 147.6 208.348 148.195 208.178 148.79C208.093 149.045 208.008 149.215 208.008 149.47C208.008 149.725 208.178 150.065 208.433 150.405C208.773 150.66 209.113 150.83 209.453 150.83C209.623 150.83 209.793 150.745 210.048 150.66C210.473 150.49 210.898 150.235 211.323 149.98C215.743 147.26 220.163 144.54 224.923 142.33C225.773 141.905 226.623 141.48 227.813 141.14ZM253.662 148.45C254.342 147.43 254.937 146.75 255.617 146.07L260.292 141.395C260.802 140.885 261.227 140.29 261.737 139.78C261.992 139.355 262.162 138.93 262.162 138.505C262.162 138.25 262.077 137.995 261.907 137.655C261.482 137.145 260.972 136.805 260.377 136.805C260.292 136.805 260.122 136.89 259.952 136.89C259.527 136.975 259.102 137.06 258.677 137.23C257.317 137.655 256.042 138.25 254.682 138.845C250.432 140.885 246.437 143.265 242.357 145.645C241.847 145.9 241.422 146.325 240.827 146.325V146.155C240.827 145.73 241.082 145.56 241.337 145.305C244.227 141.82 247.372 138.59 250.517 135.36C250.942 134.935 251.452 134.68 252.047 134.51C254.597 133.745 257.062 132.555 259.527 131.365C266.157 127.965 272.447 123.97 278.567 119.635C284.602 115.385 290.297 110.795 295.397 105.44C296.502 104.25 297.522 103.06 298.457 101.7C298.797 101.105 299.137 100.51 299.307 99.745V99.32C299.307 97.96 298.372 96.94 297.012 96.855H296.502C295.992 96.855 295.567 96.94 295.142 97.025C293.952 97.365 292.762 97.875 291.657 98.385C287.067 100.595 282.902 103.4 278.822 106.46C270.917 112.325 263.607 118.955 256.552 125.84C252.302 129.92 248.307 134.255 244.312 138.59C242.527 140.545 240.827 142.415 239.212 144.455C238.787 145.135 238.277 145.815 237.852 146.58C237.767 146.835 237.682 147.09 237.682 147.345C237.682 147.685 237.767 148.025 238.022 148.28C238.362 148.705 238.787 148.875 239.297 148.875C239.467 148.875 239.722 148.875 239.892 148.79C240.487 148.62 240.997 148.365 241.592 148.025C243.887 146.75 246.182 145.39 248.477 144.115C251.622 142.33 254.852 140.63 258.167 139.27C258.422 139.185 258.677 139.1 259.017 139.1C259.102 139.1 259.272 139.1 259.442 139.185C257.657 141.14 255.787 142.84 253.917 144.625C253.237 145.305 252.642 146.155 252.132 147.005C251.877 147.345 251.792 147.77 251.792 148.11C251.792 148.45 251.877 148.875 252.132 149.215C252.642 149.81 253.152 150.235 253.917 150.235C254.002 150.235 254.172 150.15 254.342 150.15C255.362 149.98 256.382 149.725 257.317 149.385C261.057 148.11 264.712 146.92 268.452 145.645C269.982 145.135 271.512 144.71 272.957 144.2C273.552 144.03 274.062 143.775 274.572 143.52C274.827 143.35 275.082 143.265 275.082 143.01C275.082 142.925 274.997 142.84 274.997 142.755C274.827 142.5 274.657 142.415 274.402 142.415H274.147C273.977 142.415 273.892 142.5 273.722 142.5C268.707 144.115 263.692 145.645 258.592 147.175C257.062 147.685 255.532 148.195 253.662 148.45ZM254.257 131.875C255.532 130.515 256.892 129.07 258.252 127.795C262.927 123.375 267.602 119.04 272.617 114.875C278.737 109.86 284.942 105.1 291.912 101.275C293.442 100.34 295.057 99.575 296.757 99.15C296.927 99.065 297.097 98.98 297.267 98.98C297.352 98.98 297.437 99.065 297.607 99.15C297.607 99.83 297.182 100.425 296.757 101.02C295.822 102.55 294.547 103.91 293.357 105.185C288.767 110.115 283.667 114.365 278.227 118.19C271.852 122.695 265.137 126.69 258.252 130.26C256.977 130.94 255.702 131.535 254.257 131.875Z" fill="#15803D"/>
</svg>
