<svg width="40" height="40" viewBox="0 0 40 40" fill="none" xmlns="http://www.w3.org/2000/svg">
<path d="M0.80923 11.7754C1.90897 6.27669 6.27669 1.90897 11.7754 0.80923C17.1703 -0.269743 22.8298 -0.269743 28.2246 0.80923C33.7233 1.90897 38.091 6.27669 39.1908 11.7754C40.2697 17.1703 40.2697 22.8298 39.1908 28.2246C38.091 33.7233 33.7233 38.091 28.2246 39.1908C22.8298 40.2697 17.1703 40.2697 11.7754 39.1908C6.27669 38.091 1.90897 33.7233 0.80923 28.2246C-0.269743 22.8298 -0.269743 17.1703 0.80923 11.7754Z" fill="#36463B"/>
<path d="M27.8963 24.4288C27.9326 23.9395 27.86 23.4573 27.7003 22.9968C27.6349 22.8097 27.6857 22.7017 27.8454 22.5938C28.5351 22.1404 29.0795 21.5576 29.4497 20.8235C30.0885 19.5714 30.1684 18.2833 29.7038 16.9592C29.3408 15.9158 28.6585 15.117 27.7293 14.5341C26.8945 14.0088 25.9653 13.7713 24.9708 13.8073C24.8111 13.8145 24.724 13.7569 24.6877 13.5986C24.5208 12.9293 24.2159 12.3321 23.7803 11.7995C23.156 11.0224 22.3575 10.4826 21.3993 10.2092C20.1072 9.84218 18.8586 9.95012 17.6681 10.5978C16.5575 11.2095 15.8098 12.1234 15.3888 13.3035C15.3307 13.4619 15.3089 13.6777 15.1928 13.7641C15.0839 13.8433 14.8661 13.7929 14.6991 13.8001C12.8916 13.8936 11.5196 14.714 10.6122 16.2756C10.0315 17.2758 9.88634 18.3553 10.0823 19.4707C10.2566 20.4421 10.6776 21.3129 11.4325 21.9965C11.6503 22.1908 11.8753 22.3851 12.1076 22.5578C12.2456 22.6586 12.2601 22.7593 12.2093 22.896C12.0133 23.4142 11.9334 23.9539 11.9479 24.5008C11.9842 25.976 12.5504 27.2137 13.7119 28.1492C14.9968 29.1927 16.4631 29.459 18.0674 29.0704C18.6844 28.9192 19.2216 28.6314 19.7225 28.2572C19.8677 28.1492 19.9693 28.1492 20.1145 28.2572C20.7605 28.7465 21.4792 29.0704 22.2849 29.1783C23.1851 29.3006 24.0634 29.2215 24.9128 28.8689C25.9798 28.4299 26.7856 27.6959 27.33 26.6956C27.7438 25.9976 27.9471 25.2348 27.8963 24.4288ZM25.1813 22.3563C25.1813 22.3707 25.1741 22.3851 25.1741 22.3995C24.7893 22.3203 24.3974 22.2772 24.0271 22.162C23.0907 21.8886 22.3866 21.3057 21.8857 20.4709C21.8567 20.4206 21.8639 20.3414 21.8567 20.2766C21.922 20.2838 21.9946 20.2838 22.0527 20.3054C22.4882 20.5213 22.9383 20.7228 23.4246 20.7948C23.9836 20.8739 24.5498 20.8451 25.0942 20.7012C25.5661 20.5717 26.0016 20.3702 26.4009 20.0967C26.5678 19.9816 26.6041 19.8377 26.517 19.7153C26.4372 19.6002 26.292 19.5858 26.1323 19.6794C26.0307 19.7369 25.9436 19.8161 25.8492 19.8665C24.9636 20.3414 24.0417 20.5141 23.0617 20.1975C22.9818 20.1687 22.9092 20.1039 22.8366 20.0536C22.9237 20.032 23.0036 19.9888 23.0907 19.9888C24.3538 19.996 25.3628 19.4707 26.1831 18.5496C26.321 18.3984 26.321 18.2473 26.2121 18.1538C26.0887 18.0458 25.9581 18.0674 25.8056 18.2257C25.5153 18.5352 25.2176 18.823 24.8402 19.0317C23.9763 19.5282 23.0762 19.6362 22.118 19.3555C22.0599 19.3411 22.0164 19.2908 21.9655 19.2548C22.0091 19.2116 22.0381 19.1612 22.0889 19.1396C23.7585 18.2977 24.6732 16.9448 24.8402 15.0954C24.8619 14.8579 24.8765 14.8363 25.1088 14.8363C26.3283 14.8435 27.3373 15.3113 28.085 16.2468C28.9561 17.3334 29.1739 18.5496 28.6948 19.8736C28.1648 21.3345 26.7493 22.3419 25.1813 22.3563ZM17.6536 21.3992C17.6681 21.4208 17.6899 21.4424 17.7044 21.464C17.6609 21.5144 17.6173 21.5647 17.5738 21.6151C17.3415 21.8886 17.0947 22.1548 16.8914 22.4427C16.572 22.896 16.4196 23.4214 16.3397 23.9683C16.2962 24.2777 16.3107 24.5871 16.3107 24.8966C16.3107 25.0405 16.405 25.1125 16.5502 25.1197C16.6954 25.1197 16.768 25.0405 16.7898 24.9038C16.797 24.8606 16.7898 24.8174 16.7898 24.7814C16.768 24.105 16.8769 23.4573 17.2181 22.8601C17.5883 22.2052 18.1182 21.7087 18.8151 21.4064C18.8877 21.3776 19.0256 21.4352 19.0982 21.4928C19.1345 21.5216 19.1127 21.6439 19.0909 21.7159C19.0764 21.7734 19.0256 21.831 18.9893 21.8886C18.6191 22.4427 18.3868 23.0472 18.2924 23.702C18.1109 24.9398 18.3578 26.0911 19.0546 27.1418C19.178 27.3289 19.1708 27.3865 18.9893 27.5088C18.6336 27.7535 18.2634 27.9693 17.8351 28.0557C17.4649 28.1349 17.0874 28.2068 16.7099 28.2068C16.1437 28.1996 15.592 28.0629 15.0766 27.7894C14.1112 27.2785 13.4578 26.5085 13.1529 25.4723C12.9279 24.7095 12.957 23.9395 13.2328 23.1839C13.5014 22.4499 13.9587 21.8598 14.5903 21.4064C15.4251 20.8092 16.3687 20.6077 17.385 20.7516C17.4358 20.7588 17.4794 20.8092 17.523 20.8379C17.4867 20.8811 17.4504 20.9315 17.4068 20.9531C17.1963 21.0682 16.9713 21.1618 16.768 21.2985C15.955 21.8238 15.4396 22.565 15.1492 23.4717C15.0984 23.6301 15.0621 23.7956 15.0403 23.9611C15.0185 24.0978 15.0839 24.1985 15.2363 24.2201C15.3742 24.2417 15.4686 24.1842 15.5049 24.0402C15.5339 23.9395 15.5557 23.8459 15.5848 23.7452C15.8461 22.8241 16.3687 22.0973 17.2035 21.6079C17.3632 21.5216 17.5084 21.464 17.6536 21.3992ZM20.942 17.0168C20.9275 16.916 20.9057 16.8585 20.9057 16.8009C20.9202 16.1029 20.7533 15.448 20.4193 14.8363C20.1653 14.3686 19.8241 13.9656 19.4103 13.6274C19.2506 13.4978 19.0837 13.5338 19.0038 13.6921C18.9167 13.872 19.0546 13.9728 19.1635 14.0663C20.1217 14.9299 20.5573 15.9805 20.3613 17.2686C20.2959 17.6932 20.2669 17.722 19.8459 17.7436C19.6934 17.7508 19.6136 17.6932 19.5845 17.5421C19.4394 16.8225 19.12 16.182 18.6626 15.6135C18.1255 14.9371 17.4431 14.4477 16.6301 14.1311C16.3179 14.0088 16.2962 13.944 16.4123 13.6346C16.572 13.1956 16.797 12.7998 17.0947 12.44C17.6173 11.8067 18.2779 11.3894 19.0691 11.1807C19.8822 10.972 20.6879 11.0152 21.4647 11.3534C22.7423 11.9147 23.5335 12.879 23.744 14.2462C23.9545 15.6135 23.4972 16.7865 22.4229 17.686C22.1615 17.9019 21.8494 18.0602 21.5518 18.2257C21.363 18.3265 21.2541 18.1682 21.138 18.0602C21.0364 17.9595 21.1162 17.8803 21.167 17.7868C21.4719 17.2974 21.6607 16.7649 21.7333 16.1892C21.7986 15.6207 21.755 15.0594 21.5518 14.5269C21.4066 14.1383 21.1888 13.7785 20.9856 13.4115C20.9493 13.3467 20.8549 13.282 20.7896 13.282C20.717 13.2748 20.579 13.3323 20.5718 13.3827C20.55 13.4906 20.5573 13.6274 20.6153 13.7137C21.1453 14.5197 21.3848 15.3832 21.2179 16.3403C21.167 16.5634 21.1453 16.8009 20.942 17.0168ZM20.8622 22.6586C20.9275 22.7233 20.9783 22.7521 21.0001 22.7953C21.3703 23.4645 21.9002 23.9755 22.5826 24.3209C23.0109 24.5368 23.4537 24.7095 23.9328 24.7599C24.0852 24.7742 24.2159 24.7383 24.2449 24.5584C24.2667 24.4216 24.1723 24.3353 23.9908 24.2849C23.715 24.2129 23.4391 24.1482 23.1778 24.0474C22.0018 23.5725 21.2977 22.7161 21.0509 21.4784C21.0436 21.428 21.0727 21.3705 21.0872 21.3201C21.1307 21.3489 21.1888 21.3705 21.2251 21.4136C21.4647 21.6655 21.6752 21.9533 21.9365 22.1764C23.0181 23.1047 24.2812 23.5005 25.704 23.3494C25.9581 23.3206 26.2121 23.2487 26.4735 23.2199C26.5461 23.2127 26.6549 23.2559 26.6912 23.3134C26.7493 23.407 26.7638 23.5293 26.7929 23.6372C26.9671 24.4576 26.8872 25.2492 26.5243 26.0048C25.9726 27.149 25.0579 27.8614 23.8166 28.1205C23.156 28.2572 22.5027 28.1996 21.8567 27.9765C20.7823 27.5951 20.0128 26.8827 19.5918 25.8465C19.0764 24.5799 19.2434 23.3566 20.0491 22.2412C20.0854 22.1908 20.158 22.1548 20.2088 22.1189C20.2379 22.1836 20.2742 22.2412 20.2814 22.306C20.3468 22.637 20.3758 22.968 20.4629 23.2918C20.7605 24.3713 21.4864 25.1125 22.4446 25.645C22.5608 25.7097 22.6842 25.7673 22.8149 25.7817C22.8947 25.7889 23.0326 25.7169 23.0544 25.6522C23.0835 25.573 23.0181 25.4579 22.9746 25.3715C22.9528 25.3283 22.8875 25.3068 22.8366 25.2852C21.9292 24.8606 21.2832 24.1842 20.9493 23.2415C20.8767 23.0759 20.7823 22.896 20.8622 22.6586ZM17.8206 19.6434C17.8061 19.665 17.7843 19.6937 17.7698 19.7153C17.6681 19.7081 17.5738 19.7009 17.4721 19.6865C16.6954 19.5786 15.9405 19.6506 15.2073 19.9096C14.3652 20.2047 13.6466 20.6868 13.0804 21.3776C12.7827 21.7375 12.7827 21.7447 12.4125 21.4424C11.2438 20.4709 10.7937 18.9022 11.2511 17.4773C11.4979 16.7001 11.9552 16.0669 12.623 15.5847C13.6756 14.8219 14.8443 14.6061 16.0711 15.0378C17.4867 15.5344 18.3505 16.5562 18.6046 18.0458C18.6191 18.1322 18.6118 18.2401 18.5828 18.3265C18.5175 18.4776 18.4086 18.4848 18.3215 18.3409C18.2198 18.1754 18.1255 17.9954 18.0166 17.8299C17.6028 17.2039 17.0221 16.7577 16.3325 16.4555C16.0276 16.3259 15.6936 16.2468 15.367 16.1676C15.2218 16.1316 15.1202 16.2108 15.0911 16.3619C15.0621 16.513 15.1492 16.5994 15.2871 16.6354C15.4541 16.6785 15.6283 16.7217 15.788 16.7793C16.7244 17.1031 17.4358 17.686 17.8641 18.5855C17.8932 18.6431 17.8859 18.7079 17.9004 18.7726C17.8859 18.7798 17.8641 18.787 17.8496 18.7942C17.7988 18.751 17.748 18.7007 17.6972 18.6575C17.4867 18.4776 17.2979 18.2761 17.0729 18.1178C16.3034 17.5853 15.4323 17.3838 14.5031 17.3982C14.4378 17.3982 14.358 17.4126 14.3144 17.4485C14.2491 17.5133 14.1475 17.6141 14.162 17.6788C14.1837 17.758 14.2854 17.8443 14.3797 17.8803C14.4596 17.9163 14.5685 17.8875 14.6701 17.8875C15.7082 17.8731 16.5938 18.2257 17.3124 18.9741C17.5084 19.1828 17.6536 19.4275 17.8206 19.6434ZM20.8622 19.6146C20.8622 20.0967 20.4702 20.4853 19.9911 20.4853C19.5483 20.4853 19.1417 20.0751 19.1417 19.629C19.1417 19.1756 19.5555 18.7726 20.0201 18.7726C20.4629 18.7726 20.8622 19.1684 20.8622 19.6146Z" fill="white"/>
</svg>
