<svg width="40" height="40" viewBox="0 0 40 40" fill="none" xmlns="http://www.w3.org/2000/svg">
<path d="M0.80923 11.7754C1.90897 6.27669 6.27669 1.90897 11.7754 0.80923C17.1703 -0.269743 22.8297 -0.269743 28.2246 0.80923C33.7233 1.90897 38.091 6.27669 39.1908 11.7754C40.2697 17.1703 40.2697 22.8297 39.1908 28.2246C38.091 33.7233 33.7233 38.091 28.2246 39.1908C22.8297 40.2697 17.1703 40.2697 11.7754 39.1908C6.27669 38.091 1.90897 33.7233 0.80923 28.2246C-0.269743 22.8297 -0.269743 17.1703 0.80923 11.7754Z" fill="#8D5B32"/>
<g clip-path="url(#clip0_2888_47677)">
<path d="M19.1386 29.7457C19.1386 28.9408 19.1386 28.1289 19.1386 27.3239C19.1386 27.2207 19.1386 27.1175 19.1386 27.0143C19.145 26.8148 19.1132 26.6428 19.0241 26.457C18.7697 25.9342 18.9033 25.3012 19.3421 24.9503C19.4948 24.8265 19.5457 24.6957 19.5457 24.5031C19.5393 23.8288 19.5393 23.1546 19.5393 22.4734C19.5393 22.4184 19.5457 22.3565 19.5329 22.3014C19.5202 22.2464 19.5075 22.1776 19.4693 22.1432C19.4503 22.1226 19.3739 22.1638 19.3358 22.1982C19.2022 22.3083 19.0814 22.439 18.9478 22.5491C18.1337 23.189 17.2623 23.2647 16.3528 22.8312C15.8631 22.5973 15.4878 22.2189 15.2907 21.6616C14.9981 20.8291 15.1762 20.0104 15.7931 19.398C16.0412 19.1503 16.3019 18.9164 16.5627 18.6756C16.6581 18.5862 16.6772 18.5105 16.5691 18.4142C16.0412 17.9326 15.5196 17.451 14.9981 16.9693C14.9154 16.8937 14.8455 16.9005 14.7564 16.9625C14.1585 17.3684 13.567 17.7743 12.9692 18.1665C12.3713 18.5587 11.7226 18.6275 11.042 18.5105C10.5459 18.4279 10.1198 18.2078 9.73184 17.8638C8.84776 17.0794 8.746 15.5796 9.53467 14.6783C10.2852 13.8182 11.2201 13.6187 12.2568 13.8595C12.7402 13.9696 13.1282 14.2861 13.5352 14.5613C13.9359 14.8296 14.3303 15.1117 14.7246 15.3869C14.8264 15.4557 14.9091 15.4626 15.0108 15.3663C15.4942 14.9122 15.9839 14.465 16.4737 14.0178C16.4991 13.9903 16.5245 13.9627 16.5564 13.9352C16.6645 13.8458 16.6708 13.7563 16.5564 13.66C16.3083 13.4398 16.0666 13.199 15.8186 12.9789C14.8327 12.0913 14.9599 10.3782 16.0666 9.66953C16.9252 9.11912 17.803 9.0916 18.6807 9.60073C18.8969 9.72457 19.075 9.93098 19.2722 10.0892C19.3358 10.1374 19.4121 10.1649 19.4884 10.1993C19.5075 10.1167 19.5329 10.0411 19.5329 9.9585C19.5393 9.21545 19.5329 8.47239 19.5393 7.72246C19.5393 7.62614 19.5393 7.52981 19.552 7.43349C19.5838 7.17205 19.781 7.00004 20.029 6.99316C20.2326 6.99316 20.4424 7.19957 20.4615 7.44037C20.4742 7.58485 20.4679 7.73622 20.4679 7.88758C20.4679 8.58935 20.4679 9.29801 20.4679 9.99978C20.4679 10.0686 20.4997 10.1374 20.5188 10.2062C20.576 10.1787 20.646 10.1649 20.6905 10.1167C21.0403 9.77962 21.4156 9.48377 21.8735 9.34617C22.8975 9.02968 24.1187 9.44249 24.6402 10.4883C24.9773 11.1556 24.9455 12.0225 24.4621 12.6486C24.2013 12.9858 23.8706 13.261 23.559 13.5568C23.2982 13.8045 23.2982 13.8045 23.559 14.0453C24.0042 14.4512 24.443 14.8571 24.8882 15.27C25.0981 15.4626 25.0981 15.4764 25.3398 15.3181C25.8868 14.9535 26.4338 14.5819 26.9808 14.2104C27.5786 13.7976 28.2401 13.6944 28.9206 13.7976C29.5948 13.9008 30.1672 14.2379 30.5934 14.8434C31.223 15.7447 31.1213 17.0725 30.3326 17.8156C29.5312 18.5724 28.609 18.7582 27.5913 18.4348C27.1398 18.2903 26.7772 17.9807 26.3829 17.7262C25.9949 17.4785 25.6197 17.217 25.2381 16.9556C25.1045 16.8661 25.0282 16.9487 24.9455 17.0244C24.5893 17.3478 24.2395 17.678 23.8833 18.0014C23.737 18.1321 23.5971 18.2697 23.4508 18.4004C23.3427 18.4967 23.3427 18.5793 23.4445 18.6756C23.7307 18.9439 24.0296 19.2054 24.3031 19.4875C25.1299 20.3406 25.0027 21.8405 24.0741 22.5698C23.1392 23.3059 21.7654 23.2509 20.9322 22.4322C20.8431 22.3496 20.7605 22.267 20.6651 22.1914C20.6269 22.1638 20.5696 22.1363 20.5251 22.1501C20.4997 22.157 20.4742 22.2326 20.4679 22.2808C20.4615 22.4528 20.4615 22.6248 20.4615 22.7968C20.4615 23.361 20.4615 23.9183 20.4552 24.4824C20.4552 24.682 20.4997 24.8127 20.6587 24.9434C21.1739 25.3493 21.2629 26.0374 20.9258 26.6222C20.8559 26.746 20.8431 26.918 20.8431 27.0625C20.8368 28.755 20.8368 30.4406 20.8431 32.1331C20.8431 32.3396 20.8431 32.546 20.8431 32.7524C20.8431 32.89 20.8113 33.0069 20.6523 33.0069C20.506 33.0069 20.4297 32.9244 20.4297 32.7386C20.4297 31.8992 20.4297 31.0667 20.4297 30.2274C20.4297 29.271 20.4297 28.3147 20.4234 27.3583C20.4234 27.262 20.4806 27.1038 20.3216 27.1038C20.1817 27.1038 20.2071 27.262 20.2071 27.3652C20.2071 28.982 20.2071 30.5989 20.2071 32.2088C20.2071 32.3808 20.2071 32.5528 20.2008 32.7248C20.1944 32.9312 20.1435 33.0069 19.9972 33.0069C19.8382 33.0069 19.781 32.9312 19.781 32.7248C19.781 31.5415 19.781 30.3512 19.781 29.1678C19.781 28.5968 19.781 28.0188 19.781 27.4478C19.781 27.3996 19.7937 27.3515 19.7746 27.3102C19.7428 27.2345 19.7047 27.1107 19.6601 27.1038C19.5329 27.09 19.5584 27.2207 19.5584 27.3102C19.5584 29.0027 19.5584 30.6883 19.5584 32.3808C19.5584 32.5184 19.5584 32.656 19.5584 32.7936C19.5584 32.9175 19.4948 32.9863 19.3866 33C19.2658 33.0207 19.1704 32.9794 19.145 32.8418C19.1322 32.7661 19.1322 32.6836 19.1322 32.601C19.1386 31.6515 19.1386 30.6952 19.1386 29.7457ZM11.5954 17.6023C11.8879 17.5886 12.1996 17.4922 12.4795 17.3134C12.9883 16.9831 13.4907 16.6322 13.9932 16.2882C14.1077 16.2125 14.1077 16.1369 13.9741 16.0474C13.5416 15.7516 13.1028 15.4626 12.6703 15.1668C12.3968 14.981 12.1233 14.8365 11.7989 14.7952C11.2265 14.7264 10.7177 14.8571 10.2915 15.2837C9.81452 15.7584 9.80816 16.5153 10.247 17.0175C10.6095 17.4303 11.0611 17.5748 11.5954 17.6023ZM28.5772 14.7677C28.1383 14.7677 27.8712 14.8159 27.5786 15.0085C27.0444 15.3525 26.5292 15.7103 26.0076 16.0681C25.8932 16.1506 25.8995 16.2194 26.0331 16.3089C26.4974 16.6253 26.9617 16.9349 27.426 17.2514C28.2019 17.7812 29.1559 17.678 29.7665 16.9969C30.0909 16.6322 30.1736 16.0956 29.951 15.6552C29.633 15.0154 29.0987 14.8021 28.5772 14.7677ZM17.4341 17.8431C17.4786 17.8087 17.5231 17.7812 17.5613 17.7468C18.0701 17.279 18.5789 16.818 19.0877 16.3501C19.2467 16.1988 19.2467 16.1506 19.0877 15.9993C18.5789 15.5245 18.0637 15.0567 17.5549 14.5819C17.4531 14.4856 17.3705 14.5063 17.2751 14.5888C16.7599 15.0636 16.2447 15.5383 15.7359 16.013C15.6023 16.1369 15.596 16.185 15.7295 16.3089C16.2447 16.7905 16.7662 17.2652 17.2814 17.7399C17.3323 17.7881 17.3832 17.8087 17.4341 17.8431ZM22.5731 17.8431C22.6304 17.8018 22.694 17.7606 22.7448 17.7193C23.26 17.2446 23.7752 16.7698 24.2904 16.302C24.3858 16.2194 24.3794 16.1437 24.2967 16.0612C24.1695 15.9373 24.0423 15.8204 23.9151 15.7034C23.5208 15.3319 23.1201 14.9672 22.7258 14.5957C22.6431 14.52 22.5604 14.4719 22.4586 14.5682C21.9307 15.0567 21.4092 15.5383 20.8813 16.0268C20.7859 16.1162 20.7668 16.2125 20.8813 16.3157C21.4092 16.7973 21.9371 17.2858 22.465 17.7674C22.4904 17.8018 22.5286 17.8156 22.5731 17.8431ZM19.9972 15.4832C20.0417 15.4488 20.0863 15.4282 20.1181 15.3938C20.6396 14.9122 21.1675 14.4306 21.689 13.949C21.8353 13.8114 21.8353 13.7907 21.6954 13.66C21.1675 13.1715 20.6396 12.6899 20.1117 12.2014C20.0227 12.1189 19.9591 12.1326 19.8764 12.2083C19.3612 12.683 18.846 13.1578 18.3309 13.6325C18.1718 13.777 18.1718 13.8183 18.3309 13.9696C18.846 14.4443 19.3612 14.9191 19.8764 15.3938C19.9082 15.4282 19.9527 15.4488 19.9972 15.4832ZM20.0036 20.2236C20.0481 20.1961 20.0863 20.1755 20.1181 20.148C20.646 19.6595 21.1739 19.1779 21.6954 18.6894C21.829 18.5655 21.8226 18.5174 21.6827 18.3935C21.1611 17.9188 20.646 17.4372 20.1308 16.9556C20.0418 16.873 19.9845 16.8661 19.9018 16.9487C19.3739 17.4372 18.846 17.9188 18.3181 18.4073C18.1782 18.538 18.1782 18.5793 18.3181 18.7031C18.8397 19.1847 19.3612 19.6664 19.8891 20.148C19.9145 20.1755 19.9591 20.1961 20.0036 20.2236ZM17.3323 22.1019C17.7775 22.095 18.121 21.9712 18.3881 21.7373C18.6489 21.5102 18.8969 21.2694 19.1513 21.0355C19.2467 20.9461 19.2213 20.8704 19.1386 20.7947C18.6043 20.3062 18.0764 19.8177 17.5422 19.3292C17.4531 19.2467 17.3705 19.2536 17.2878 19.3292C16.9888 19.6113 16.6772 19.8796 16.3846 20.1686C16.0157 20.5264 15.9648 21.0699 16.2574 21.5034C16.55 21.9299 16.9698 22.0813 17.3323 22.1019ZM22.5668 10.2681C22.2615 10.2475 21.9625 10.33 21.7145 10.5433C21.4219 10.791 21.1421 11.0524 20.8622 11.3139C20.7732 11.3964 20.7795 11.4859 20.8749 11.5753C21.0467 11.7267 21.212 11.8849 21.3838 12.0432C21.7399 12.3734 22.1025 12.6968 22.4586 13.027C22.535 13.0958 22.5986 13.1234 22.6812 13.0408C22.9865 12.7587 23.3045 12.4904 23.5971 12.1877C24.0741 11.6992 24.0296 11.0249 23.5081 10.5915C23.2346 10.3644 22.9229 10.2612 22.5668 10.2681ZM17.4023 10.2612C17.0461 10.2475 16.7154 10.3851 16.4291 10.6396C16.0094 11.0112 15.9394 11.6441 16.3147 12.0638C16.6263 12.4147 16.9825 12.7105 17.3196 13.0339C17.3959 13.1027 17.4659 13.089 17.5422 13.0202C18.0701 12.5317 18.6043 12.0432 19.1386 11.5616C19.2467 11.4652 19.2213 11.3827 19.1322 11.2932C18.9096 11.0937 18.687 10.8873 18.4708 10.6809C18.1655 10.3988 17.822 10.2543 17.4023 10.2612ZM22.5668 22.095C22.9102 22.095 23.2409 21.9781 23.5272 21.7442C24.0487 21.3245 24.0614 20.5677 23.5653 20.1204C23.2918 19.8728 23.012 19.6251 22.7448 19.3636C22.6367 19.2604 22.5413 19.2467 22.4268 19.3499C21.9117 19.8246 21.3965 20.2993 20.8813 20.7741C20.7668 20.8841 20.7668 20.9598 20.8877 21.0699C21.1166 21.2901 21.3456 21.5102 21.5873 21.7166C21.8671 21.9574 22.1979 22.095 22.5668 22.095ZM20.2071 25.9617C20.2071 25.9342 20.2071 25.9066 20.2071 25.886C20.1372 25.831 20.0799 25.7484 20.0036 25.7346C19.8955 25.714 19.8319 25.8103 19.8255 25.9273C19.8191 26.0511 19.9082 26.1199 20.0036 26.113C20.0799 26.0993 20.1435 26.0167 20.2071 25.9617Z" fill="white"/>
</g>
<defs>
<clipPath id="clip0_2888_47677">
<rect width="22" height="26" fill="white" transform="translate(9 7)"/>
</clipPath>
</defs>
</svg>
