<svg width="40" height="40" viewBox="0 0 40 40" fill="none" xmlns="http://www.w3.org/2000/svg">
<path d="M0.80923 11.7754C1.90897 6.27669 6.27669 1.90897 11.7754 0.80923C17.1703 -0.269743 22.8297 -0.269743 28.2246 0.80923C33.7233 1.90897 38.091 6.27669 39.1908 11.7754C40.2697 17.1703 40.2697 22.8297 39.1908 28.2246C38.091 33.7233 33.7233 38.091 28.2246 39.1908C22.8297 40.2697 17.1703 40.2697 11.7754 39.1908C6.27669 38.091 1.90897 33.7233 0.80923 28.2246C-0.269743 22.8297 -0.269743 17.1703 0.80923 11.7754Z" fill="#863F38"/>
<g clip-path="url(#clip0_2888_47644)">
<path d="M20.0001 11.3299C19.6898 11.3299 19.3352 11.525 18.954 11.7289C18.626 11.9062 18.2891 12.0924 17.9079 12.1899C17.5178 12.2963 17.1189 12.3051 16.7377 12.314C16.3121 12.3228 15.9221 12.3406 15.665 12.4824C15.4079 12.6331 15.1951 12.97 14.9735 13.3335C14.7784 13.6615 14.5657 13.9895 14.282 14.2732C13.9983 14.5569 13.6614 14.7608 13.3423 14.9647C12.9788 15.1863 12.6331 15.3991 12.4912 15.6562C12.3494 15.9044 12.3316 16.3033 12.3228 16.7289C12.3139 17.1101 12.305 17.509 12.1987 17.8991C12.1011 18.2803 11.915 18.6172 11.7377 18.9452C11.5338 19.3264 11.3387 19.681 11.3387 19.9913C11.3387 20.3016 11.5338 20.6562 11.7377 21.0374C11.915 21.3654 12.1011 21.7023 12.1987 22.0835C12.305 22.4824 12.3139 22.8725 12.3228 23.2537C12.3316 23.6792 12.3494 24.0693 12.4912 24.3264C12.6419 24.5835 12.9877 24.7963 13.3423 25.0179C13.6703 25.2129 13.9983 25.4168 14.282 25.7094C14.5657 25.9931 14.7696 26.3299 14.9735 26.6491C15.1951 27.0126 15.4079 27.3583 15.665 27.5002C15.9132 27.642 16.3121 27.6597 16.7377 27.6686C17.1189 27.6775 17.5178 27.6863 17.9079 27.7927C18.2891 27.8902 18.626 28.0764 18.954 28.2537C19.3263 28.4576 19.6898 28.6526 20.0001 28.6526C20.3104 28.6526 20.665 28.4576 21.0462 28.2537C21.3742 28.0764 21.7111 27.8902 22.0923 27.7927C22.4823 27.6863 22.8813 27.6775 23.2625 27.6686C23.688 27.6597 24.087 27.642 24.3352 27.5002C24.5923 27.3494 24.805 27.0126 25.0267 26.6491C25.2217 26.3211 25.4256 25.9931 25.7182 25.7094C26.0019 25.4257 26.3387 25.2218 26.6579 25.0179C27.0214 24.7963 27.3671 24.5835 27.5089 24.3264C27.6508 24.0782 27.6685 23.6792 27.6774 23.2537C27.6862 22.8725 27.6951 22.4736 27.8015 22.0835C27.899 21.7023 28.0852 21.3654 28.2625 21.0374C28.4664 20.6562 28.6614 20.3016 28.6614 19.9913C28.6614 19.681 28.4664 19.3264 28.2625 18.9452C28.0852 18.6172 27.899 18.2803 27.8015 17.8991C27.6951 17.5002 27.6862 17.1101 27.6774 16.7289C27.6685 16.3033 27.6508 15.9133 27.5089 15.6562C27.3582 15.3991 27.0214 15.1863 26.6579 14.9647C26.3299 14.7697 26.0019 14.5658 25.7182 14.2732C25.4345 13.9895 25.2306 13.6526 25.0267 13.3335C24.805 12.97 24.5923 12.6243 24.3352 12.4824C24.087 12.3406 23.688 12.3228 23.2625 12.314C22.8813 12.3051 22.4823 12.2963 22.0923 12.1899C21.7111 12.0924 21.3742 11.9062 21.0462 11.7289C20.665 11.525 20.3104 11.3299 20.0001 11.3299ZM20.0001 30.0002C19.3529 30.0002 18.8033 29.6987 18.3157 29.4416C18.0409 29.2909 17.7926 29.158 17.5621 29.0959C17.3139 29.0338 17.0125 29.025 16.6933 29.0161C16.1526 28.9984 15.532 28.9806 14.9912 28.6704C14.4416 28.3512 14.1224 27.8282 13.8299 27.3583C13.6614 27.0924 13.5107 26.8353 13.3334 26.658C13.1561 26.4895 12.9079 26.3299 12.6331 26.1615C12.1721 25.8778 11.6401 25.5498 11.321 25.0002C11.0018 24.4594 10.993 23.8388 10.9753 23.298C10.9664 22.9789 10.9575 22.6775 10.8955 22.4292C10.8334 22.1987 10.6916 21.9505 10.5497 21.6757C10.2838 21.1881 9.99121 20.6473 9.99121 19.9913C9.99121 19.3441 10.2926 18.7945 10.5497 18.3069C10.7004 18.0321 10.8334 17.775 10.8955 17.5533C10.9575 17.314 10.9664 17.0037 10.9753 16.6845C10.993 16.1438 11.0107 15.5232 11.321 14.9824C11.6401 14.4328 12.1632 14.1136 12.6331 13.8211C12.899 13.6526 13.1561 13.5019 13.3334 13.3246C13.5018 13.1562 13.6614 12.8991 13.8299 12.6243C14.1136 12.1544 14.4327 11.6314 14.9912 11.3122C15.532 11.0019 16.1526 10.9842 16.6933 10.9665C17.0125 10.9576 17.3139 10.9487 17.5621 10.8867C17.7926 10.8246 18.0497 10.6828 18.3157 10.5409C18.8033 10.275 19.344 9.98242 20.0001 9.98242C20.6561 9.98242 21.1969 10.2838 21.6845 10.5409C21.9593 10.6916 22.2075 10.8246 22.438 10.8867C22.6862 10.9487 22.9877 10.9576 23.3068 10.9665C23.8476 10.9842 24.4682 11.0019 25.0089 11.3122C25.5586 11.6314 25.8777 12.1544 26.1703 12.6243C26.3387 12.8902 26.4894 13.1473 26.6667 13.3246C26.8352 13.5019 27.0923 13.6526 27.3671 13.8211C27.8281 14.1048 28.36 14.4328 28.6792 14.9824C28.9894 15.5232 29.0072 16.1438 29.0249 16.6845C29.0338 17.0037 29.0426 17.3051 29.1047 17.5533C29.1667 17.7838 29.3086 18.0321 29.4504 18.3069C29.7164 18.7945 30.0089 19.3353 30.0089 19.9913C30.0089 20.6384 29.7075 21.1881 29.4504 21.6757C29.2997 21.9505 29.1667 22.2076 29.1047 22.4292C29.0426 22.6775 29.0338 22.9789 29.0249 23.298C29.0072 23.8388 28.9894 24.4594 28.6792 25.0002C28.36 25.5498 27.8281 25.8689 27.3671 26.1615C27.1011 26.3299 26.844 26.4806 26.6667 26.658C26.4983 26.8353 26.3387 27.0835 26.1703 27.3583C25.8866 27.8282 25.5586 28.3512 25.0089 28.6704C24.4682 28.9806 23.8476 28.9984 23.3068 29.0161C22.9877 29.025 22.6862 29.0338 22.438 29.0959C22.2075 29.158 21.9504 29.2998 21.6845 29.4416C21.1969 29.6987 20.6472 30.0002 20.0001 30.0002Z" fill="white"/>
<path d="M20.0002 13.3247C16.3211 13.3247 13.3247 16.3211 13.3247 20.0002C13.3247 23.6793 16.3211 26.6757 20.0002 26.6757C23.6793 26.6757 26.6757 23.6793 26.6757 20.0002C26.6757 16.3211 23.6793 13.3247 20.0002 13.3247ZM20.0002 27.4116C15.9133 27.4116 12.5889 24.0871 12.5889 20.0002C12.5889 15.9133 15.9133 12.5889 20.0002 12.5889C24.0871 12.5889 27.4116 15.9133 27.4116 20.0002C27.4116 24.0871 24.0871 27.4116 20.0002 27.4116Z" fill="white"/>
<path d="M18.0584 16.7202L19.9999 18.6617L21.9414 16.7202L19.9999 14.7787L18.0584 16.7202ZM19.9999 19.5482C19.9024 19.5482 19.8049 19.5127 19.7339 19.4418L17.2783 16.9773C17.1364 16.8354 17.1364 16.5961 17.2783 16.4542L19.7428 13.9897C19.8846 13.8478 20.124 13.8478 20.2658 13.9897L22.7304 16.4542C22.8722 16.5961 22.8722 16.8354 22.7304 16.9773L20.2658 19.4418C20.1949 19.5127 20.0974 19.5482 19.9999 19.5482Z" fill="white"/>
<path d="M20.3726 19.1759H19.6279V16.7202H20.3726V19.1759Z" fill="white"/>
<path d="M18.0585 23.2802L20 25.2217L21.9415 23.2802L20 21.3475L18.0585 23.2802ZM20 26.117C19.9024 26.117 19.8138 26.0816 19.734 26.0107L17.2695 23.5461C17.1276 23.4043 17.1276 23.1649 17.2695 23.0231L19.734 20.5585C19.8759 20.4167 20.1152 20.4167 20.2571 20.5585L22.7216 23.0231C22.8634 23.1649 22.8634 23.4043 22.7216 23.5461L20.2571 26.0107C20.1861 26.0816 20.0975 26.117 20 26.117Z" fill="white"/>
<path d="M20.3726 23.2804H19.6279V20.8247H20.3726V23.2804Z" fill="white"/>
<path d="M21.3475 20.0004L23.289 21.9419L25.2305 20.0004L23.289 18.0589L21.3475 20.0004ZM23.2802 22.8373C23.1826 22.8373 23.094 22.8018 23.0231 22.7309L20.5585 20.2663C20.4876 20.1954 20.4521 20.1068 20.4521 20.0004C20.4521 19.9029 20.4876 19.8053 20.5585 19.7433L23.0231 17.2787C23.1649 17.1369 23.4043 17.1369 23.5461 17.2787L26.0107 19.7433C26.1525 19.8851 26.1525 20.1245 26.0107 20.2663L23.5461 22.7309C23.4752 22.7929 23.3777 22.8373 23.2802 22.8373Z" fill="white"/>
<path d="M23.2799 20.3726H20.8242V19.6279H23.2799V20.3726Z" fill="white"/>
<path d="M14.7782 20.0004L16.7197 21.9419L18.6612 20.0004L16.7197 18.0589L14.7782 20.0004ZM16.7197 22.8373C16.6222 22.8373 16.5335 22.8018 16.4537 22.7309L13.9892 20.2663C13.8474 20.1245 13.8474 19.8851 13.9892 19.7433L16.4537 17.2787C16.5956 17.1369 16.8349 17.1369 16.9768 17.2787L19.4413 19.7433C19.5832 19.8851 19.5832 20.1245 19.4413 20.2663L16.9768 22.7309C16.9059 22.7929 16.8083 22.8373 16.7197 22.8373Z" fill="white"/>
<path d="M19.1754 20.3726H16.7197V19.6279H19.1754V20.3726Z" fill="white"/>
</g>
<defs>
<clipPath id="clip0_2888_47644">
<rect width="20" height="20" fill="white" transform="translate(10 10)"/>
</clipPath>
</defs>
</svg>
