<svg width="40" height="40" viewBox="0 0 40 40" fill="none" xmlns="http://www.w3.org/2000/svg">
<path d="M0.80923 11.7754C1.90897 6.27669 6.27669 1.90897 11.7754 0.80923C17.1703 -0.269743 22.8297 -0.269743 28.2246 0.80923C33.7233 1.90897 38.091 6.27669 39.1908 11.7754C40.2697 17.1703 40.2697 22.8297 39.1908 28.2246C38.091 33.7233 33.7233 38.091 28.2246 39.1908C22.8297 40.2697 17.1703 40.2697 11.7754 39.1908C6.27669 38.091 1.90897 33.7233 0.80923 28.2246C-0.269743 22.8297 -0.269743 17.1703 0.80923 11.7754Z" fill="#544D34"/>
<g clip-path="url(#clip0_2888_47688)">
<path d="M9.80557 23.4129C9.78117 23.0276 9.87876 22.6424 10.0495 22.2761C10.1288 22.1118 10.0983 22.0108 9.97634 21.8845C9.12246 20.9876 8.8053 19.914 9.12246 18.695C9.41522 17.5771 10.1288 16.8319 11.1962 16.4718C11.678 16.3076 12.1781 16.3076 12.6722 16.3771C12.8735 16.4024 12.8978 16.3834 12.9039 16.1687C12.9527 15.0382 13.3675 14.0655 14.136 13.2697C14.9777 12.4171 15.984 11.9876 17.1612 12.0003C18.4542 12.0129 19.5216 12.5434 20.3693 13.5476C20.7719 14.0213 21.0464 14.5834 21.2049 15.1961C21.2415 15.3476 21.3147 15.3982 21.4611 15.3982C22.1747 15.3982 22.8151 15.6129 23.3457 16.1118C23.5592 16.314 23.7422 16.5603 23.9069 16.8066C23.9923 16.9329 24.0593 16.9582 24.1813 16.914C24.7668 16.6929 25.3585 16.6992 25.944 16.8761C26.5478 17.0529 27.0845 17.3813 27.5359 17.8297C28.0543 18.354 28.5361 18.9161 29.0485 19.4466C29.2192 19.6234 29.4205 19.775 29.634 19.8887C29.9877 20.0782 30.3293 19.9392 30.6526 19.7813C30.8477 19.6866 31.0307 19.5603 31.2259 19.4529C31.4272 19.3455 31.6772 19.4087 31.7992 19.5855C31.9151 19.7561 31.8968 20.0655 31.726 20.1918C31.11 20.6466 30.4452 20.9687 29.6584 20.8613C29.1888 20.7982 28.8045 20.5266 28.4812 20.1855C28.0421 19.7245 27.6335 19.2255 27.1882 18.7645C26.6942 18.2592 26.1392 17.855 25.4439 17.7034C25.0779 17.6276 24.7364 17.6782 24.407 17.8297C24.3521 17.855 24.2972 17.9561 24.2911 18.0255C24.2789 18.3224 24.3277 18.3729 24.5961 18.4171C25.1389 18.5182 25.578 18.8024 25.8952 19.2761C26.3221 19.914 26.4136 20.615 26.1392 21.3476C25.7854 22.2887 24.8461 22.8508 23.8825 22.6866C23.1933 22.5729 22.7663 22.1245 22.498 21.4803C22.4126 21.2718 22.565 20.9561 22.7297 20.8992C22.9798 20.8108 23.2116 20.9055 23.3335 21.1392C23.4067 21.2782 23.4799 21.4171 23.5836 21.5245C23.9252 21.8971 24.3643 21.8529 24.7181 21.6571C25.1206 21.4361 25.3646 21.0887 25.3829 20.5897C25.4012 20.0529 25.1572 19.674 24.7242 19.415C24.468 19.2634 24.1813 19.2761 23.8947 19.314C23.5958 19.3582 23.4189 19.2445 23.3518 18.9666C23.3396 18.9097 23.3396 18.8403 23.3518 18.7834C23.5531 17.8676 23.1933 16.9897 22.3943 16.554C21.7539 16.2066 21.1012 16.2003 20.5035 16.6803C19.9119 17.154 20.0583 18.0192 20.5279 18.2971C20.839 18.474 21.211 18.3855 21.4001 18.0761C21.4977 17.9182 21.699 17.8613 21.8514 17.9561C21.9978 18.0445 22.0466 18.2466 21.9612 18.4108C21.7417 18.8466 21.3818 19.0297 20.9244 19.055C20.3327 19.0866 19.7838 18.695 19.5947 18.1708C19.2959 17.3308 19.5277 16.5476 20.2352 16.0361C20.4486 15.8845 20.4486 15.8718 20.3876 15.6066C20.1071 14.4382 19.4301 13.6108 18.3566 13.1624C16.8928 12.5497 15.2643 13.0992 14.3799 14.4382C13.8676 15.215 13.6663 16.0803 13.8615 16.9834C13.9957 17.615 14.3617 18.1329 15.0204 18.3224C15.4534 18.4487 16.1487 18.1013 16.289 17.6971C16.3866 17.4129 16.2646 17.1918 15.9779 17.1476C15.7584 17.1097 15.5937 16.8824 15.6181 16.6613C15.6486 16.4087 15.8681 16.2255 16.106 16.2445C16.6854 16.2887 17.1185 16.7245 17.1795 17.3245C17.2649 18.1582 16.8196 18.8466 16.0023 19.1118C15.4534 19.295 14.9045 19.3203 14.3739 19.0487C13.9164 18.815 13.5749 18.4424 13.3248 17.9876C13.2455 17.8424 13.1967 17.6718 13.0869 17.5518C12.9954 17.4508 12.8491 17.3813 12.7149 17.3434C11.5133 16.9897 10.324 17.7476 9.99464 18.935C9.76287 19.7687 9.97024 20.5203 10.5375 21.1645C10.6473 21.2908 10.7509 21.3161 10.9034 21.215C11.1901 21.0255 11.5011 20.874 11.8549 20.8676C11.9403 20.8676 12.0257 20.8613 12.1111 20.8803C12.355 20.9308 12.4587 21.095 12.4404 21.3666C12.4221 21.594 12.2696 21.7582 12.044 21.7645C11.5682 21.7708 11.245 22.0424 11.0071 22.434C10.5436 23.1918 10.5924 24.0445 11.1535 24.7266C11.6475 25.3203 12.3916 25.5224 13.1174 25.2824C13.4163 25.1813 13.6541 24.9982 13.8737 24.7708C13.953 24.6824 13.9713 24.6003 13.9469 24.4866C13.8005 23.8866 13.8432 23.2992 14.1787 22.775C14.5873 22.1308 15.2277 21.7645 16.0267 21.9034C16.2951 21.9476 16.4476 22.1876 16.3988 22.4718C16.3622 22.6929 16.1182 22.8571 15.8742 22.8129C15.3741 22.7308 14.8984 23.0971 14.7886 23.615C14.6605 24.2213 14.996 24.8845 15.5205 25.1308C16.0511 25.3771 16.6366 25.175 16.9416 24.7329C16.9904 24.6634 16.9599 24.5118 16.9416 24.4045C16.9172 24.2276 16.844 24.0571 16.8318 23.8866C16.8135 23.6087 16.9721 23.4255 17.2161 23.394C17.4356 23.3687 17.6369 23.5392 17.704 23.7792C17.7772 24.0382 17.8443 24.3097 17.9724 24.5434C18.564 25.6676 19.8082 26.2803 21.022 26.0529C21.5892 25.9455 22.0832 25.6866 22.5102 25.2761C22.5955 25.194 22.5894 25.1308 22.5346 25.0297C22.376 24.714 22.2174 24.3982 22.0832 24.0697C21.9795 23.8234 22.0649 23.5708 22.2479 23.4508C22.4858 23.2929 22.809 23.4255 22.9005 23.7161C23.053 24.1961 23.2847 24.6192 23.6751 24.9287C23.9862 25.175 24.3277 25.314 24.7242 25.3329C25.3829 25.3582 25.9806 25.2003 26.499 24.7708C26.8406 24.4866 27.0601 24.1455 27.0906 23.6845C27.115 23.3497 27.2858 23.2045 27.6152 23.2234C28.3288 23.2613 29.018 23.1476 29.6889 22.895C30.2561 22.6866 30.7623 22.3834 31.2381 22.0045C31.3235 21.935 31.4333 21.8845 31.5369 21.8719C31.7382 21.8403 31.909 21.954 31.9761 22.1371C32.0493 22.3266 31.9883 22.5603 31.8358 22.6929C31.0002 23.4066 30.0365 23.8424 28.9753 24.0508C28.7191 24.1013 28.463 24.1203 28.2068 24.1392C27.9506 24.1582 27.9506 24.1455 27.853 24.3982C27.6274 25.0108 27.2187 25.4529 26.6759 25.7687C25.8891 26.2297 25.0474 26.375 24.163 26.1792C23.913 26.1224 23.6751 26.0024 23.4433 25.895C23.3274 25.8382 23.2482 25.8255 23.1445 25.9203C22.7236 26.3245 22.2418 26.634 21.6929 26.8108C21.0159 27.0318 20.3266 27.0697 19.6374 26.9055C18.8384 26.7097 18.1614 26.2992 17.6247 25.6487C17.5332 25.535 17.4539 25.535 17.3442 25.6297C16.9172 25.9897 16.4354 26.154 15.8803 26.1287C15.3863 26.1097 14.9594 25.9266 14.5934 25.6045C14.4897 25.5097 14.4226 25.5097 14.3068 25.6045C13.6541 26.1792 12.8857 26.4003 12.0501 26.2487C10.7082 26.0087 9.75677 24.8087 9.80557 23.4129Z" fill="white"/>
<path d="M29.0054 22.1119C28.6273 22.0614 28.3162 22.0298 28.0052 21.9856C27.9442 21.9793 27.8649 21.954 27.8283 21.9098C27.7856 21.853 27.7429 21.7582 27.7612 21.6951C27.7734 21.6382 27.8588 21.5814 27.9198 21.5561C27.9625 21.5372 28.0295 21.5561 28.0844 21.5688C28.8468 21.7393 29.6031 21.6888 30.335 21.4298C30.701 21.2972 31.0486 21.1077 31.4024 20.9372C31.5488 20.8677 31.6708 20.874 31.7378 20.9877C31.7988 21.0888 31.7561 21.2214 31.622 21.3035C31.1828 21.5814 30.7132 21.8024 30.2131 21.9161C29.7922 22.0045 29.3714 22.0551 29.0054 22.1119Z" fill="white"/>
</g>
<defs>
<clipPath id="clip0_2888_47688">
<rect width="23" height="15" fill="white" transform="translate(9 12)"/>
</clipPath>
</defs>
</svg>

