<svg width="40" height="40" viewBox="0 0 40 40" fill="none" xmlns="http://www.w3.org/2000/svg">
<path d="M0.80923 11.7754C1.90897 6.27669 6.27669 1.90897 11.7754 0.80923C17.1703 -0.269743 22.8298 -0.269743 28.2246 0.80923C33.7233 1.90897 38.091 6.27669 39.1908 11.7754C40.2697 17.1703 40.2697 22.8298 39.1908 28.2246C38.091 33.7233 33.7233 38.091 28.2246 39.1908C22.8298 40.2697 17.1703 40.2697 11.7754 39.1908C6.27669 38.091 1.90897 33.7233 0.80923 28.2246C-0.269743 22.8298 -0.269743 17.1703 0.80923 11.7754Z" fill="#54475E"/>
<path d="M19.995 11.4874C15.3049 11.4874 11.4874 15.3049 11.4874 19.995C11.4874 24.6852 15.3049 28.5027 19.995 28.5027C24.6852 28.5027 28.5027 24.6852 28.5027 19.995C28.5027 15.3049 24.6852 11.4874 19.995 11.4874ZM19.995 30C14.4819 30 10 25.5082 10 19.995C10 14.4819 14.4819 10 19.995 10C25.5082 10 29.9901 14.4819 29.9901 19.995C30 25.5082 25.5082 30 19.995 30Z" fill="white"/>
<path d="M19.9953 25.1314C19.9953 25.9346 19.3409 26.589 18.5377 26.589C17.7345 26.589 17.0801 25.9346 17.0801 25.1314C17.0801 24.3283 17.7345 23.6738 18.5377 23.6738C19.3409 23.6738 19.9953 24.3283 19.9953 25.1314Z" fill="white"/>
<path d="M21.9584 16.0783C21.1553 16.0783 20.5008 15.4239 20.5008 14.6207C20.5008 13.8175 21.1553 13.1631 21.9584 13.1631C22.7616 13.1631 23.4161 13.8175 23.4161 14.6207C23.4161 15.4239 22.7616 16.0783 21.9584 16.0783ZM19.9951 10.7437C19.9951 10.7437 14.5415 14.1249 19.9951 19.995C25.4488 25.8651 19.9951 29.2464 19.9951 29.2464C25.1017 29.2464 29.2465 25.1016 29.2465 19.995C29.2564 14.8884 25.1116 10.7437 19.9951 10.7437Z" fill="white"/>
</svg>

