<svg width="40" height="40" viewBox="0 0 40 40" fill="none" xmlns="http://www.w3.org/2000/svg">
<path fill-rule="evenodd" clip-rule="evenodd" d="M40 19.9577C40 21.9028 39.7466 23.7632 39.2397 25.4968C38.226 29.0486 36.283 32.1776 33.6219 34.63C31.7635 36.3636 29.5248 37.759 27.075 38.6892C24.8786 39.5349 22.471 40 19.9789 40C19.641 40 19.2608 40 18.9229 39.9577C18.416 39.9154 17.8669 39.8732 17.3601 39.8309C13.5164 39.3235 9.96832 37.7167 7.13833 35.3066C6.08236 34.4186 5.11088 33.4038 4.22386 32.3044C3.59028 31.5011 2.99894 30.6131 2.49208 29.6829C2.36536 29.4715 2.23865 29.2178 2.11193 29.0063C1.98522 28.7526 1.85851 28.5412 1.77403 28.2875C1.43612 27.5264 1.14045 26.723 0.887014 25.9197C0.71806 25.3277 0.549102 24.7357 0.422386 24.1438C0.337909 23.7209 0.253432 23.2981 0.211193 22.833C0.0844773 21.9028 0 20.9725 0 20C0 19.4503 5.15483e-06 18.9006 0.0844824 18.351C0.126721 18.0127 0.126716 17.6744 0.211193 17.3362C0.464625 15.3488 1.01372 13.4884 1.81626 11.7548C2.1964 10.9091 2.66103 10.0634 3.1679 9.30233C4.01267 7.99154 4.98416 6.76533 6.1246 5.66596C9.71489 2.15645 14.6568 0 20.0634 0C20.2745 0 20.4857 0 20.6969 0C20.9081 0 21.1616 9.67158e-07 21.3728 0.0422843C22.5132 0.126851 23.6536 0.295984 24.7096 0.549684C25.3432 0.718817 25.9768 0.88795 26.5681 1.09937C26.9905 1.22622 27.3706 1.39535 27.793 1.56448C28.0887 1.69133 28.3844 1.81818 28.68 1.94503C28.7223 1.98732 28.7645 1.98732 28.849 2.0296C30.792 2.95983 32.566 4.22833 34.0866 5.75053C34.2978 5.96194 34.509 6.17336 34.7202 6.38478C34.8469 6.55391 35.0158 6.68076 35.1426 6.8499C35.396 7.1036 35.6072 7.39958 35.8184 7.65328C36.6209 8.66808 37.2967 9.76744 37.8881 10.9091C38.5639 12.2622 39.113 13.6998 39.4931 15.1797C39.7888 16.7019 40 18.3087 40 19.9577Z" fill="url(#paint0_radial_2888_47769)"/>
<path fill-rule="evenodd" clip-rule="evenodd" d="M28.7645 1.94465C28.68 1.94465 28.6378 1.94465 28.5533 1.98693C28.3421 2.02921 28.1309 1.98693 27.9197 1.94465C27.7508 1.90236 27.6663 1.8178 27.4551 1.8178C27.2017 1.77551 26.9905 1.69095 26.7371 1.64866C26.4836 1.60638 26.2724 1.52181 26.019 1.43725C25.8078 1.35268 25.7233 1.39496 25.5544 1.43725C25.3854 1.47953 25.2587 1.39496 25.0898 1.35268C24.9208 1.26811 24.7096 1.26811 24.5406 1.22583C24.0338 1.14126 23.5269 0.972129 23.0201 0.84528C22.7244 0.760713 22.4287 0.760714 22.0908 0.760714C21.8374 0.760714 21.6262 0.84528 21.3728 0.84528C21.2038 0.84528 21.0771 0.802997 20.9081 0.802997C20.7392 0.760714 20.5702 0.802997 20.4013 0.802997C20.1478 0.760714 20.0211 0.71843 19.7677 0.802997C19.5565 0.84528 19.4298 0.845281 19.2186 0.887564C19.0074 0.887564 18.754 0.97213 18.5428 1.01441C18.1626 1.09898 17.7402 1.18355 17.3601 1.18355C17.1067 1.18355 16.7687 1.09898 16.5576 1.18355C16.4308 1.22583 16.3464 1.39496 16.2196 1.47953C16.0084 1.69095 15.7973 1.86008 15.6283 2.0715C15.4593 2.28291 15.2904 2.53661 15.2904 2.83259C15.2904 3.08629 15.4171 3.38228 15.5438 3.59369C15.6705 3.84739 15.7128 4.05881 15.4593 4.22794C15.1637 4.43936 14.7835 4.60849 14.4456 4.73534C14.1922 4.81991 13.981 4.86219 13.812 4.69306C13.7276 4.65078 13.6853 4.52393 13.6008 4.43936C13.5164 4.39708 13.3897 4.43936 13.3052 4.48164C13.0517 4.56621 12.7983 4.65078 12.5449 4.69306C12.3759 4.73534 12.2492 4.81991 12.0803 4.81991C11.9113 4.86219 11.7846 4.73534 11.5734 4.77763C11.32 4.81991 11.0243 4.94676 10.7709 4.94676C10.5597 4.94676 10.3062 4.86219 10.1373 4.77763C10.0528 4.73534 10.0106 4.65078 9.88384 4.69306C9.79936 4.69306 9.67264 4.81991 9.63041 4.90448C9.54593 4.98904 9.54593 5.11589 9.46145 5.20046C9.37698 5.32731 9.33474 5.41187 9.25026 5.53872C9.12354 5.75014 8.99683 5.96156 8.87012 6.17297C8.78564 6.29982 8.70116 6.51124 8.57444 6.63809C8.5322 6.72266 8.4055 6.76494 8.32102 6.80722C8.10983 6.93407 7.89863 7.10321 7.68744 7.23006C7.30729 7.52604 6.92714 7.86431 6.54699 8.16029C6.25132 8.37171 5.82893 8.49856 5.49102 8.66769C5.27983 8.75226 5.06864 8.83682 4.85744 8.92139C4.77297 8.96367 4.64625 8.96367 4.60401 9.04824C4.51953 9.13281 4.4773 9.21737 4.43506 9.34422C4.2661 9.55564 4.0549 9.80934 3.92819 10.063C3.84371 10.2322 3.80147 10.359 3.717 10.5282C3.63252 10.7396 3.50581 10.951 3.46357 11.2047C3.29462 11.6698 3.29461 12.1772 3.08342 12.6423C2.99894 12.896 2.82999 13.1497 2.70327 13.4034C2.49208 13.8263 2.44985 14.3337 2.40761 14.7988C2.36537 15.0525 2.4076 15.3907 2.44984 15.6444C2.49207 15.9404 2.49208 16.2364 2.49208 16.5324C2.49208 16.8284 2.28089 17.1666 2.11193 17.378C1.94298 17.5895 1.6473 17.674 1.43611 17.8854C1.26716 18.0546 1.05596 18.2237 0.971484 18.4774C0.929245 18.562 0.971484 18.6888 0.971484 18.8157C0.929245 19.0694 0.844773 19.2808 0.844773 19.5345C0.802534 19.8305 0.802532 20.1265 0.802532 20.4647C0.802532 20.6339 0.802532 20.7607 0.802532 20.9298C0.802532 21.099 0.844775 21.2258 0.887014 21.3527C0.887014 21.4372 0.887014 21.5641 0.887014 21.6487C0.887014 21.7755 0.971484 21.9024 0.971484 21.9869C1.05596 22.2829 1.09821 22.5366 1.14045 22.8326C1.18269 23.0863 1.3094 23.34 1.35164 23.5937C1.47836 23.932 1.52059 24.2702 1.60506 24.6508C1.6473 24.9045 1.64731 25.2005 1.68955 25.4542C1.73178 25.6656 1.77403 25.877 1.77403 26.0884C1.77403 26.4267 1.68955 26.7227 1.68955 27.0609C1.68955 27.6106 1.90073 28.1603 2.02745 28.71C2.06969 28.8791 2.11193 29.006 2.15417 29.1751C0.760298 26.469 0 23.3823 0 20.1265C0 16.1518 1.14044 12.4732 3.12566 9.38651C3.97043 8.07573 4.94192 6.84951 6.08236 5.79243C9.67265 2.28291 14.6146 0.126465 20.0211 0.126465C20.4435 0.126465 20.9081 0.126464 21.3305 0.168747C23.9493 0.126464 26.4836 0.845281 28.7645 1.94465Z" fill="url(#paint1_linear_2888_47769)"/>
<path fill-rule="evenodd" clip-rule="evenodd" d="M12.9253 17.04C12.6719 17.5052 11.9961 18.3085 12.2073 18.9851C12.2917 19.2811 12.5029 19.5348 12.6297 19.8307C12.9676 20.5496 13.6434 21.2684 14.4882 20.761C15.4596 20.169 15.0373 19.1119 14.6149 18.3508C14.4459 18.0548 14.2347 17.7166 13.9391 17.5474C13.7701 17.4629 13.5167 17.3783 13.3477 17.336C13.0098 17.2092 13.221 17.04 12.9253 17.04Z" fill="#FF9F84"/>
<path fill-rule="evenodd" clip-rule="evenodd" d="M15.0791 24.1016C15.1213 23.9748 15.1636 23.552 15.2903 23.3828C15.3748 23.256 15.586 23.1714 15.7549 23.0868C16.0928 22.96 16.473 23.0023 16.7264 23.256C17.2333 23.6788 17.191 24.3553 16.7264 24.8205C16.5152 25.0319 16.2196 25.2433 15.9239 25.2433C15.7549 25.2433 15.586 25.2856 15.4593 25.201C15.2903 25.1164 15.1636 24.9473 15.1213 24.7782C15.0369 24.4822 15.0791 24.2708 15.2481 24.0171L15.0791 24.1016Z" fill="#FF9F84"/>
<path fill-rule="evenodd" clip-rule="evenodd" d="M11.4041 23.8897C11.4041 24.1011 11.2774 24.6508 11.6153 24.7354C11.7843 24.7777 11.9532 24.5663 11.9532 24.4394C11.9955 24.3126 11.9532 24.1011 11.911 23.9743C11.8265 23.8052 11.6576 23.6783 11.5308 23.8474H11.4041V23.8897Z" fill="#FF9F84"/>
<path fill-rule="evenodd" clip-rule="evenodd" d="M2.87207 20C2.91431 20.3382 2.91431 20.8879 3.1255 21.1839C3.20998 21.3108 3.29447 21.4376 3.46342 21.4799C3.63238 21.5222 3.71685 21.4376 3.80133 21.3108C3.97028 21.0993 3.97028 20.9725 3.97028 20.7188C3.97028 20.5074 3.8858 20.2537 3.80133 20.0423C3.71685 19.9154 3.59013 19.7886 3.50565 19.704C3.42117 19.6194 3.3367 19.5771 3.16775 19.5771C2.95655 19.5771 2.99879 19.8308 2.95655 20H2.87207Z" fill="#FF9F84"/>
<path fill-rule="evenodd" clip-rule="evenodd" d="M32.5244 18.3508C32.5244 18.3086 32.5667 17.7166 32.6934 17.5897C32.7356 17.5475 32.8623 17.5052 32.9046 17.4629C33.0735 17.3783 33.2847 17.336 33.4959 17.4206C33.7493 17.5475 34.0028 17.928 33.9183 18.224C33.8338 18.6045 33.4114 18.8582 33.0735 18.8582C32.6934 18.8582 32.3977 18.3931 32.6089 18.0549L32.5244 18.3508Z" fill="#FF9F84"/>
<path fill-rule="evenodd" clip-rule="evenodd" d="M11.9541 23.0864C11.9541 23.0864 11.9963 22.7904 12.0386 22.7058C12.0808 22.6636 12.1231 22.6635 12.1653 22.6635C12.2498 22.6213 12.3765 22.6213 12.461 22.6635C12.5877 22.7481 12.7144 22.9172 12.6722 23.0864C12.6299 23.2555 12.4187 23.4246 12.2498 23.4246C12.0808 23.4246 11.9119 23.1709 11.9963 23.0018L11.9541 23.0864Z" fill="#FF9F84"/>
<path fill-rule="evenodd" clip-rule="evenodd" d="M21.0771 26.7651C21.0771 26.7651 21.1194 26.4691 21.1616 26.3845C21.2039 26.3423 21.2461 26.3423 21.2883 26.3423C21.3728 26.3 21.4995 26.3 21.584 26.3423C21.7107 26.4268 21.8374 26.596 21.7952 26.7651C21.753 26.9342 21.5418 27.1034 21.3728 27.1034C21.2039 27.1034 21.0349 26.8497 21.1194 26.6805L21.0771 26.7651Z" fill="#FF9F84"/>
<path fill-rule="evenodd" clip-rule="evenodd" d="M27.2441 10.6132C27.2441 10.6132 27.2864 10.3173 27.3286 10.2327C27.3709 10.1904 27.4131 10.1904 27.4553 10.1904C27.5398 10.1481 27.6665 10.1481 27.751 10.1904C27.8777 10.275 28.0044 10.4441 27.9622 10.6132C27.92 10.7824 27.7088 10.9515 27.5398 10.9515C27.3709 10.9515 27.2019 10.6978 27.2864 10.5287L27.2441 10.6132Z" fill="#FF9F84"/>
<path fill-rule="evenodd" clip-rule="evenodd" d="M14.6992 34.038C14.6992 34.038 14.7415 33.7421 14.7837 33.6575C14.8259 33.6152 14.8682 33.6152 14.9104 33.6152C14.9949 33.5729 15.1216 33.5729 15.2061 33.6152C15.3328 33.6998 15.4595 33.8689 15.4173 34.038C15.375 34.2072 15.1638 34.3763 14.9949 34.3763C14.8259 34.3763 14.657 34.1226 14.7415 33.9535L14.6992 34.038Z" fill="#FF9F84"/>
<path fill-rule="evenodd" clip-rule="evenodd" d="M31.2142 23.3403C30.9185 23.5517 30.7073 23.6363 30.5384 23.89C30.4116 24.1014 30.2427 24.2706 30.1582 24.5243C30.0737 24.6934 29.9893 24.9894 29.9893 25.1585C30.0315 25.6659 30.6651 25.2431 30.8763 25.0739C31.1297 24.8625 31.3831 24.5665 31.3831 24.2283C31.3831 24.1014 31.3831 23.9323 31.3409 23.8054C31.2987 23.7632 31.2987 23.6786 31.2564 23.6363C31.1719 23.5517 31.1297 23.5517 31.2142 23.3403Z" fill="#FF9F84"/>
<path fill-rule="evenodd" clip-rule="evenodd" d="M37.5923 25.6659C37.6345 25.4545 37.5078 26.2579 37.5501 26.3002C37.6345 26.3002 37.719 26.3002 37.8035 26.3002C37.888 26.3002 37.9302 26.2156 38.0147 26.1733C38.1836 26.0465 38.3104 25.9619 38.3104 25.7505C38.3104 25.5813 38.2681 25.4545 38.0992 25.3699C38.0147 25.3276 37.9724 25.3276 37.888 25.3276C37.719 25.3699 37.5923 25.5391 37.5078 25.7082L37.5923 25.6659Z" fill="#FF9F84"/>
<path fill-rule="evenodd" clip-rule="evenodd" d="M20.021 34.3763C20.19 34.3763 19.5986 34.3763 19.5986 34.3763C19.5986 34.4185 19.5986 34.5031 19.5986 34.5454C19.5986 34.63 19.6409 34.63 19.6831 34.6723C19.7676 34.7568 19.8521 34.8414 19.9788 34.8414C20.1055 34.8414 20.19 34.7991 20.19 34.6723C20.19 34.63 20.2322 34.5877 20.19 34.5454C20.1477 34.4186 20.021 34.334 19.9365 34.334L20.021 34.3763Z" fill="#FFEF84"/>
<path fill-rule="evenodd" clip-rule="evenodd" d="M19.7261 32.643C19.7683 32.4315 19.6416 33.2349 19.6838 33.2772C19.7683 33.2772 19.8528 33.2772 19.9373 33.2772C20.0218 33.2772 20.064 33.1926 20.1485 33.1504C20.3174 33.0235 20.4441 32.9389 20.4441 32.7275C20.4441 32.5584 20.4019 32.4315 20.2329 32.347C20.1485 32.3047 20.1062 32.3047 20.0217 32.3047C19.8528 32.347 19.7261 32.5161 19.6416 32.6852L19.7261 32.643Z" fill="#FF9F84"/>
<g opacity="0.25">
<path opacity="0.4" fill-rule="evenodd" clip-rule="evenodd" d="M5.37313 7.79066C4.78179 8.50948 4.27492 9.18601 3.89478 10.0317C3.55687 10.7505 3.43015 11.5962 3.30344 12.3995C3.21896 12.8647 3.17672 13.3298 3.09224 13.8372C3.05 14.26 2.92329 14.6828 2.96553 15.1057C3.05001 15.6976 3.09225 16.3319 3.38792 16.8393C3.68359 17.389 3.97926 17.8964 4.3594 18.4038C4.73955 18.8689 5.20418 19.1226 5.83776 19.1649C6.17566 19.2072 6.51357 19.1226 6.85148 19.1649C7.31611 19.2072 7.78074 19.2917 8.24536 19.3763C9.17461 19.5454 10.2306 19.5454 10.9064 18.7843C11.4555 18.1501 11.7089 17.389 12.0468 16.6279C12.427 15.8245 12.8916 15.1902 13.5674 14.6406C14.0743 14.26 14.5389 13.7949 15.0035 13.3721C15.2147 13.2029 15.3415 12.9915 15.5949 12.8224C15.8483 12.6955 15.975 12.5264 16.1862 12.315C16.3974 12.1458 16.6086 12.019 16.7776 11.8076C17.0732 11.4693 17.2844 11.0465 17.4111 10.6659C17.5801 10.2431 17.6223 9.82026 17.7068 9.35514C17.7491 8.93231 17.6223 8.50948 17.4956 8.08665C17.2422 7.32555 16.5664 6.81815 15.975 6.35303C15.2147 5.76107 14.2855 5.50737 13.3562 5.29595C12.5115 5.12682 11.4555 5.08453 10.5685 5.25367C9.63924 5.4228 8.70998 5.54965 7.86521 5.9302C7.23163 6.22618 6.85149 6.60673 6.34462 7.07185C6.09119 7.28327 5.79551 7.4524 5.54208 7.7061C5.24641 8.04437 4.95074 8.42491 5.37313 7.79066Z" fill="black"/>
<path opacity="0.4" fill-rule="evenodd" clip-rule="evenodd" d="M14.4121 4.0699C14.5388 3.85848 14.6655 3.52021 14.8345 3.35108C14.919 3.22423 15.0457 3.13966 15.1724 3.0551C15.5103 2.75911 15.8905 2.5477 16.3128 2.42085C16.5663 2.33628 16.8197 2.33628 17.0309 2.42085C17.2843 2.46313 17.7067 2.63226 17.8757 2.8014C18.2136 3.13966 18.0024 3.68935 17.8757 4.0699C17.7912 4.45045 17.6645 4.831 17.3266 5.04241C17.1154 5.21154 16.8197 5.3384 16.5663 5.38068C16.4396 5.42296 16.2706 5.42296 16.1017 5.42296C15.9749 5.42296 15.8482 5.46524 15.7638 5.46524C15.4681 5.46524 15.0457 5.25383 14.9612 5.00013C14.919 4.87328 14.8767 4.70415 14.7923 4.5773C14.75 4.45045 14.7078 4.36588 14.6655 4.23903C14.5811 4.02761 14.5388 3.8162 14.4121 4.0699Z" fill="black"/>
<path opacity="0.4" fill-rule="evenodd" clip-rule="evenodd" d="M17.7488 6.18408C17.6643 6.3955 17.6221 6.6492 17.6221 6.86062C17.7065 6.9029 17.7488 7.02975 17.8755 7.11432C17.96 7.1566 18.0867 7.1566 18.2134 7.1566C18.4246 7.1566 18.5936 7.1566 18.6358 6.9029C18.678 6.69148 18.4668 6.52235 18.2979 6.3955C18.1712 6.31093 17.96 6.09952 17.8333 6.26865L17.7488 6.18408Z" fill="black"/>
<path opacity="0.4" fill-rule="evenodd" clip-rule="evenodd" d="M20.4945 9.43984C20.2411 9.60897 19.9454 9.7781 19.692 9.98952C19.3963 10.2432 19.1429 10.5392 18.8894 10.8775C18.5938 11.258 18.2136 11.6809 18.2981 12.2305C18.3826 12.7379 18.5515 13.2031 18.9317 13.5413C19.3963 13.9642 20.1144 13.9642 20.6635 14.2179C21.1281 14.4293 21.4238 14.8944 21.635 15.3595C21.9729 16.036 22.7332 16.1629 23.409 16.2897C23.8314 16.3743 24.296 16.4166 24.7184 16.5012C25.3097 16.5857 25.9011 16.6703 26.4924 16.7548C27.5906 16.8394 28.6888 17.0931 29.787 17.0086C30.9697 16.924 32.0257 16.5012 32.9549 15.8246C33.7575 15.2749 34.5178 14.2601 34.7289 13.2876C34.9401 12.2728 34.6022 11.1312 34.1376 10.2009C33.504 9.017 32.7437 7.95992 31.899 6.90284C31.4343 6.31088 30.9275 5.80348 30.4206 5.25379C29.9982 4.74639 29.5758 4.32356 29.1112 3.90073C28.013 2.97049 26.6614 2.2094 25.2252 2.12483C24.6761 2.08255 24.127 2.16711 23.5779 2.37853C23.1133 2.54766 22.7754 2.80136 22.4375 3.18191C21.5927 4.06986 21.1281 5.21151 20.7479 6.35316C20.579 6.90284 20.41 7.49481 20.4945 8.04449C20.4945 8.21362 20.6212 8.34047 20.6212 8.50961C20.6212 8.67874 20.6212 8.80559 20.6212 8.97472C20.6212 9.05929 20.6212 9.14386 20.579 9.22842C20.5367 9.31299 20.41 9.43984 20.4945 9.43984Z" fill="black"/>
<path opacity="0.4" fill-rule="evenodd" clip-rule="evenodd" d="M15.9322 13.4141C15.3831 13.7524 14.7918 14.0061 14.3694 14.5135C14.2849 14.598 14.2004 14.7249 14.2427 14.8517C14.2849 14.9786 14.4539 15.0631 14.5806 15.1054C15.003 15.2746 15.5098 15.3591 15.9745 15.2746C16.3969 15.19 16.9037 14.9363 17.1149 14.5557C17.4106 14.0906 17.0727 13.3295 16.4813 13.3718C16.3969 13.3718 16.3124 13.4141 16.2279 13.4141C16.1434 13.4141 16.1012 13.4141 16.0167 13.4141C15.9322 13.4141 15.9322 13.4141 15.8478 13.4564C15.7633 13.5409 15.6788 13.6255 15.9322 13.4141Z" fill="black"/>
<path opacity="0.4" fill-rule="evenodd" clip-rule="evenodd" d="M4.35968 21.1524C4.14849 21.3638 3.89506 21.533 3.76834 21.7867C3.64163 22.0404 3.55715 22.2941 3.51491 22.59C3.47267 22.8437 3.38819 23.0974 3.47267 23.3511C3.51491 23.5626 3.64163 23.774 3.7261 24.0277C3.81058 24.3237 3.9373 24.5774 3.97954 24.8733C4.06401 25.2539 4.19073 25.5499 4.35968 25.8881C4.52864 26.2264 4.69759 26.5224 4.90878 26.8184C5.11997 27.1566 5.33117 27.3681 5.5846 27.664C6.51385 28.5943 7.61206 29.6091 8.96369 29.7782C9.63951 29.8628 10.3576 29.6936 10.8644 29.1862C11.4135 28.6366 11.7514 27.8755 11.8782 27.1144C11.9626 26.4801 11.9204 25.8036 11.5825 25.2539C11.2868 24.7888 10.9911 24.3237 10.6532 23.9431C10.3998 23.6894 10.1464 23.478 9.85071 23.2243C9.59727 22.9706 9.34384 22.7169 9.04817 22.5478C8.54131 22.1672 8.07669 21.7867 7.56982 21.4484C7.1052 21.1101 6.59833 20.7719 6.04923 20.645C5.66908 20.5604 5.2467 20.4759 4.86655 20.645C4.6976 20.7296 4.57087 20.7719 4.48639 20.8987C4.44415 20.9833 4.35968 21.1101 4.35968 21.1947C4.27521 21.1101 4.23297 21.1101 4.35968 21.1524Z" fill="black"/>
<path opacity="0.4" fill-rule="evenodd" clip-rule="evenodd" d="M7.90729 20.2643C7.90729 20.4334 7.94953 20.6026 7.94953 20.7294C7.94953 20.7717 7.99177 20.814 7.99177 20.8986C8.03401 20.9408 8.16073 20.9408 8.20297 20.9408C8.37192 20.9408 8.54088 20.8563 8.66759 20.7717C8.87879 20.6026 8.96326 20.2643 8.75206 20.0952C8.62535 19.9683 8.41416 19.8838 8.20297 19.926C8.11849 19.9683 7.65387 20.1797 7.82282 20.3489L7.90729 20.2643Z" fill="black"/>
<path opacity="0.4" fill-rule="evenodd" clip-rule="evenodd" d="M34.6865 15.8668C34.771 15.5285 34.771 15.2748 34.9822 15.0211C35.1934 14.8097 35.4046 14.556 35.5736 14.3446C35.9115 13.9218 36.1226 13.3721 36.2494 12.8647C36.3761 12.3996 36.2494 11.9345 36.4606 11.4694C36.5028 11.3425 36.5873 11.1734 36.6717 11.0888C36.7562 11.0465 37.0097 11.0888 37.0941 11.1311C37.1786 11.1734 37.3053 11.3002 37.3898 11.3848C37.5165 11.5116 37.6432 11.6385 37.8122 11.8076C38.488 12.5264 38.8681 13.6258 38.8259 14.5983C38.8259 15.1903 38.7414 15.6977 38.5725 16.2474C38.488 16.4588 38.4035 16.6702 38.2768 16.8816C38.1501 17.1353 37.9389 17.2622 37.7277 17.4313C37.0519 17.8541 36.0382 17.7273 35.4468 17.1776C35.2356 16.9662 35.1512 16.7125 34.9822 16.4588C34.8555 16.2896 34.771 16.1205 34.7288 15.8668C34.7288 15.8245 34.7288 15.8245 34.6865 15.8668Z" fill="black"/>
<path opacity="0.4" fill-rule="evenodd" clip-rule="evenodd" d="M34.6865 8.34037C34.8132 8.72092 34.8555 9.14375 35.2779 9.35517C35.3624 9.39745 35.4891 9.43974 35.5736 9.43974C35.658 9.43974 35.7425 9.39745 35.827 9.31289C36.2494 9.0169 35.9959 8.29809 35.7425 7.95982C35.5735 7.79069 35.3624 7.70612 35.1512 7.62156C35.0667 7.57927 35.0667 7.57927 34.9822 7.62156C34.8977 7.66384 34.8555 7.66384 34.8132 7.74841C34.771 7.79069 34.771 7.91754 34.771 7.95982C34.771 8.04439 34.7288 8.08667 34.7288 8.12896C34.6865 8.25581 34.7288 8.38265 34.771 8.5095L34.6865 8.34037Z" fill="black"/>
<path opacity="0.4" fill-rule="evenodd" clip-rule="evenodd" d="M31.5614 24.6195C31.477 24.8732 31.3925 25.1692 31.2658 25.4229C31.139 25.7189 31.0123 25.9726 30.8856 26.2686C30.5899 26.9874 30.421 27.7908 30.2098 28.5519C29.9986 29.3553 29.8719 30.2009 29.7874 31.0043C29.7452 31.4271 29.6607 31.85 29.7029 32.2728C29.7029 32.5688 29.7029 32.9493 29.8296 33.2453C29.9141 33.4145 30.0831 33.7104 30.252 33.795C30.5054 33.9219 30.8011 33.7104 31.0123 33.5836C31.8148 33.1608 32.5329 32.5688 33.1665 31.9345C33.8001 31.3003 34.4336 30.7083 34.9827 29.9895C35.2362 29.6512 35.4896 29.3553 35.7008 28.9747C35.8698 28.6787 35.9965 28.3405 36.1232 28.0445C36.2499 27.7485 36.3766 27.4525 36.5033 27.1565C36.6723 26.8183 36.799 26.4377 36.9257 26.0572C37.1369 25.3383 37.3481 24.6195 37.0947 23.9007C36.8835 23.2665 36.3766 22.8014 35.7008 22.6745C35.3629 22.5899 34.9405 22.5054 34.6026 22.5054C34.2647 22.5477 33.8845 22.6322 33.5466 22.7591C33.251 22.8859 32.9553 23.0128 32.7019 23.1819C32.5751 23.2665 32.4484 23.3933 32.3217 23.5202C32.1105 23.7316 31.9416 23.943 31.7726 24.1967C31.6881 24.3236 31.6459 24.4081 31.5192 24.4927C31.4769 24.7041 31.3925 24.9155 31.5614 24.6195Z" fill="black"/>
<path opacity="0.4" fill-rule="evenodd" clip-rule="evenodd" d="M28.3926 33.8799C27.9702 34.049 27.6323 34.1759 27.2522 34.4719C26.8298 34.8101 26.4074 35.1061 26.1117 35.5712C25.985 35.7403 25.7738 35.994 25.9428 36.2055C26.0695 36.3746 26.3229 36.3746 26.5341 36.3746C26.8298 36.3746 27.1255 36.3323 27.3789 36.2055C27.6323 36.1209 27.8435 35.9518 28.0969 35.8672C28.3504 35.7826 28.6883 35.6135 28.8572 35.4021C28.9417 35.2752 29.0262 35.1061 29.1107 34.9793C29.1951 34.8524 29.1951 34.8101 29.1951 34.641C29.1951 34.4719 29.0684 34.2604 28.9839 34.1759C28.8995 34.0913 28.6883 33.9645 28.5616 34.0067C28.4771 34.0067 28.3926 34.049 28.3081 34.0913C28.1392 34.0913 28.0125 34.3027 28.3926 33.8799Z" fill="black"/>
<path opacity="0.4" fill-rule="evenodd" clip-rule="evenodd" d="M27.8858 31.4272C27.8013 31.089 27.7168 30.8776 27.7168 30.5393C27.759 30.2433 27.759 29.9896 27.8858 29.7359C27.9702 29.6091 28.1392 29.2708 28.2659 29.2285C28.3081 29.2285 28.4348 29.2285 28.4771 29.2285C28.6883 29.2708 28.815 29.5245 28.8572 29.7359C28.9417 30.0319 28.8572 30.3702 28.8995 30.7084C28.8995 30.9621 28.8572 31.1735 28.7728 31.385C28.6883 31.5541 28.5616 31.5541 28.3926 31.5541C28.2237 31.5541 28.1392 31.5118 28.0125 31.385C27.9702 31.3427 27.8857 31.3427 27.8435 31.3004C27.759 31.2158 27.759 31.1313 27.8858 31.4272Z" fill="black"/>
<path opacity="0.4" fill-rule="evenodd" clip-rule="evenodd" d="M27.5059 18.7422C27.4636 18.9536 27.4636 19.2073 27.4636 19.4187C27.5481 19.4187 27.6326 19.5879 27.717 19.5879C27.886 19.6301 28.0127 19.5456 28.1394 19.461C28.3929 19.2496 28.4774 18.869 28.3929 18.5731C28.3506 18.2771 28.0127 18.2348 27.7593 18.2771C27.6748 18.2771 27.5481 18.3194 27.5059 18.3616C27.3369 18.4885 27.3369 18.6576 27.3369 18.8268L27.5059 18.7422Z" fill="black"/>
<path opacity="0.4" fill-rule="evenodd" clip-rule="evenodd" d="M8.41432 32.5263C8.54103 32.2726 8.66775 32.0189 8.8367 31.8075C9.0479 31.5538 9.25909 31.3424 9.47028 31.131C9.76595 30.8773 10.0616 30.6236 10.3573 30.4121C10.653 30.2007 10.9064 29.9893 11.2021 29.7779C11.7089 29.4396 12.258 29.2282 12.8494 29.0168C13.314 28.8477 13.8209 28.8054 14.3277 28.8899C14.8346 28.9745 15.3414 29.2705 15.6794 29.6088C16.0173 29.947 16.3974 30.3699 16.6086 30.7927C17.0732 31.6806 16.862 32.6954 16.5664 33.5834C16.4397 34.0062 16.144 34.4713 15.8061 34.7673C15.5949 34.9365 15.3837 35.021 15.1303 35.0633C14.8768 35.1056 14.5389 35.2324 14.2855 35.2324C13.0606 35.4016 11.8356 35.317 10.6952 34.8942C10.2306 34.725 9.80819 34.5136 9.34356 34.3022C9.00565 34.1331 8.70998 33.9217 8.49879 33.6257C8.32983 33.4143 8.20312 33.1183 8.20312 32.8223C8.20312 32.6954 8.24536 32.5686 8.28759 32.4417C8.37207 32.5263 8.41432 32.484 8.41432 32.5263Z" fill="black"/>
<path opacity="0.4" fill-rule="evenodd" clip-rule="evenodd" d="M17.4531 33.076C17.3687 33.2874 17.3264 33.5411 17.2842 33.7525C17.3687 33.7948 17.3687 33.9217 17.4109 34.0062C17.4954 34.0908 17.5376 34.1331 17.6643 34.1331C17.791 34.1331 17.9178 34.1331 18.0022 34.1331C18.1712 34.0908 18.2134 34.0485 18.2979 33.9217C18.3824 33.7948 18.4246 33.7103 18.4246 33.5411C18.4246 33.4143 18.3824 33.2874 18.2979 33.2029C18.2557 33.1183 18.1712 33.0337 18.0867 32.9914C17.9178 32.8646 17.791 32.9492 17.6643 33.0337L17.4531 33.076Z" fill="black"/>
<path opacity="0.4" fill-rule="evenodd" clip-rule="evenodd" d="M37.2207 22.6324C37.0517 22.5055 36.8828 22.3364 36.756 22.125C36.756 22.0404 36.756 21.9558 36.756 21.8713C36.7138 21.6598 36.6715 21.4907 36.7138 21.2793C36.7983 20.7719 37.2207 20.4336 37.7275 20.3913C38.0654 20.3491 38.53 20.6028 38.699 20.8987C38.868 21.1947 38.9525 21.533 38.9525 21.8713C38.9525 22.125 38.9102 22.4632 38.7413 22.6746C38.6145 22.8438 38.4033 22.8438 38.2344 22.8438C38.0232 22.8438 37.812 22.8015 37.643 22.7592C37.4741 22.7169 37.3051 22.6324 37.2207 22.6324Z" fill="black"/>
</g>
<defs>
<radialGradient id="paint0_radial_2888_47769" cx="0" cy="0" r="1" gradientUnits="userSpaceOnUse" gradientTransform="translate(7.58957 10.592) scale(32.1442 32.1782)">
<stop offset="0.00558659" stop-color="#DE6863"/>
<stop offset="0.2018" stop-color="#DB6563"/>
<stop offset="0.3542" stop-color="#D15D62"/>
<stop offset="0.4919" stop-color="#C14F60"/>
<stop offset="0.6209" stop-color="#A93B5E"/>
<stop offset="0.7437" stop-color="#8B225B"/>
<stop offset="0.8606" stop-color="#670357"/>
<stop offset="0.8715" stop-color="#630057"/>
</radialGradient>
<linearGradient id="paint1_linear_2888_47769" x1="-0.0284266" y1="14.4655" x2="28.7571" y2="14.4655" gradientUnits="userSpaceOnUse">
<stop offset="0.0111732" stop-color="#FF7D85"/>
<stop offset="0.2983" stop-color="#FC7B84"/>
<stop offset="0.5089" stop-color="#F3757F"/>
<stop offset="0.695" stop-color="#E36B77"/>
<stop offset="0.8659" stop-color="#CC5C6C"/>
<stop offset="1" stop-color="#B54D61"/>
</linearGradient>
</defs>
</svg>
