<svg width="116" height="72" viewBox="0 0 116 72" fill="none" xmlns="http://www.w3.org/2000/svg">
<g filter="url(#filter0_d_2754_46379)">
<path d="M16.8092 27.7754C17.909 22.2767 22.2767 17.909 27.7754 16.8092C33.1703 15.7303 38.8298 15.7303 44.2246 16.8092C49.7233 17.909 54.091 22.2767 55.1908 27.7754C56.2697 33.1703 56.2697 38.8298 55.1908 44.2246C54.091 49.7233 49.7233 54.091 44.2246 55.1908C38.8298 56.2697 33.1703 56.2697 27.7754 55.1908C22.2767 54.091 17.909 49.7233 16.8092 44.2246C15.7303 38.8298 15.7303 33.1703 16.8092 27.7754Z" fill="#544D34"/>
</g>
<path d="M36 48C35.2241 48 34.5651 47.6386 33.9805 47.3304C33.651 47.1497 33.3428 46.9903 33.0771 46.9159C32.7795 46.8415 32.4181 46.8308 32.0354 46.8202C31.3871 46.7989 30.643 46.7777 29.9947 46.4057C29.3357 46.023 28.9531 45.3959 28.6023 44.8326C28.4004 44.5137 28.2197 44.2055 28.0071 43.9929C27.7945 43.7803 27.4969 43.5996 27.1674 43.3977C26.6041 43.0576 25.977 42.6643 25.5943 42.0053C25.2223 41.357 25.2011 40.6129 25.1798 39.9646C25.1692 39.5819 25.1586 39.2205 25.0842 38.9229C25.0098 38.6466 24.8397 38.349 24.6696 38.0195C24.3508 37.4349 24 36.7865 24 36C24 35.2241 24.3614 34.5651 24.6696 33.9805C24.8503 33.651 25.0098 33.3428 25.0842 33.0771C25.1586 32.7901 25.1692 32.4181 25.1798 32.0354C25.2011 31.3871 25.2223 30.643 25.5943 29.9947C25.977 29.3357 26.6041 28.9531 27.1674 28.6023C27.4863 28.4004 27.7945 28.2197 28.0071 28.0071C28.2197 27.8051 28.4004 27.4969 28.6023 27.1674C28.9424 26.6041 29.3357 25.977 29.9947 25.5943C30.643 25.2223 31.3871 25.2011 32.0354 25.1798C32.4181 25.1692 32.7795 25.1585 33.0771 25.0841C33.3534 25.0097 33.651 24.8397 33.9805 24.6696C34.5651 24.3508 35.2135 24 36 24C36.7759 24 37.4349 24.3614 38.0195 24.6696C38.349 24.8503 38.6572 25.0097 38.9229 25.0841C39.2205 25.1585 39.5819 25.1692 39.9646 25.1798C40.6129 25.2011 41.357 25.2223 42.0053 25.5943C42.6643 25.977 43.0469 26.6041 43.3977 27.1674C43.5996 27.4863 43.7803 27.7945 43.9929 28.0071C44.2055 28.2197 44.5031 28.4004 44.8326 28.6023C45.3959 28.9424 46.023 29.3357 46.4057 29.9947C46.7777 30.643 46.7989 31.3871 46.8202 32.0354C46.8308 32.4181 46.8415 32.7795 46.9159 33.0771C46.9903 33.3534 47.1603 33.651 47.3304 33.9805C47.6492 34.5651 48 35.2135 48 36C48 36.7759 47.6386 37.4349 47.3304 38.0195C47.1497 38.349 46.9903 38.6572 46.9159 38.9229C46.8415 39.2205 46.8308 39.5819 46.8202 39.9646C46.7989 40.6129 46.7777 41.357 46.4057 42.0053C46.023 42.6643 45.3959 43.0469 44.8326 43.3977C44.5137 43.5996 44.2055 43.7803 43.9929 43.9929C43.7803 44.2055 43.5996 44.5031 43.3977 44.8326C43.0576 45.3959 42.6643 46.023 42.0053 46.4057C41.357 46.7777 40.6129 46.7989 39.9646 46.8202C39.5819 46.8308 39.2205 46.8415 38.9229 46.9159C38.6466 46.9903 38.349 47.1603 38.0195 47.3304C37.4349 47.6492 36.7759 48 36 48ZM36 25.6156C35.628 25.6156 35.2028 25.8494 34.7458 26.0939C34.3525 26.3065 33.9486 26.5297 33.4916 26.6466C33.0133 26.7741 32.5456 26.7848 32.0886 26.7954C31.5784 26.806 31.1001 26.8273 30.8025 26.9973C30.4942 27.178 30.2392 27.5819 29.9734 28.0177C29.7396 28.411 29.4951 28.8043 29.1444 29.1444C28.8043 29.4845 28.4004 29.729 28.0177 29.9734C27.5819 30.2392 27.1674 30.4942 26.9973 30.8025C26.8273 31.1001 26.806 31.5784 26.7954 32.0886C26.7848 32.5456 26.7741 33.0239 26.6466 33.4916C26.5297 33.9486 26.3065 34.3525 26.0939 34.7458C25.8494 35.2028 25.6156 35.628 25.6156 36C25.6156 36.372 25.8494 36.7972 26.0939 37.2542C26.3065 37.6475 26.5297 38.0514 26.6466 38.5084C26.7741 38.9867 26.7848 39.4544 26.7954 39.9114C26.806 40.4216 26.8273 40.8893 26.9973 41.1975C27.178 41.5058 27.5819 41.7609 28.0177 42.0266C28.411 42.2604 28.8043 42.5049 29.1444 42.8556C29.4845 43.1957 29.729 43.5996 29.9734 43.9823C30.2392 44.4181 30.4942 44.8326 30.8025 45.0027C31.1001 45.1727 31.5784 45.194 32.0886 45.2046C32.5456 45.2152 33.0239 45.2259 33.4916 45.3534C33.9486 45.4703 34.3525 45.6935 34.7458 45.9061C35.2028 46.1506 35.628 46.3844 36 46.3844C36.372 46.3844 36.7972 46.1506 37.2542 45.9061C37.6475 45.6935 38.0514 45.4703 38.5084 45.3534C38.9867 45.2259 39.4544 45.2152 39.9114 45.2046C40.4216 45.194 40.8893 45.1727 41.1975 45.0027C41.5058 44.822 41.7609 44.4181 42.0266 43.9823C42.2604 43.589 42.5049 43.1957 42.8556 42.8556C43.1957 42.5155 43.5996 42.271 43.9823 42.0266C44.4181 41.7609 44.8326 41.5058 45.0027 41.1975C45.1727 40.8999 45.194 40.4216 45.2046 39.9114C45.2152 39.4544 45.2259 38.9761 45.3534 38.5084C45.4703 38.0514 45.6935 37.6475 45.9061 37.2542C46.1506 36.7972 46.3844 36.372 46.3844 36C46.3844 35.628 46.1506 35.2028 45.9061 34.7458C45.6935 34.3525 45.4703 33.9486 45.3534 33.4916C45.2259 33.0133 45.2152 32.5456 45.2046 32.0886C45.194 31.5784 45.1727 31.1107 45.0027 30.8025C44.822 30.4942 44.4181 30.2392 43.9823 29.9734C43.589 29.7396 43.1957 29.4951 42.8556 29.1444C42.5155 28.8043 42.271 28.4004 42.0266 28.0177C41.7609 27.5819 41.5058 27.1674 41.1975 26.9973C40.8999 26.8273 40.4216 26.806 39.9114 26.7954C39.4544 26.7848 38.9761 26.7741 38.5084 26.6466C38.0514 26.5297 37.6475 26.3065 37.2542 26.0939C36.7972 25.8494 36.372 25.6156 36 25.6156Z" fill="white" fill-opacity="0.8"/>
<path d="M36.001 44.897C31.1011 44.897 27.1152 40.9111 27.1152 36.0112C27.1152 31.1113 31.1011 27.1255 36.001 27.1255C40.9009 27.1255 44.8867 31.1113 44.8867 36.0112C44.8867 40.9111 40.9009 44.897 36.001 44.897ZM36.001 28.0183C31.59 28.0183 27.9974 31.6109 27.9974 36.0219C27.9974 40.4328 31.59 44.0254 36.001 44.0254C40.412 44.0254 44.0045 40.4328 44.0045 36.0219C43.9939 31.6002 40.412 28.0183 36.001 28.0183Z" fill="white" fill-opacity="0.8"/>
<path d="M36 35.4686C35.8831 35.4686 35.7661 35.4261 35.6917 35.3411L32.7369 32.3862C32.5669 32.2162 32.5669 31.9292 32.7369 31.7591L35.6917 28.8043C35.8618 28.6342 36.1488 28.6342 36.3188 28.8043L39.2737 31.7591C39.4437 31.9292 39.4437 32.2162 39.2737 32.3862L36.3188 35.3411C36.2232 35.4261 36.1169 35.4686 36 35.4686ZM33.6723 32.078L36 34.4057L38.3277 32.078L36 29.7503L33.6723 32.078Z" fill="white" fill-opacity="0.8"/>
<path d="M36.4359 32.0781H35.5537V35.033H36.4359V32.0781Z" fill="white" fill-opacity="0.8"/>
<path d="M36 43.3446C35.8831 43.3446 35.7768 43.3021 35.6917 43.217L32.7369 40.2622C32.5669 40.0921 32.5669 39.8052 32.7369 39.6351L35.6917 36.6803C35.8618 36.5102 36.1488 36.5102 36.3188 36.6803L39.2737 39.6351C39.4437 39.8052 39.4437 40.0921 39.2737 40.2622L36.3188 43.217C36.2232 43.3021 36.1063 43.3446 36 43.3446ZM33.6723 39.954L36 42.2817L38.3277 39.954L36 37.6262L33.6723 39.954Z" fill="white" fill-opacity="0.8"/>
<path d="M36.4359 36.9985H35.5537V39.9534H36.4359V36.9985Z" fill="white" fill-opacity="0.8"/>
<path d="M39.9326 39.4116C39.8157 39.4116 39.7094 39.3691 39.6244 39.284L36.6695 36.3292C36.5845 36.2442 36.542 36.1379 36.542 36.021C36.542 35.9041 36.5845 35.7871 36.6695 35.7127L39.6244 32.7579C39.7944 32.5879 40.0814 32.5879 40.2515 32.7579L43.2063 35.7127C43.3764 35.8828 43.3764 36.1698 43.2063 36.3398L40.2515 39.2947C40.1558 39.3691 40.0495 39.4116 39.9326 39.4116ZM37.6049 36.0103L39.9326 38.3381L42.2603 36.0103L39.9326 33.6826L37.6049 36.0103Z" fill="white" fill-opacity="0.8"/>
<path d="M39.9324 35.5747H36.9775V36.4569H39.9324V35.5747Z" fill="white" fill-opacity="0.8"/>
<path d="M32.0566 39.4115C31.9397 39.4115 31.8334 39.369 31.7484 39.2839L28.7936 36.3291C28.6235 36.159 28.6235 35.8721 28.7936 35.702L31.7484 32.7472C31.9184 32.5771 32.2054 32.5771 32.3755 32.7472L35.3303 35.702C35.5004 35.8721 35.5004 36.159 35.3303 36.3291L32.3755 39.2839C32.2905 39.369 32.1735 39.4115 32.0566 39.4115ZM29.7395 36.0102L32.0672 38.338L34.395 36.0102L32.0672 33.6825L29.7395 36.0102Z" fill="white" fill-opacity="0.8"/>
<path d="M35.0115 35.5747H32.0566V36.4569H35.0115V35.5747Z" fill="white" fill-opacity="0.8"/>
<defs>
<filter id="filter0_d_2754_46379" x="-44" y="-40" width="160" height="160" filterUnits="userSpaceOnUse" color-interpolation-filters="sRGB">
<feFlood flood-opacity="0" result="BackgroundImageFix"/>
<feColorMatrix in="SourceAlpha" type="matrix" values="0 0 0 0 0 0 0 0 0 0 0 0 0 0 0 0 0 0 127 0" result="hardAlpha"/>
<feOffset dy="4"/>
<feGaussianBlur stdDeviation="30"/>
<feComposite in2="hardAlpha" operator="out"/>
<feColorMatrix type="matrix" values="0 0 0 0 0 0 0 0 0 0 0 0 0 0 0 0 0 0 0.1 0"/>
<feBlend mode="normal" in2="BackgroundImageFix" result="effect1_dropShadow_2754_46379"/>
<feBlend mode="normal" in="SourceGraphic" in2="effect1_dropShadow_2754_46379" result="shape"/>
</filter>
</defs>
</svg>
