<svg width="116" height="72" viewBox="0 0 116 72" fill="none" xmlns="http://www.w3.org/2000/svg">
<g filter="url(#filter0_d_2754_46280)">
<path d="M16.8092 27.7754C17.909 22.2767 22.2767 17.909 27.7754 16.8092C33.1703 15.7303 38.8298 15.7303 44.2246 16.8092C49.7233 17.909 54.091 22.2767 55.1908 27.7754C56.2697 33.1703 56.2697 38.8298 55.1908 44.2246C54.091 49.7233 49.7233 54.091 44.2246 55.1908C38.8298 56.2697 33.1703 56.2697 27.7754 55.1908C22.2767 54.091 17.909 49.7233 16.8092 44.2246C15.7303 38.8298 15.7303 33.1703 16.8092 27.7754Z" fill="#36463B"/>
</g>
<path d="M36.1103 35.1876C35.9454 35.1876 35.7805 35.1268 35.6503 34.9967L31.597 30.9434C31.3453 30.6916 31.3453 30.275 31.597 30.0233L35.6503 25.97C35.902 25.7183 36.3186 25.7183 36.5703 25.97L40.6236 30.0233C40.8753 30.275 40.8753 30.6916 40.6236 30.9434L36.5703 34.9967C36.4401 35.1182 36.2752 35.1876 36.1103 35.1876ZM32.977 30.4747L36.1103 33.6079L39.2436 30.4747L36.1103 27.3414L32.977 30.4747Z" fill="white" fill-opacity="0.8"/>
<path d="M36.4655 30.4746H35.7451V34.5279H36.4655V30.4746Z" fill="white" fill-opacity="0.8"/>
<path d="M36.1103 45.9942C35.9454 45.9942 35.7805 45.9335 35.6503 45.8033L31.597 41.75C31.3453 41.4983 31.3453 41.0817 31.597 40.83L35.6503 36.7767C35.902 36.525 36.3186 36.525 36.5703 36.7767L40.6236 40.83C40.8753 41.0817 40.8753 41.4983 40.6236 41.75L36.5703 45.8033C36.4401 45.9335 36.2752 45.9942 36.1103 45.9942ZM32.977 41.29L36.1103 44.4233L39.2436 41.29L36.1103 38.1567L32.977 41.29Z" fill="white" fill-opacity="0.8"/>
<path d="M36.4655 37.2363H35.7451V41.2896H36.4655V37.2363Z" fill="white" fill-opacity="0.8"/>
<path d="M41.5165 40.586C41.3516 40.586 41.1867 40.5253 41.0565 40.3951L37.0032 36.3418C36.7515 36.0901 36.7515 35.6735 37.0032 35.4218L41.0565 31.3685C41.3082 31.1168 41.7248 31.1168 41.9766 31.3685L46.0299 35.4218C46.2816 35.6735 46.2816 36.0901 46.0299 36.3418L41.9766 40.3951C41.8464 40.5253 41.6815 40.586 41.5165 40.586ZM38.3833 35.8818L41.5165 39.0151L44.6498 35.8818L41.5165 32.7485L38.3833 35.8818Z" fill="white" fill-opacity="0.8"/>
<path d="M41.5084 35.5254H37.4551V36.2458H41.5084V35.5254Z" fill="white" fill-opacity="0.8"/>
<path d="M30.7021 40.586C30.5372 40.586 30.3723 40.5253 30.2421 40.3951L26.1888 36.3418C25.9371 36.0901 25.9371 35.6735 26.1888 35.4218L30.2421 31.3685C30.4938 31.1168 30.9104 31.1168 31.1621 31.3685L35.2154 35.4218C35.4671 35.6735 35.4671 36.0901 35.2154 36.3418L31.1621 40.3951C31.0319 40.5253 30.867 40.586 30.7021 40.586ZM27.5688 35.8818L30.7021 39.0151L33.8354 35.8818L30.7021 32.7485L27.5688 35.8818Z" fill="white" fill-opacity="0.8"/>
<path d="M34.7564 35.5254H30.7031V36.2458H34.7564V35.5254Z" fill="white" fill-opacity="0.8"/>
<path d="M28.9932 30.7697C28.4551 30.7697 27.9517 30.5614 27.5785 30.1795C27.1966 29.7976 26.9883 29.2942 26.9883 28.7647C26.9883 28.2266 27.1966 27.7232 27.5785 27.35C27.9604 26.9681 28.4638 26.7598 28.9932 26.7598C29.5314 26.7598 30.0348 26.9681 30.408 27.35C30.7899 27.7319 30.9982 28.2353 30.9982 28.7647C30.9982 29.3028 30.7899 29.8063 30.408 30.1795C30.0348 30.5614 29.5314 30.7697 28.9932 30.7697ZM28.9932 28.0704C28.8023 28.0704 28.6287 28.1398 28.4985 28.2787C28.3683 28.4089 28.2902 28.5825 28.2902 28.7734C28.2902 28.9643 28.3596 29.1379 28.4985 29.2681C28.6287 29.3983 28.8023 29.4764 28.9932 29.4764C29.1842 29.4764 29.3578 29.407 29.488 29.2681C29.6182 29.1379 29.6963 28.9643 29.6963 28.7734C29.6963 28.5825 29.6268 28.4089 29.488 28.2787C29.3578 28.1398 29.1755 28.0704 28.9932 28.0704Z" fill="white" fill-opacity="0.8"/>
<path d="M43.2272 45.0037C42.7151 45.0037 42.203 44.8128 41.8124 44.4222C41.0313 43.641 41.0313 42.3738 41.8124 41.5927C42.5936 40.8115 43.8608 40.8115 44.6419 41.5927C45.4231 42.3738 45.4231 43.641 44.6419 44.4222C44.2513 44.8041 43.7393 45.0037 43.2272 45.0037ZM43.2272 42.2957C43.0449 42.2957 42.8713 42.3652 42.7324 42.504C42.6023 42.6342 42.5241 42.8078 42.5241 42.9988C42.5241 43.1897 42.5936 43.3633 42.7324 43.4935C43.0015 43.7626 43.4528 43.7626 43.7219 43.4935C43.8521 43.3633 43.9302 43.1897 43.9302 42.9988C43.9302 42.8078 43.8608 42.6342 43.7219 42.504C43.583 42.3652 43.4008 42.2957 43.2272 42.2957Z" fill="white" fill-opacity="0.8"/>
<path d="M43.2266 30.7703C42.7145 30.7703 42.2025 30.5794 41.8119 30.1888C41.43 29.8069 41.2217 29.3035 41.2217 28.774C41.2217 28.2359 41.43 27.7325 41.8119 27.3593C42.593 26.5781 43.8602 26.5781 44.6414 27.3593C45.0233 27.7412 45.2316 28.2446 45.2316 28.774C45.2316 29.3122 45.0233 29.8156 44.6414 30.1888C44.2508 30.5794 43.7387 30.7703 43.2266 30.7703ZM43.2266 28.071C43.0357 28.071 42.8621 28.1404 42.7319 28.2793C42.6017 28.4095 42.5236 28.5831 42.5236 28.774C42.5236 28.965 42.593 29.1386 42.7319 29.2688C42.8621 29.399 43.0357 29.4771 43.2266 29.4771C43.4176 29.4771 43.5912 29.4076 43.7214 29.2688C43.8516 29.1386 43.9297 28.965 43.9297 28.774C43.9297 28.5831 43.8602 28.4095 43.7214 28.2793C43.5825 28.1404 43.4089 28.071 43.2266 28.071Z" fill="white" fill-opacity="0.8"/>
<path d="M28.9928 45.0047C28.4807 45.0047 27.9686 44.8137 27.5781 44.4232C26.7969 43.642 26.7969 42.3748 27.5781 41.5937C28.3592 40.8125 29.6264 40.8125 30.4076 41.5937C31.1887 42.3748 31.1887 43.642 30.4076 44.4232C30.017 44.8051 29.5049 45.0047 28.9928 45.0047ZM28.9928 42.2967C28.8105 42.2967 28.6369 42.3661 28.4981 42.505C28.3679 42.6352 28.2898 42.8088 28.2898 42.9997C28.2898 43.1907 28.3592 43.3643 28.4981 43.4945C28.7671 43.7635 29.2185 43.7635 29.4875 43.4945C29.6177 43.3643 29.6958 43.1907 29.6958 42.9997C29.6958 42.8088 29.6264 42.6352 29.4875 42.505C29.3487 42.3661 29.1751 42.2967 28.9928 42.2967Z" fill="white" fill-opacity="0.8"/>
<defs>
<filter id="filter0_d_2754_46280" x="-44" y="-40" width="160" height="160" filterUnits="userSpaceOnUse" color-interpolation-filters="sRGB">
<feFlood flood-opacity="0" result="BackgroundImageFix"/>
<feColorMatrix in="SourceAlpha" type="matrix" values="0 0 0 0 0 0 0 0 0 0 0 0 0 0 0 0 0 0 127 0" result="hardAlpha"/>
<feOffset dy="4"/>
<feGaussianBlur stdDeviation="30"/>
<feComposite in2="hardAlpha" operator="out"/>
<feColorMatrix type="matrix" values="0 0 0 0 0 0 0 0 0 0 0 0 0 0 0 0 0 0 0.1 0"/>
<feBlend mode="normal" in2="BackgroundImageFix" result="effect1_dropShadow_2754_46280"/>
<feBlend mode="normal" in="SourceGraphic" in2="effect1_dropShadow_2754_46280" result="shape"/>
</filter>
</defs>
</svg>
