<svg width="116" height="72" viewBox="0 0 116 72" fill="none" xmlns="http://www.w3.org/2000/svg">
<g filter="url(#filter0_d_2754_46357)">
<path d="M16.8092 27.7754C17.909 22.2767 22.2767 17.909 27.7754 16.8092C33.1703 15.7303 38.8298 15.7303 44.2246 16.8092C49.7233 17.909 54.091 22.2767 55.1908 27.7754C56.2697 33.1703 56.2697 38.8298 55.1908 44.2246C54.091 49.7233 49.7233 54.091 44.2246 55.1908C38.8298 56.2697 33.1703 56.2697 27.7754 55.1908C22.2767 54.091 17.909 49.7233 16.8092 44.2246C15.7303 38.8298 15.7303 33.1703 16.8092 27.7754Z" fill="#8D5B32"/>
</g>
<path d="M36 48C29.381 48 24 42.619 24 36C24 29.381 29.381 24 36 24C42.619 24 48 29.381 48 36C48 42.619 42.619 48 36 48ZM36 25.7857C30.369 25.7857 25.7857 30.369 25.7857 36C25.7857 41.6309 30.369 46.2143 36 46.2143C41.631 46.2143 46.2143 41.6309 46.2143 36C46.2143 30.3571 41.631 25.7857 36 25.7857Z" fill="white" fill-opacity="0.8"/>
<path d="M36.0002 44.9536C31.0598 44.9536 27.0479 40.9298 27.0479 36.0012C27.0479 31.0607 31.0717 27.0488 36.0002 27.0488C40.9407 27.0488 44.9526 31.0726 44.9526 36.0012C44.9526 40.9417 40.9407 44.9536 36.0002 44.9536ZM36.0002 28.0369C31.6074 28.0369 28.0359 31.6084 28.0359 36.0012C28.0359 40.3941 31.6074 43.9655 36.0002 43.9655C40.3931 43.9655 43.9645 40.3941 43.9645 36.0012C43.9645 31.6084 40.3931 28.0369 36.0002 28.0369Z" fill="white" fill-opacity="0.8"/>
<path d="M38.6543 40.0244H33.3329C32.5829 40.0244 31.9639 39.4172 31.9639 38.6553V33.3339C31.9639 32.5839 32.571 31.9648 33.3329 31.9648H38.6543C39.4043 31.9648 40.0234 32.572 40.0234 33.3339V38.6553C40.0234 39.4053 39.4043 40.0244 38.6543 40.0244ZM33.7615 38.2267H38.2258V33.7625H33.7615V38.2267Z" fill="white" fill-opacity="0.8"/>
<defs>
<filter id="filter0_d_2754_46357" x="-44" y="-40" width="160" height="160" filterUnits="userSpaceOnUse" color-interpolation-filters="sRGB">
<feFlood flood-opacity="0" result="BackgroundImageFix"/>
<feColorMatrix in="SourceAlpha" type="matrix" values="0 0 0 0 0 0 0 0 0 0 0 0 0 0 0 0 0 0 127 0" result="hardAlpha"/>
<feOffset dy="4"/>
<feGaussianBlur stdDeviation="30"/>
<feComposite in2="hardAlpha" operator="out"/>
<feColorMatrix type="matrix" values="0 0 0 0 0 0 0 0 0 0 0 0 0 0 0 0 0 0 0.1 0"/>
<feBlend mode="normal" in2="BackgroundImageFix" result="effect1_dropShadow_2754_46357"/>
<feBlend mode="normal" in="SourceGraphic" in2="effect1_dropShadow_2754_46357" result="shape"/>
</filter>
</defs>
</svg>
