<svg width="116" height="72" viewBox="0 0 116 72" fill="none" xmlns="http://www.w3.org/2000/svg">
<g filter="url(#filter0_d_2754_46418)">
<path d="M16.8092 27.7754C17.909 22.2767 22.2767 17.909 27.7754 16.8092C33.1703 15.7303 38.8298 15.7303 44.2246 16.8092C49.7233 17.909 54.091 22.2767 55.1908 27.7754C56.2697 33.1703 56.2697 38.8298 55.1908 44.2246C54.091 49.7233 49.7233 54.091 44.2246 55.1908C38.8298 56.2697 33.1703 56.2697 27.7754 55.1908C22.2767 54.091 17.909 49.7233 16.8092 44.2246C15.7303 38.8298 15.7303 33.1703 16.8092 27.7754Z" fill="#54475E"/>
</g>
<path d="M36 42.0429C31.0389 42.0429 27 38.724 27 34.6535C27 30.5753 31.0389 27.2642 36 27.2642C40.9611 27.2642 45 30.5831 45 34.6535C45 38.7318 40.9611 42.0429 36 42.0429ZM36 28.4383C31.6988 28.4383 28.1926 31.225 28.1926 34.6535C28.1926 38.0821 31.6908 40.8687 36 40.8687C40.3012 40.8687 43.8074 38.0821 43.8074 34.6535C43.8074 31.225 40.3092 28.4383 36 28.4383Z" fill="white" fill-opacity="0.8"/>
<path d="M35.9878 41.2366C34.1831 41.2366 33.5391 37.6906 33.5391 34.6534C33.5391 32.9861 33.7299 31.4284 34.0797 30.2621C34.6203 28.4539 35.4154 28.0703 35.9799 28.0703V28.72C35.4949 28.72 35.0417 29.3306 34.7157 30.4421C34.3818 31.5458 34.199 33.0409 34.199 34.6456C34.199 37.9724 34.9781 40.5712 35.9799 40.5712V41.2366H35.9878Z" fill="white" fill-opacity="0.8"/>
<path d="M35.9893 41.237C34.2243 41.237 32.7455 40.5169 31.7119 39.1548C30.8056 37.965 30.3047 36.3682 30.3047 34.6617C30.3047 32.9553 30.8056 31.3584 31.7119 30.1686C32.7535 28.8066 34.2323 28.0864 35.9893 28.0864V28.7361C34.4469 28.7361 33.151 29.3702 32.2446 30.56C31.4257 31.6402 30.9725 33.0962 30.9725 34.6617C30.9725 37.5188 32.5467 40.5873 35.9893 40.5873V41.237Z" fill="white" fill-opacity="0.8"/>
<path d="M36 41.237V40.5873C36.485 40.5873 36.9382 39.9767 37.2641 38.8652C37.5981 37.7615 37.7809 36.2664 37.7809 34.6617C37.7809 31.3349 37.0018 28.7361 36 28.7361V28.0864C37.8048 28.0864 38.4488 31.6324 38.4488 34.6695C38.4488 36.3368 38.258 37.8946 37.9081 39.0609C37.3595 40.8534 36.5724 41.237 36 41.237Z" fill="white" fill-opacity="0.8"/>
<path d="M35.9904 41.237V40.5873C37.5487 40.5873 38.8526 39.9533 39.7669 38.7634C40.5937 37.6832 41.0469 36.2273 41.0469 34.6617C41.0469 31.8046 39.4648 28.7361 35.9824 28.7361V28.0864C37.7554 28.0864 39.2501 28.8066 40.2916 30.1686C41.2059 31.3584 41.7068 32.9553 41.7068 34.6617C41.7068 36.3682 41.2059 37.965 40.2916 39.1548C39.258 40.509 37.7713 41.237 35.9904 41.237Z" fill="white" fill-opacity="0.8"/>
<path d="M37.9531 43.8745H34.0812C33.2384 43.8745 32.5547 43.2013 32.5547 42.3716C32.5547 41.5418 33.2384 40.8687 34.0812 40.8687H37.9531C38.7959 40.8687 39.4796 41.5418 39.4796 42.3716C39.4796 43.2013 38.7959 43.8745 37.9531 43.8745ZM34.0812 42.0428C33.8983 42.0428 33.7473 42.1915 33.7473 42.3716C33.7473 42.5516 33.8983 42.7003 34.0812 42.7003H37.9531C38.136 42.7003 38.287 42.5516 38.287 42.3716C38.287 42.1915 38.136 42.0428 37.9531 42.0428H34.0812Z" fill="white" fill-opacity="0.8"/>
<path d="M37.9531 28.438H34.0812C33.2384 28.438 32.5547 27.7648 32.5547 26.9351C32.5547 26.1053 33.2384 25.4321 34.0812 25.4321H37.9531C38.7959 25.4321 39.4796 26.1053 39.4796 26.9351C39.4796 27.7648 38.7959 28.438 37.9531 28.438ZM34.0812 26.6063C33.8983 26.6063 33.7473 26.755 33.7473 26.9351C33.7473 27.1151 33.8983 27.2638 34.0812 27.2638H37.9531C38.136 27.2638 38.287 27.1151 38.287 26.9351C38.287 26.755 38.136 26.6063 37.9531 26.6063H34.0812Z" fill="white" fill-opacity="0.8"/>
<path d="M36.5949 43.2876H35.4023V46.5518H36.5949V43.2876Z" fill="white" fill-opacity="0.8"/>
<path d="M36.5949 24H35.4023V26.0196H36.5949V24Z" fill="white" fill-opacity="0.8"/>
<path d="M36.0015 48.0004C36.546 48.0004 36.9874 47.5658 36.9874 47.0297C36.9874 46.4937 36.546 46.0591 36.0015 46.0591C35.457 46.0591 35.0156 46.4937 35.0156 47.0297C35.0156 47.5658 35.457 48.0004 36.0015 48.0004Z" fill="white" fill-opacity="0.8"/>
<defs>
<filter id="filter0_d_2754_46418" x="-44" y="-40" width="160" height="160" filterUnits="userSpaceOnUse" color-interpolation-filters="sRGB">
<feFlood flood-opacity="0" result="BackgroundImageFix"/>
<feColorMatrix in="SourceAlpha" type="matrix" values="0 0 0 0 0 0 0 0 0 0 0 0 0 0 0 0 0 0 127 0" result="hardAlpha"/>
<feOffset dy="4"/>
<feGaussianBlur stdDeviation="30"/>
<feComposite in2="hardAlpha" operator="out"/>
<feColorMatrix type="matrix" values="0 0 0 0 0 0 0 0 0 0 0 0 0 0 0 0 0 0 0.1 0"/>
<feBlend mode="normal" in2="BackgroundImageFix" result="effect1_dropShadow_2754_46418"/>
<feBlend mode="normal" in="SourceGraphic" in2="effect1_dropShadow_2754_46418" result="shape"/>
</filter>
</defs>
</svg>
