<svg width="41" height="40" viewBox="0 0 41 40" fill="none" xmlns="http://www.w3.org/2000/svg">
<path fill-rule="evenodd" clip-rule="evenodd" d="M39.8837 19.7475C39.8837 21.672 39.6397 23.5129 39.1516 25.2283C38.1755 28.7427 36.3045 31.8387 33.7421 34.2653C31.9524 35.9806 29.7968 37.3613 27.4377 38.2817C25.3227 39.1185 23.0043 39.5787 20.6046 39.5787C20.2792 39.5787 19.9132 39.5787 19.5878 39.5368C19.0997 39.495 18.571 39.4532 18.0829 39.4113C14.3816 38.9093 10.9651 37.3194 8.23998 34.9347C7.22315 34.0561 6.28767 33.052 5.43353 31.9642C4.82343 31.1693 4.25401 30.2907 3.76593 29.3702C3.64391 29.161 3.52189 28.91 3.39987 28.7008C3.27785 28.4498 3.15584 28.2406 3.07449 27.9896C2.7491 27.2365 2.46439 26.4416 2.22035 25.6466C2.05766 25.0609 1.89496 24.4752 1.77294 23.8895C1.6916 23.4711 1.61025 23.0527 1.56958 22.5925C1.44756 21.672 1.36621 20.7516 1.36621 19.7893C1.36621 19.2454 1.36622 18.7016 1.44756 18.1577C1.48824 17.823 1.48823 17.4883 1.56958 17.1535C1.81362 15.1872 2.34236 13.3463 3.11515 11.6309C3.48121 10.7942 3.92862 9.95743 4.4167 9.20434C5.23016 7.90737 6.16565 6.69407 7.26382 5.60628C10.721 2.13373 15.4798 0 20.686 0C20.8893 0 21.0927 0 21.2961 0C21.4994 0 21.7435 9.56971e-07 21.9468 0.0418389C23.045 0.125515 24.1432 0.292867 25.16 0.543894C25.7701 0.711246 26.3802 0.878597 26.9497 1.08779C27.3564 1.2133 27.7224 1.38065 28.1292 1.548C28.4139 1.67352 28.6986 1.79903 28.9833 1.92455C29.024 1.96638 29.0647 1.96638 29.146 2.00822C31.017 2.92866 32.7253 4.18379 34.1895 5.68996C34.3929 5.89915 34.5962 6.10834 34.7996 6.31753C34.9216 6.48488 35.0843 6.61039 35.2063 6.77775C35.4504 7.02877 35.6537 7.32164 35.8571 7.57266C36.6299 8.57677 37.2806 9.66456 37.8501 10.7942C38.5008 12.133 39.0296 13.5555 39.3956 15.0198C39.6804 16.526 39.8837 18.1158 39.8837 19.7475Z" fill="url(#paint0_radial_2888_47703)"/>
<path opacity="0.5" fill-rule="evenodd" clip-rule="evenodd" d="M29.0646 1.92452C28.9833 1.92452 28.9426 1.92452 28.8613 1.96636C28.6579 2.00819 28.4545 1.96636 28.2512 1.92452C28.0885 1.88268 28.0072 1.79901 27.8038 1.79901C27.5597 1.75717 27.3564 1.67349 27.1123 1.63165C26.8683 1.58981 26.6649 1.50614 26.4209 1.42246C26.2175 1.33879 26.1362 1.38063 25.9735 1.42246C25.8108 1.4643 25.6888 1.38063 25.5261 1.33879C25.3634 1.25511 25.16 1.25511 24.9973 1.21327C24.5093 1.1296 24.0212 0.962245 23.5331 0.836732C23.2484 0.753056 22.9637 0.753057 22.6383 0.753057C22.3942 0.753057 22.1909 0.836732 21.9468 0.836732C21.7842 0.836732 21.6621 0.794894 21.4994 0.794894C21.3368 0.753056 21.1741 0.794894 21.0114 0.794894C20.7673 0.753056 20.6453 0.711219 20.4013 0.794894C20.1979 0.836732 20.0759 0.836733 19.8725 0.878571C19.6691 0.878571 19.4251 0.962246 19.2217 1.00408C18.8557 1.08776 18.449 1.17144 18.0829 1.17144C17.8389 1.17144 17.5135 1.08776 17.3101 1.17144C17.1881 1.21327 17.1067 1.38062 16.9847 1.4643C16.7814 1.67349 16.578 1.84084 16.4153 2.05003C16.2526 2.25922 16.0899 2.51025 16.0899 2.80311C16.0899 3.05414 16.2119 3.34701 16.3339 3.5562C16.456 3.80722 16.4966 4.01641 16.2526 4.18377C15.9679 4.39295 15.6018 4.56031 15.2764 4.68582C15.0324 4.7695 14.829 4.81134 14.6664 4.64398C14.585 4.60215 14.5443 4.47663 14.463 4.39295C14.3816 4.35112 14.2596 4.39296 14.1783 4.43479C13.9342 4.51847 13.6902 4.60215 13.4462 4.64398C13.2835 4.68582 13.1614 4.7695 12.9987 4.7695C12.8361 4.81134 12.714 4.68582 12.5107 4.72766C12.2666 4.7695 11.9819 4.89501 11.7379 4.89501C11.5345 4.89501 11.2905 4.81134 11.1278 4.72766C11.0464 4.68582 11.0058 4.60215 10.8837 4.64398C10.8024 4.64398 10.6804 4.7695 10.6397 4.85317C10.5583 4.93685 10.5584 5.06236 10.477 5.14604C10.3957 5.27155 10.355 5.35523 10.2736 5.48074C10.1516 5.68993 10.0296 5.89912 9.90758 6.10831C9.82624 6.23382 9.74488 6.44302 9.62286 6.56853C9.58219 6.6522 9.46018 6.69404 9.37884 6.73588C9.17547 6.86139 8.9721 7.02874 8.76874 7.15426C8.40268 7.44712 8.03661 7.78183 7.67056 8.07469C7.38584 8.28388 6.97911 8.4094 6.65373 8.57675C6.45036 8.66042 6.24699 8.7441 6.04363 8.82777C5.96228 8.86961 5.84026 8.86961 5.79959 8.95329C5.71824 9.03697 5.67757 9.12064 5.6369 9.24615C5.4742 9.45534 5.27083 9.70637 5.14881 9.9574C5.06747 10.1248 5.02679 10.2503 4.94545 10.4176C4.8641 10.6268 4.74209 10.836 4.70142 11.087C4.53873 11.5472 4.53872 12.0493 4.33535 12.5095C4.254 12.7605 4.09131 13.0116 3.96929 13.2626C3.76593 13.681 3.72526 14.183 3.68459 14.6432C3.64391 14.8943 3.68458 15.229 3.72525 15.48C3.76592 15.7729 3.76593 16.0657 3.76593 16.3586C3.76593 16.6515 3.56256 16.9862 3.39987 17.1954C3.23718 17.4045 2.95246 17.4882 2.7491 17.6974C2.5864 17.8648 2.38304 18.0321 2.30169 18.2831C2.26102 18.3668 2.30169 18.4923 2.30169 18.6178C2.26102 18.8689 2.17967 19.0781 2.17967 19.3291C2.139 19.622 2.139 19.9148 2.139 20.2495C2.139 20.4169 2.139 20.5424 2.139 20.7097C2.139 20.8771 2.17968 21.0026 2.22035 21.1281C2.22035 21.2118 2.22035 21.3373 2.22035 21.421C2.22035 21.5465 2.30169 21.672 2.30169 21.7557C2.38304 22.0486 2.42372 22.2996 2.46439 22.5925C2.50507 22.8435 2.62708 23.0945 2.66776 23.3455C2.78978 23.6802 2.83044 24.0149 2.91179 24.3915C2.95246 24.6425 2.95247 24.9354 2.99314 25.1864C3.03381 25.3956 3.07449 25.6048 3.07449 25.814C3.07449 26.1487 2.99314 26.4415 2.99314 26.7762C2.99314 27.3201 3.1965 27.864 3.31852 28.4079C3.35919 28.5753 3.39987 28.7008 3.44055 28.8681C2.09833 26.1905 1.36621 23.1363 1.36621 19.9148C1.36621 15.9821 2.46438 12.3422 4.37602 9.28799C5.18949 7.99102 6.12497 6.77772 7.22315 5.73177C10.6804 2.25922 15.4391 0.125488 20.6453 0.125488C21.052 0.125488 21.4994 0.125488 21.9062 0.167326C24.4279 0.125488 26.8683 0.836733 29.0646 1.92452Z" fill="url(#paint1_linear_2888_47703)"/>
<path fill-rule="evenodd" clip-rule="evenodd" d="M9.58222 19.2876C15.8052 20.2917 15.4392 22.007 22.679 19.957C29.9188 17.9069 35.125 6.73618 35.125 6.73618C35.125 6.73618 35.491 5.89942 35.1656 5.39737C35.0436 5.18818 34.1082 5.60656 34.1082 5.60656C34.2708 9.20462 29.3901 16.6518 23.8585 18.7855C23.2484 18.9947 22.679 19.0784 22.1096 19.2039C21.8655 19.0784 21.2148 18.4508 24.2246 16.3589C27.8038 13.8905 29.3901 12.97 29.0647 10.3761C28.7393 7.78213 31.9118 3.72385 31.9118 3.72385C31.9118 3.72385 32.1558 2.63607 31.5457 1.96666C30.773 1.08806 29.0647 1.96666 29.0647 1.96666C29.0647 1.96666 28.6173 7.02905 22.3943 9.74851C16.1713 12.468 12.6734 11.1292 10.3143 10.3761C7.91461 9.623 7.22317 5.56472 7.22317 5.56472C7.22317 5.56472 5.18951 5.14634 4.45739 6.44332C3.92864 7.40559 4.70143 8.61889 4.70143 8.61889C4.70143 8.61889 8.48403 10.0414 11.8599 11.3802C15.2358 12.719 21.7435 11.5057 24.0212 10.3761C26.3396 9.24646 26.3396 7.40559 28.1699 5.73207C28.9427 5.06267 29.7154 4.56061 30.3662 4.26775C30.3662 4.26775 28.3326 7.48927 28.5766 9.74851C28.8206 12.0078 27.4378 11.9241 24.0212 15.8987C21.6215 18.66 19.5472 19.5804 18.5303 19.8315C15.9272 20.0825 13.5275 19.7896 10.3143 18.8692C5.06749 17.4049 1.93565 15.0619 1.93565 15.0619C1.93565 15.0619 1.48824 14.8527 1.32555 15.3548C1.24421 15.564 1.73228 16.1916 1.73228 16.1916C1.73228 16.1916 3.35922 18.2416 9.58222 19.2876Z" fill="url(#paint2_linear_2888_47703)"/>
<path fill-rule="evenodd" clip-rule="evenodd" d="M13.9752 38.2815C13.9752 38.2815 12.4296 37.2774 11.2907 34.2233C10.1519 31.1691 10.2739 31.3783 8.11822 29.4537C5.96254 27.5292 2.2206 25.6465 2.2206 25.6465C2.2206 25.6465 1.97656 25.7302 1.97656 25.8138C1.97656 26.1904 2.42397 26.2741 2.42397 26.2741C2.42397 26.2741 5.92186 27.8221 8.11822 30.2905C10.3146 32.7589 12.6736 37.1937 11.006 36.9427C11.006 36.9427 11.3721 38.0305 12.2669 38.2815C13.121 38.5326 13.9752 38.2815 13.9752 38.2815Z" fill="url(#paint3_radial_2888_47703)"/>
<path d="M29.3086 23.513C30.0407 22.7181 30.8948 21.6722 34.3927 21.6303C37.8906 21.5885 39.6802 22.3834 39.6802 22.3834C39.6802 22.3834 40.4123 22.1742 40.4937 21.212C40.575 20.2497 39.8429 19.7895 39.8429 19.7895C39.8022 20.0823 39.4362 22.0905 36.467 20.9191C36.467 20.8772 37.5246 19.915 37.7279 17.9068C37.972 15.8985 38.6634 13.0117 38.6634 13.0117C38.6634 13.0117 39.0701 12.3005 38.8261 11.7147C38.7447 11.5055 38.0533 11.4219 38.0533 11.4219C38.6634 15.4802 37.1585 20.3334 35.5316 20.9191C33.5792 20.9609 31.1795 21.2956 30.0813 22.0487C28.7391 22.9691 27.3969 27.0693 26.5428 29.9561C26.3394 30.6673 25.892 31.4622 25.3226 32.2153C23.1669 32.7592 23.8583 30.0816 22.9229 29.2867C21.9874 28.4917 20.2384 28.9101 19.0589 28.4917C17.9201 28.0315 17.5947 27.1111 16.3745 26.9437C15.1543 26.7764 13.202 29.1612 10.9649 28.1989C8.72792 27.2366 1.32539 18.1996 1.32539 18.1996C1.32539 18.1996 0.674624 18.0323 0.511931 18.4925C0.389911 18.869 1.24406 19.8313 1.24406 19.8313C1.24406 19.8313 6.40955 27.8223 11.331 28.8683C16.2525 29.9142 20.7265 28.952 22.2721 30.2908C23.8177 31.6714 23.9397 33.847 23.9397 33.8888C22.3534 35.646 20.4418 37.1522 19.547 37.6124C18.0014 38.4073 15.4797 38.9512 15.4797 38.9512C15.8457 39.3696 16.5372 39.7043 17.2693 39.9135C18.3675 40.2064 19.0589 39.6625 19.0589 39.6625C19.0589 39.6625 18.4488 39.1186 19.2623 38.4073C21.3366 36.6083 22.8415 35.8552 24.9972 35.3113C26.2987 34.9766 26.7055 35.6042 26.8682 35.395C28.9018 36.0644 30.4881 34.5164 32.1963 33.0521C33.9046 31.6296 36.1417 31.4204 36.1417 31.4204C36.1417 31.4204 37.2805 31.2112 37.6059 30.7092C37.8906 30.2489 37.2398 29.705 37.2398 29.705C37.2398 29.705 36.2637 30.1234 34.3927 31.0857C32.5624 32.048 30.5694 34.8511 28.2917 34.7674C27.0309 34.7256 27.3156 33.4286 27.1936 33.2194C27.1936 33.1358 27.1936 33.0521 27.1936 32.9266C27.1529 32.0061 26.9495 31.1275 26.9495 30.4581C26.9495 30.2908 26.9495 30.1234 26.9902 29.9561C27.3156 28.9101 28.5764 24.2661 29.3086 23.513ZM25.3633 32.1735C24.9565 32.7174 24.5091 33.2613 24.021 33.8052L25.3633 32.1735ZM27.1122 33.596C27.1529 33.8052 27.1936 34.0144 27.1529 34.2654C27.1529 34.3909 27.1122 34.4746 27.0308 34.5164C26.9495 34.5582 26.9088 34.5582 26.8275 34.5582C26.7461 34.6001 26.6241 34.6001 26.5428 34.6419C26.3801 34.6838 26.2174 34.6419 26.0954 34.6419C25.9327 34.6419 25.77 34.6419 25.6073 34.6419C25.5259 34.6419 25.4446 34.6001 25.3633 34.6001C25.2819 34.6001 25.1599 34.6001 25.1192 34.5582C24.9565 34.4746 24.8345 34.2654 24.7125 34.2235C24.7125 34.0562 24.7125 33.9307 24.7938 33.8052C24.7938 33.7633 24.8345 33.7215 24.8345 33.6378C24.8752 33.5541 24.8752 33.4705 24.9159 33.3868C24.9972 33.1776 25.0785 32.9684 25.2412 32.8011C25.2819 32.7174 25.3632 32.5919 25.4039 32.5082C25.4853 32.3827 25.5666 32.299 25.648 32.2153C25.77 32.0898 25.892 31.9643 26.0547 31.8806C26.1767 31.7969 26.3801 31.7133 26.5428 31.7551C26.7055 31.7969 26.7461 32.0061 26.7868 32.1316C26.8275 32.2153 26.8275 32.3408 26.8682 32.4245C26.9088 32.55 26.9495 32.6755 26.9902 32.8011C27.0309 32.9684 27.0309 33.0939 27.0715 33.2613C27.0715 33.3449 27.0715 33.4705 27.1122 33.596Z" fill="url(#paint4_linear_2888_47703)"/>
<path fill-rule="evenodd" clip-rule="evenodd" d="M5.14844 5.98261C5.14844 5.98261 6.00258 7.82347 8.2396 9.49699C8.2396 9.49699 7.50748 6.81936 6.97873 5.73158C6.97873 5.73158 6.24661 5.02033 5.14844 5.98261Z" fill="#FFFF0E"/>
<path fill-rule="evenodd" clip-rule="evenodd" d="M16.9033 11.6311C16.9033 11.6311 18.4082 11.0036 18.8963 11.2546C18.8963 11.2127 17.4321 11.6311 16.9033 11.6311Z" fill="#FFFF0E"/>
<path fill-rule="evenodd" clip-rule="evenodd" d="M21.9879 10.1663C22.2726 10.0826 22.5573 9.99897 22.8014 9.87345C23.0454 9.78978 23.2488 9.66427 23.4928 9.53875C23.7775 9.3714 24.0622 9.20405 24.3063 8.99486C24.3876 8.95302 24.4283 8.91118 24.5096 8.86935C24.591 8.82751 24.6723 8.74383 24.7537 8.70199C24.835 8.66015 24.8757 8.57648 24.957 8.53464C25.0384 8.4928 25.0791 8.40913 25.1604 8.36729C25.2824 8.28361 25.4044 8.1581 25.4858 8.07442C25.5265 8.03259 25.5671 7.99075 25.6485 7.90707C25.6892 7.86523 25.7298 7.86523 25.7705 7.86523C25.7705 7.90707 25.7298 7.99075 25.7298 8.03259C25.6892 8.11626 25.6485 8.1581 25.6078 8.24178C25.5265 8.40913 25.3638 8.4928 25.2418 8.66016C25.1604 8.74383 25.0791 8.82751 24.957 8.91118C24.835 8.99486 24.6723 9.07853 24.5096 9.16221C24.3469 9.24589 24.1842 9.28772 24.0622 9.3714C23.9402 9.45507 23.7775 9.53875 23.6555 9.58059C23.5741 9.62243 23.4521 9.7061 23.3708 9.74794C23.2894 9.78978 23.2081 9.83161 23.1267 9.87345C23.0047 9.95713 22.8827 9.99897 22.7607 10.0826C22.6793 10.1245 22.6387 10.1245 22.5573 10.1663C22.4353 10.25 22.2319 10.2918 22.0692 10.2918C22.0286 10.2918 21.9472 10.2918 21.9065 10.2918C21.8659 10.2918 21.8252 10.25 21.8252 10.25C21.9065 10.2082 21.9472 10.1663 21.9879 10.1663Z" fill="#FFFF0E"/>
<path fill-rule="evenodd" clip-rule="evenodd" d="M26.0544 7.44686C25.973 7.4887 25.9323 7.53054 25.851 7.61421C25.851 7.65605 25.8103 7.69789 25.8917 7.69789C25.973 7.69789 26.0137 7.65605 26.095 7.57237C26.1357 7.53054 26.1764 7.44686 26.1357 7.40503C26.095 7.36319 26.0137 7.40502 25.973 7.44686H26.0544Z" fill="#FFFF0E"/>
<path fill-rule="evenodd" clip-rule="evenodd" d="M29.3488 2.05037C29.3081 2.13405 29.2268 2.21772 29.1861 2.3014C29.1454 2.38507 29.1454 2.42691 29.1048 2.51059C29.0641 2.6361 29.0234 2.80345 28.9828 2.92897C28.9014 3.17999 28.8607 3.47286 28.7387 3.72389C28.698 3.8494 28.6574 3.93308 28.576 4.05859C28.5353 4.10043 28.4947 4.1841 28.4947 4.22594C28.454 4.26778 28.454 4.30962 28.4133 4.39329C28.3726 4.43513 28.3726 4.47697 28.332 4.51881C28.2913 4.56065 28.2913 4.64432 28.2506 4.68616C28.2099 4.728 28.1286 4.85351 28.1693 4.89535C28.21 4.89535 28.2099 4.85351 28.2506 4.85351C28.2913 4.81167 28.3726 4.76983 28.4133 4.68616C28.5353 4.60248 28.6167 4.47697 28.698 4.35146C28.7387 4.30962 28.7794 4.26778 28.8201 4.1841C28.8607 4.10043 28.9421 4.05859 28.9828 3.97491C29.0641 3.8494 29.1861 3.72389 29.2674 3.64021C29.3081 3.59837 29.3488 3.5147 29.3895 3.47286C29.4302 3.43102 29.4708 3.38918 29.5115 3.30551C29.6742 3.13816 29.7962 2.9708 29.9589 2.80345C30.0809 2.67794 30.1623 2.51059 30.2843 2.38507C30.3656 2.25956 30.447 2.13405 30.4876 2.00853C30.5283 1.96669 30.569 1.84118 30.569 1.79934C30.5283 1.71567 30.447 1.67383 30.3656 1.67383C30.2436 1.67383 30.1216 1.67383 29.9996 1.67383C29.8776 1.71567 29.7962 1.75751 29.6742 1.79934C29.5928 1.84118 29.5115 1.92486 29.3895 1.96669C29.3488 2.05037 29.2675 2.09221 29.3488 2.05037Z" fill="#FFFF0E"/>
<path fill-rule="evenodd" clip-rule="evenodd" d="M30.3254 4.43522C30.2847 4.51889 30.244 4.60257 30.2034 4.68624C30.1627 4.72808 30.122 4.81176 30.0813 4.8536C30 4.97911 29.9593 5.10462 29.8779 5.1883C29.7559 5.39749 29.5933 5.60668 29.5119 5.81587C29.4712 5.89954 29.4306 5.98322 29.3899 6.06689C29.3492 6.15057 29.3085 6.27609 29.3085 6.35976C29.2679 6.44344 29.2679 6.52711 29.2272 6.65263C29.2272 6.7363 29.1865 6.81998 29.1865 6.90365C29.2679 6.81998 29.3085 6.69446 29.3899 6.61079C29.4306 6.52711 29.4712 6.44344 29.5526 6.4016C29.6339 6.35976 29.6746 6.27608 29.7153 6.19241C29.7559 6.10873 29.8373 6.0669 29.8779 5.98322C29.9186 5.89954 29.9593 5.85771 30 5.77403C30.0407 5.73219 30.0813 5.64852 30.122 5.56484C30.1627 5.48116 30.2033 5.39749 30.244 5.31381C30.2847 5.14646 30.366 4.97911 30.4067 4.81176C30.4067 4.72808 30.4474 4.64441 30.4067 4.56073C30.4067 4.51889 30.3254 4.35154 30.3254 4.43522Z" fill="#FFFF0E"/>
<path fill-rule="evenodd" clip-rule="evenodd" d="M28.9827 7.15416C28.942 7.27967 28.9014 7.36335 28.9014 7.48887C28.9014 7.5307 28.9014 7.57254 28.9014 7.57254C28.942 7.57254 28.9827 7.57254 28.9827 7.5307C29.0234 7.5307 29.0234 7.48887 29.0234 7.44703C29.0641 7.40519 29.1047 7.32151 29.064 7.23784C29.064 7.15416 28.9827 7.11233 28.942 7.196L28.9827 7.15416Z" fill="#FFFF0E"/>
<path fill-rule="evenodd" clip-rule="evenodd" d="M26.9904 12.886C26.787 13.0952 26.5023 13.3043 26.3397 13.5554C26.3397 13.5972 26.2176 13.6809 26.2583 13.7227C26.299 13.7646 26.3803 13.7227 26.421 13.7227C26.543 13.6809 26.665 13.5972 26.787 13.5554C26.8684 13.5135 26.9497 13.4299 27.0311 13.388C27.2344 13.2625 27.3972 13.0952 27.5598 12.886C27.6412 12.8023 27.6819 12.7186 27.7225 12.6349C27.7225 12.5931 27.7632 12.5094 27.7632 12.5094C27.7225 12.3839 27.4785 12.5094 27.4378 12.5513C27.3971 12.5931 27.3158 12.6349 27.2751 12.6768C27.2345 12.7186 27.1938 12.7605 27.1531 12.7605C27.1124 12.8023 27.0718 12.8441 26.9904 12.886C26.9497 12.9696 26.9904 12.9278 26.9904 12.886Z" fill="#FFFF0E"/>
<path fill-rule="evenodd" clip-rule="evenodd" d="M26.0142 13.9321C25.9329 13.974 25.8515 14.0158 25.8108 14.0576C25.8108 14.0995 25.7295 14.1413 25.7702 14.1832C25.8109 14.225 25.8922 14.1832 25.8922 14.1832C25.9329 14.1832 25.9735 14.1413 26.0142 14.0995C26.0142 14.0158 26.0142 14.0158 26.0142 13.9321Z" fill="#FFFF0E"/>
<path fill-rule="evenodd" clip-rule="evenodd" d="M21.0117 18.8271C20.849 18.9527 20.6456 19.0782 20.4422 19.2037C20.1982 19.3292 19.9542 19.4129 19.7508 19.5384C19.3847 19.7476 19.0187 19.9149 18.6526 20.0823C18.612 20.1241 18.0425 20.3333 18.2459 20.4588C18.3272 20.5007 18.4493 20.5007 18.5306 20.5007C18.612 20.5007 18.6933 20.5425 18.7746 20.5425C18.856 20.5425 18.9373 20.5425 19.0187 20.5425C19.4661 20.5425 19.9542 20.417 20.3609 20.2496C20.4423 20.2078 20.5643 20.166 20.6456 20.1241C20.6863 20.0823 20.727 20.0404 20.8083 19.9986C20.8896 19.9149 20.971 19.8313 21.0117 19.7057C21.093 19.5384 21.1337 19.4129 21.1337 19.2037C21.1337 19.12 21.093 19.0782 21.0523 18.9945C21.0523 18.9527 21.0117 18.9108 21.0117 18.8271Z" fill="#FFFF0E"/>
<path fill-rule="evenodd" clip-rule="evenodd" d="M17.8389 20.2495C17.7575 20.2077 17.6355 20.124 17.5135 20.124C17.4728 20.124 17.4321 20.124 17.3914 20.124C17.3101 20.124 17.1881 20.1659 17.1067 20.2077C17.0254 20.2914 17.2288 20.3751 17.3101 20.4169C17.3915 20.4587 17.5541 20.4587 17.6355 20.4169C17.7168 20.4169 17.8389 20.3332 17.8389 20.2495C17.8795 20.2495 17.8795 20.2495 17.8795 20.2495H17.8389Z" fill="#FFFF0E"/>
<path fill-rule="evenodd" clip-rule="evenodd" d="M23.7363 18.9523C24.1431 18.8268 24.5498 18.6595 24.9159 18.4503C25.0786 18.3666 25.2006 18.2829 25.3633 18.1993C25.4446 18.1574 25.5666 18.0737 25.648 18.0319C25.6886 18.0319 25.9327 17.8646 25.9734 17.9482C26.014 18.0319 25.77 18.1993 25.7293 18.2411C25.648 18.3248 25.5259 18.4085 25.4039 18.4921C25.3226 18.5758 25.2006 18.5758 25.1192 18.6595C24.9972 18.7432 24.8752 18.785 24.7125 18.8687C24.6311 18.9105 24.5091 18.9523 24.4278 18.9942C24.3464 19.036 24.2651 19.036 24.1837 19.0779C24.1431 19.0779 24.0617 19.0779 24.021 19.0779C23.9397 19.036 23.777 19.0779 23.7363 18.9523Z" fill="#FFFF0E"/>
<path fill-rule="evenodd" clip-rule="evenodd" d="M32.8062 21.2536C33.0096 21.2536 33.2537 21.2955 33.457 21.2536C33.6197 21.2118 33.7417 21.2118 33.9044 21.1699C34.1891 21.1281 34.5145 21.0444 34.7992 21.0444C34.9212 21.0444 35.0433 21.0444 35.1653 21.0444C35.2466 21.0444 35.328 21.0444 35.3686 21.0444C35.4093 21.0444 35.4907 21.0863 35.4907 21.1281C35.572 21.2118 35.4907 21.2118 35.45 21.2118C35.328 21.2536 35.2466 21.3373 35.1246 21.3373C34.9212 21.3791 34.7585 21.421 34.5552 21.4628C34.4332 21.4628 34.3111 21.4628 34.1484 21.4628C33.9858 21.5047 33.8231 21.5047 33.6197 21.5047C33.457 21.5047 33.335 21.5047 33.1723 21.5047C33.0503 21.5047 32.9689 21.4628 32.8469 21.4628C32.7656 21.4628 32.6842 21.4628 32.6436 21.421C32.6842 21.4628 32.6029 21.3791 32.8062 21.2536Z" fill="#FFFF0E"/>
<path fill-rule="evenodd" clip-rule="evenodd" d="M37.6875 21.4625C37.9315 21.5044 38.0942 21.5044 38.3383 21.4625C38.501 21.4207 38.6637 21.4207 38.7857 21.3788C38.989 21.337 39.2331 21.2533 39.4364 21.1278C39.5585 21.0441 39.7618 20.9186 39.8839 20.9605C40.0059 21.0023 40.1279 21.1278 40.1279 21.2533C40.1279 21.4207 39.9652 21.5044 39.8839 21.588C39.7212 21.7135 39.4364 21.7972 39.2331 21.7972C38.989 21.7972 38.7043 21.7554 38.4603 21.7135C38.379 21.7135 38.2976 21.6717 38.2162 21.6717C38.1349 21.6299 37.9722 21.6299 37.6875 21.4625Z" fill="#FFFF0E"/>
<path fill-rule="evenodd" clip-rule="evenodd" d="M38.257 11.6729C38.257 11.8402 38.135 12.3004 38.3384 12.4259C38.4604 12.5096 38.501 12.3004 38.501 12.2167C38.5417 12.0912 38.4604 11.7565 38.257 11.6729Z" fill="#FFFF0E"/>
<path fill-rule="evenodd" clip-rule="evenodd" d="M1.93549 15.7728C2.13886 16.0238 2.26087 16.2749 2.50491 16.4004C2.66761 16.4841 2.78963 16.6096 2.95232 16.6514C3.11501 16.6933 3.31839 16.7351 3.48108 16.7351C3.56243 16.7351 3.60309 16.7351 3.60309 16.6096C3.60309 16.5677 3.56242 16.4841 3.52174 16.4422C3.48107 16.3586 3.39972 16.3167 3.31838 16.233C3.23703 16.1494 3.19636 16.0657 3.11501 15.982C2.8303 15.731 2.54559 15.5636 2.17953 15.4381C2.05751 15.3963 2.05751 15.3963 1.93549 15.4381C1.85414 15.48 1.85415 15.48 1.81348 15.5636C1.81348 15.6891 1.89482 15.8147 1.97617 15.9402L1.93549 15.7728Z" fill="#FFFF0E"/>
<path fill-rule="evenodd" clip-rule="evenodd" d="M2.09771 19.664C2.38243 20.1661 2.74849 20.5845 3.11454 21.0447C3.35858 21.3375 3.52128 21.7559 3.80599 22.0488C3.84667 22.0906 4.37542 22.5508 4.37542 22.2998C4.37542 22.258 4.21272 22.0069 4.21272 21.9651C4.13138 21.8396 4.05003 21.6722 3.92801 21.5467C3.84666 21.4212 3.72465 21.3375 3.68398 21.212C3.60263 21.0865 3.52128 21.0028 3.43994 20.8773C3.31792 20.7518 3.23657 20.5426 3.15522 20.4171C3.07387 20.2916 2.95186 20.1242 2.87051 19.9987C2.74849 19.7895 2.5858 19.5803 2.38243 19.4967C2.34176 19.4548 2.26041 19.413 2.17907 19.4548C1.9757 19.5803 2.05704 19.8314 2.09771 19.664Z" fill="#FFFF0E"/>
<path fill-rule="evenodd" clip-rule="evenodd" d="M20.6455 28.9935C21.0929 28.9099 21.4183 28.8262 21.8657 28.9517C22.0691 28.9935 22.2724 29.0772 22.4758 29.119C22.5978 29.1609 22.8012 29.2027 22.8825 29.2864C22.9639 29.4119 22.9639 29.5793 22.8419 29.6629C22.7198 29.7885 22.4351 29.7466 22.2724 29.7466C21.9471 29.7048 21.6623 29.6629 21.337 29.5793C21.1743 29.5374 20.9302 29.4538 20.7675 29.3282C20.7269 29.2864 20.5642 29.1191 20.6455 28.9935Z" fill="#FFFF0E"/>
<path fill-rule="evenodd" clip-rule="evenodd" d="M26.5428 31.3364C26.3394 31.2946 26.2988 30.8762 26.3801 30.7089C26.4208 30.6252 26.4614 30.4578 26.5835 30.416C26.6648 30.3742 26.7055 30.4578 26.7868 30.4578C26.7055 30.667 26.5835 30.8344 26.4614 31.0017L26.5428 31.3364Z" fill="#FFFF0E"/>
<path fill-rule="evenodd" clip-rule="evenodd" d="M34.6367 31.2111C34.9214 31.0019 35.1248 30.8764 35.4502 30.7927C35.6129 30.7509 35.7756 30.7091 35.9383 30.6672C36.1416 30.6254 36.3043 30.4999 36.5077 30.4999C36.589 30.4999 36.6297 30.4999 36.7111 30.458C36.7924 30.458 36.7517 30.4162 36.8331 30.458C36.9958 30.5417 36.9144 30.6672 36.8331 30.7509C36.6297 30.9183 36.467 31.0019 36.223 31.0438C36.0603 31.0856 35.9789 31.1693 35.8163 31.2111C35.7349 31.253 35.6535 31.253 35.5722 31.2948C35.2061 31.3785 34.8401 31.2948 34.6367 31.2111Z" fill="#FFFF0E"/>
<path fill-rule="evenodd" clip-rule="evenodd" d="M8.76799 30.4995C8.93068 30.8761 9.09337 31.2526 9.33741 31.5873C9.45943 31.7547 9.54077 31.8802 9.70346 31.9639C9.82548 32.0057 9.94751 32.0475 9.94751 31.8383C9.94751 31.7547 9.86615 31.5873 9.82548 31.5036C9.66279 31.2108 9.45943 31.0016 9.29673 30.7506C9.21539 30.6669 9.13404 30.4995 9.05269 30.4577C8.93067 30.4159 8.72731 30.3322 8.76799 30.4995Z" fill="#FFFF0E"/>
<path fill-rule="evenodd" clip-rule="evenodd" d="M16.2932 38.9508C16.7406 38.8671 17.1067 38.6998 17.5134 38.5743C17.6761 38.4906 17.8388 38.4906 18.0422 38.4906L18.0828 38.4488C18.1235 38.4488 18.2048 38.4488 18.2455 38.4488C18.2862 38.4488 18.4896 38.4069 18.5302 38.4488C18.6929 38.5743 18.3675 38.909 18.2862 38.9508C18.0015 39.2437 17.5541 39.411 17.1067 39.3692C16.9033 39.3274 16.6999 39.2437 16.4966 39.2019C16.3746 39.2019 16.0898 39.1182 16.0898 38.9508C16.1305 38.9927 16.1305 38.9508 16.2932 38.9508Z" fill="#FFFF0E"/>
<path fill-rule="evenodd" clip-rule="evenodd" d="M23.7773 34.4746C23.4112 34.7256 22.9638 34.9767 22.6791 35.395C22.4757 35.6879 22.8418 35.6042 23.0045 35.5624C23.1265 35.5206 23.2485 35.4787 23.3299 35.395C23.4112 35.3114 23.4926 35.2695 23.5739 35.144C23.6552 35.0603 23.6959 35.0185 23.7773 34.9767C23.8179 34.893 23.8586 34.7675 23.94 34.7256C23.94 34.6838 23.8993 34.6838 23.8993 34.642L23.7773 34.4746Z" fill="#FFFF0E"/>
<path fill-rule="evenodd" clip-rule="evenodd" d="M13.2832 28.4077C13.5679 28.2822 13.8526 28.1985 14.0966 28.0312C14.3407 27.9057 14.5847 27.7383 14.8287 27.6128C15.1541 27.4454 15.4795 27.2363 15.8456 27.1944C15.9676 27.1944 16.0896 27.1107 16.2116 27.1944C16.3337 27.2363 16.3743 27.2781 16.4557 27.3618C16.659 27.6546 16.2523 27.9057 16.0489 28.0312C15.8862 28.1567 15.7642 28.2822 15.5609 28.3659C15.3575 28.4496 15.1541 28.4914 14.9508 28.5751C14.6254 28.7006 14.2593 28.8679 13.8933 28.9098C13.6899 28.9516 13.5272 28.8679 13.3645 28.7424C13.2832 28.7006 13.2018 28.6169 13.1611 28.5332C13.1205 28.4914 13.0798 28.4077 13.2832 28.4077Z" fill="#FFFF0E"/>
<defs>
<radialGradient id="paint0_radial_2888_47703" cx="0" cy="0" r="1" gradientUnits="userSpaceOnUse" gradientTransform="translate(8.67449 10.4804) scale(30.9529 31.8393)">
<stop offset="0.00558659" stop-color="#9D9D94"/>
<stop offset="0.2018" stop-color="#DFD2C1"/>
<stop offset="0.3542" stop-color="#C2B5A2"/>
<stop offset="0.4919" stop-color="#D5C8B5"/>
<stop offset="0.6209" stop-color="#A09277"/>
<stop offset="0.7437" stop-color="#847B60"/>
<stop offset="0.8606" stop-color="#736950"/>
<stop offset="0.942708" stop-color="#A09277"/>
</radialGradient>
<linearGradient id="paint1_linear_2888_47703" x1="1.33884" y1="14.3135" x2="29.0575" y2="14.3135" gradientUnits="userSpaceOnUse">
<stop offset="0.0111732" stop-color="#D7CAB7"/>
<stop offset="0.2983" stop-color="#E1DAC0"/>
<stop offset="0.695" stop-color="#EDE0CE"/>
<stop offset="0.8659" stop-color="#C3B6A2"/>
<stop offset="1" stop-color="#9A968B"/>
</linearGradient>
<linearGradient id="paint2_linear_2888_47703" x1="1.25071" y1="11.218" x2="35.2934" y2="11.218" gradientUnits="userSpaceOnUse">
<stop offset="0.00558659" stop-color="#FFB80B"/>
<stop offset="0.388" stop-color="#FFB60C"/>
<stop offset="0.5789" stop-color="#FEAE10"/>
<stop offset="0.7274" stop-color="#FCA117"/>
<stop offset="0.8539" stop-color="#FA8E21"/>
<stop offset="0.9655" stop-color="#F7762E"/>
<stop offset="1" stop-color="#F66D33"/>
</linearGradient>
<radialGradient id="paint3_radial_2888_47703" cx="0" cy="0" r="1" gradientUnits="userSpaceOnUse" gradientTransform="translate(4.23954 29.0257) scale(9.78703 10.0673)">
<stop offset="0.00558659" stop-color="#FFB80B"/>
<stop offset="0.388" stop-color="#FFB60C"/>
<stop offset="0.5789" stop-color="#FEAE10"/>
<stop offset="0.7274" stop-color="#FCA117"/>
<stop offset="0.8539" stop-color="#FA8E21"/>
<stop offset="0.9655" stop-color="#F7762E"/>
<stop offset="1" stop-color="#F66D33"/>
</radialGradient>
<linearGradient id="paint4_linear_2888_47703" x1="0.594457" y1="25.6681" x2="40.5095" y2="25.6681" gradientUnits="userSpaceOnUse">
<stop offset="0.00558659" stop-color="#FFB80B"/>
<stop offset="0.388" stop-color="#FFB60C"/>
<stop offset="0.5789" stop-color="#FEAE10"/>
<stop offset="0.7274" stop-color="#FCA117"/>
<stop offset="0.8539" stop-color="#FA8E21"/>
<stop offset="0.9655" stop-color="#F7762E"/>
<stop offset="1" stop-color="#F66D33"/>
</linearGradient>
</defs>
</svg>
