<svg width="116" height="32" viewBox="0 0 116 32" fill="none" xmlns="http://www.w3.org/2000/svg">
<g clip-path="url(#clip0_2754_46453)">
<g clip-path="url(#clip1_2754_46453)">
<path d="M26.3203 21.776C26.3182 23.4733 26.984 25.102 28.1716 26.3047C29.3591 27.5074 30.9713 28.1859 32.6544 28.1911H36.7814C36.8747 28.1911 36.9641 28.1541 37.0304 28.088C37.0967 28.0219 37.1345 27.9321 37.1355 27.838V24.9935C37.1355 24.8995 37.0987 24.8093 37.0332 24.7424C36.9676 24.6756 36.8786 24.6375 36.7854 24.6364H33.5868C31.7417 24.6364 29.8533 23.117 29.8572 21.2563L29.9005 7.11294C29.9005 7.01892 29.8637 6.9287 29.7982 6.86185C29.7326 6.795 29.6435 6.75693 29.5503 6.75588H26.7059C26.6596 6.75536 26.6136 6.7641 26.5707 6.78161C26.5277 6.79912 26.4887 6.82505 26.4557 6.85789C26.4228 6.89073 26.3967 6.92983 26.3788 6.97293C26.361 7.01603 26.3518 7.06227 26.3518 7.10897L26.3203 21.776Z" fill="white"/>
<path d="M94.9921 28.5646C95.2601 28.5646 95.522 28.4846 95.745 28.3347C95.9679 28.1848 96.1419 27.9718 96.2449 27.7224C96.348 27.473 96.3756 27.1984 96.3241 26.9332C96.2727 26.668 96.1446 26.4241 95.956 26.2322C95.7673 26.0404 95.5266 25.9091 95.2641 25.8549C95.0016 25.8008 94.729 25.8262 94.4808 25.928C94.2326 26.0297 94.0198 26.2033 93.8693 26.4268C93.7187 26.6503 93.6371 26.9138 93.6348 27.184C93.6333 27.3647 93.6672 27.544 93.7347 27.7114C93.8022 27.8788 93.902 28.0311 94.0282 28.1595C94.1544 28.2879 94.3045 28.3897 94.47 28.4593C94.6354 28.5288 94.8129 28.5646 94.9921 28.5646Z" fill="white"/>
<path d="M105.575 19.218H103.608C103.564 19.2173 103.52 19.2303 103.484 19.2551C103.447 19.2799 103.419 19.3154 103.403 19.3568L100.649 25.5418L97.9305 19.3449C97.9128 19.3047 97.8842 19.2704 97.848 19.2458C97.8118 19.2213 97.7695 19.2075 97.7259 19.2061H95.7588C95.7215 19.2062 95.6849 19.2156 95.6522 19.2336C95.6195 19.2515 95.5917 19.2774 95.5714 19.3089C95.5511 19.3404 95.5389 19.3766 95.5359 19.414C95.5329 19.4515 95.5392 19.4891 95.5542 19.5234L99.3586 28.2078C99.3773 28.247 99.4062 28.2803 99.4423 28.3041C99.4783 28.3278 99.5201 28.3412 99.5632 28.3427H101.743C101.787 28.3433 101.83 28.3304 101.867 28.3056C101.903 28.2807 101.931 28.2453 101.947 28.2039L105.791 19.5393C105.804 19.5037 105.809 19.4654 105.804 19.4276C105.8 19.3898 105.786 19.3537 105.765 19.3222C105.744 19.2908 105.716 19.2649 105.683 19.2467C105.649 19.2286 105.612 19.2187 105.575 19.218Z" fill="white"/>
<path d="M111.96 19.2334H109.702C108.802 19.2323 107.939 19.5915 107.301 20.232C106.664 20.8725 106.305 21.7419 106.303 22.6492V28.1281C106.302 28.1586 106.308 28.189 106.319 28.2173C106.33 28.2457 106.347 28.2715 106.368 28.2933C106.389 28.3151 106.415 28.3324 106.443 28.3442C106.471 28.3561 106.501 28.3621 106.531 28.3621H108.341C108.401 28.3621 108.459 28.3379 108.502 28.2947C108.545 28.2516 108.569 28.1931 108.569 28.132V22.6532C108.569 22.3502 108.688 22.0596 108.901 21.8453C109.113 21.631 109.401 21.5106 109.702 21.5106H111.964C112.264 21.5127 112.551 21.6346 112.762 21.8495C112.973 22.0644 113.09 22.3548 113.089 22.6572V28.136C113.089 28.166 113.094 28.1959 113.105 28.2238C113.116 28.2516 113.133 28.277 113.154 28.2985C113.174 28.3199 113.199 28.3369 113.227 28.3485C113.254 28.3601 113.284 28.3661 113.314 28.3661H115.127C115.188 28.3661 115.246 28.3419 115.289 28.2987C115.331 28.2555 115.355 28.197 115.355 28.136V22.6572C115.349 21.7511 114.99 20.8838 114.354 20.2431C113.719 19.6024 112.859 19.2396 111.96 19.2334Z" fill="white"/>
<path d="M90.7192 6.88284H87.8905C87.7966 6.88284 87.7066 6.92046 87.6402 6.98742C87.5737 7.05438 87.5364 7.1452 87.5364 7.23989L87.4932 27.9571C87.4932 28.004 87.5023 28.0504 87.5201 28.0937C87.5379 28.137 87.564 28.1764 87.5969 28.2095C87.6298 28.2427 87.6688 28.269 87.7117 28.2869C87.7547 28.3049 87.8007 28.3141 87.8472 28.3141H90.6759C90.7219 28.3141 90.7675 28.305 90.8099 28.2872C90.8524 28.2695 90.891 28.2435 90.9235 28.2107C90.9561 28.1779 90.9818 28.139 90.9994 28.0961C91.017 28.0533 91.0261 28.0074 91.0261 27.961L91.0694 7.24386C91.071 7.19669 91.0631 7.14967 91.0461 7.10567C91.0292 7.06166 91.0036 7.02157 90.9709 6.98783C90.9381 6.95408 90.899 6.92738 90.8557 6.90933C90.8125 6.89129 90.766 6.88227 90.7192 6.88284Z" fill="white"/>
<path d="M83.9839 14.0121H81.1552C81.1089 14.0116 81.0629 14.0204 81.02 14.0379C80.9771 14.0554 80.938 14.0813 80.9051 14.1141C80.8721 14.147 80.846 14.1861 80.8281 14.2292C80.8103 14.2723 80.8011 14.3185 80.8011 14.3652V14.762C79.6759 14.0609 78.3856 13.6751 77.0632 13.6446C75.7409 13.614 74.4344 13.9396 73.2785 14.5879C72.1225 15.2363 71.159 16.1838 70.4873 17.3328C69.8156 18.4818 69.4599 19.7906 69.457 21.1244C69.4542 22.4583 69.8042 23.7687 70.4709 24.9206C71.1377 26.0725 72.0971 27.0243 73.2503 27.6777C74.4034 28.331 75.7085 28.6624 77.0309 28.6376C78.3534 28.6128 79.6453 28.2328 80.7736 27.5366V27.9333C80.7731 27.98 80.7817 28.0264 80.7991 28.0697C80.8165 28.113 80.8422 28.1524 80.8747 28.1856C80.9073 28.2188 80.9461 28.2452 80.9888 28.2632C81.0316 28.2811 81.0774 28.2904 81.1237 28.2904H83.9524C84.0463 28.2904 84.1364 28.2528 84.2028 28.1858C84.2692 28.1189 84.3065 28.028 84.3065 27.9333L84.3341 14.3613C84.3341 14.3151 84.325 14.2694 84.3073 14.2267C84.2897 14.1841 84.2638 14.1455 84.2313 14.113C84.1987 14.0805 84.1601 14.0549 84.1176 14.0376C84.0752 14.0203 84.0297 14.0116 83.9839 14.0121ZM76.9023 25.069C76.1309 25.069 75.3768 24.8382 74.7354 24.4058C74.0941 23.9735 73.5944 23.359 73.2995 22.6401C73.0047 21.9212 72.9279 21.1303 73.079 20.3674C73.2301 19.6046 73.6022 18.9041 74.1482 18.3545C74.6943 17.805 75.3897 17.4312 76.1465 17.2804C76.9033 17.1296 77.6875 17.2086 78.3998 17.5074C79.1121 17.8062 79.7204 18.3113 80.1479 18.9589C80.5753 19.6065 80.8027 20.3674 80.8011 21.1453C80.8006 21.6618 80.6991 22.173 80.5024 22.6499C80.3057 23.1267 80.0177 23.5598 79.6548 23.9242C79.2919 24.2887 78.8613 24.5774 78.3877 24.7738C77.914 24.9702 77.4066 25.0705 76.8944 25.069H76.9023Z" fill="white"/>
<path d="M61.6106 17.1866C62.2815 17.141 62.9527 17.272 63.5583 17.5669C64.1639 17.8618 64.683 18.3104 65.0648 18.8687C65.114 18.944 65.1899 18.9975 65.277 19.0181C65.364 19.0388 65.4556 19.025 65.533 18.9798L67.9879 17.5555C68.0293 17.531 68.0653 17.4984 68.0941 17.4598C68.1228 17.4211 68.1436 17.377 68.1553 17.3301C68.1671 17.2833 68.1694 17.2345 68.1623 17.1867C68.1552 17.1389 68.1387 17.093 68.1138 17.0517C67.2424 15.6942 65.9589 14.6573 64.455 14.0959C62.9511 13.5346 61.3075 13.4788 59.7696 13.9369C58.2317 14.3951 56.882 15.3426 55.922 16.6379C54.9621 17.9333 54.4434 19.507 54.4434 21.1241C54.4434 22.7412 54.9621 24.3149 55.922 25.6102C56.882 26.9056 58.2317 27.8531 59.7696 28.3112C61.3075 28.7694 62.9511 28.7136 64.455 28.1522C65.9589 27.5908 67.2424 26.554 68.1138 25.1965C68.14 25.1554 68.1577 25.1094 68.1657 25.0612C68.1738 25.0131 68.1721 24.9637 68.1607 24.9163C68.1493 24.8688 68.1284 24.8241 68.0994 24.785C68.0704 24.7459 68.0338 24.7131 67.9919 24.6887L65.5408 23.2565C65.4637 23.2102 65.3718 23.196 65.2845 23.2167C65.1972 23.2374 65.1212 23.2915 65.0727 23.3676C64.6935 23.9078 64.185 24.3425 63.5944 24.6312C63.0039 24.92 62.3505 25.0534 61.6951 25.0191C61.0396 24.9847 60.4035 24.7838 59.8457 24.4349C59.288 24.086 58.8269 23.6006 58.5052 23.0237C58.1836 22.4468 58.0118 21.7972 58.006 21.1354C58.0002 20.4736 58.1605 19.8211 58.472 19.2386C58.7835 18.656 59.236 18.1624 59.7875 17.8036C60.339 17.4448 60.9716 17.2326 61.6263 17.1866H61.6106Z" fill="white"/>
<path d="M48.1113 14.2265C49.4552 14.8305 50.5911 15.823 51.3754 17.0784C52.1597 18.3337 52.557 19.7955 52.5171 21.2787C52.4771 22.7618 52.0017 24.1997 51.1511 25.4103C50.3004 26.6209 49.1127 27.5498 47.7383 28.0794C46.3638 28.609 44.8645 28.7155 43.43 28.3854C41.9955 28.0554 40.6904 27.3036 39.6798 26.2252C38.6692 25.1468 37.9986 23.7904 37.7529 22.3275C37.5071 20.8646 37.6973 19.3611 38.2993 18.0073C39.1082 16.1983 40.594 14.7854 42.4323 14.077C44.2706 13.3687 46.3121 13.4224 48.1113 14.2265ZM43.4885 24.6644C44.1918 24.9812 44.9725 25.0806 45.7318 24.95C46.4911 24.8195 47.195 24.4648 47.7545 23.9308C48.3139 23.3969 48.7038 22.7077 48.8748 21.9503C49.0458 21.1929 48.9903 20.4015 48.7152 19.6759C48.4402 18.9504 47.958 18.3233 47.3296 17.8741C46.7012 17.4249 45.9548 17.1737 45.1848 17.1522C44.4148 17.1307 43.6558 17.3399 43.0038 17.7534C42.3517 18.1669 41.8358 18.7661 41.5214 19.4752C41.3121 19.9461 41.1969 20.454 41.1825 20.9698C41.1681 21.4857 41.2547 21.9993 41.4374 22.4813C41.6202 22.9633 41.8954 23.4043 42.2473 23.7789C42.5993 24.1535 43.0211 24.4544 43.4885 24.6644Z" fill="white"/>
<path d="M50.8613 8.03787C49.1614 7.26638 47.3269 6.84166 45.4635 6.78818C45.4165 6.78711 45.3698 6.79558 45.3262 6.8131C45.2825 6.83061 45.2428 6.85681 45.2094 6.89013C45.176 6.92344 45.1496 6.9632 45.1317 7.00703C45.1139 7.05085 45.105 7.09785 45.1055 7.14523V10.0017C45.1044 10.094 45.1392 10.183 45.2025 10.2498C45.2657 10.3165 45.3523 10.3556 45.4438 10.3587C48.2155 10.458 50.8394 11.6436 52.7576 13.6635C52.8229 13.7275 52.9104 13.7633 53.0015 13.7633C53.0926 13.7633 53.1801 13.7275 53.2454 13.6635L55.3581 11.7513C55.3928 11.719 55.4209 11.6802 55.4407 11.637C55.4605 11.5938 55.4717 11.5471 55.4735 11.4995C55.4753 11.4519 55.4678 11.4045 55.4514 11.3598C55.4349 11.3152 55.4099 11.2743 55.3778 11.2395C54.0933 9.88596 52.5591 8.79841 50.8613 8.03787Z" fill="white"/>
<path d="M53.6033 1.84091C51.0453 0.679194 48.2802 0.0529535 45.4752 8.96948e-05C45.4283 -0.00097814 45.3815 0.00749805 45.3379 0.0250134C45.2942 0.0425287 45.2545 0.0687249 45.2211 0.102042C45.1877 0.135358 45.1613 0.175114 45.1434 0.218941C45.1256 0.262768 45.1167 0.309769 45.1172 0.357145V3.21359C45.1172 3.30626 45.1528 3.39532 45.2167 3.46195C45.2806 3.52858 45.3676 3.56756 45.4595 3.57065C47.7704 3.6253 50.0472 4.14475 52.1563 5.09851C54.2655 6.05227 56.1646 7.42115 57.7421 9.12485C57.8052 9.19354 57.8925 9.23453 57.9852 9.23898C58.0779 9.24343 58.1686 9.21099 58.2379 9.14865L60.3466 7.24436C60.3821 7.21369 60.4111 7.17608 60.4318 7.1338C60.4525 7.09152 60.4645 7.04545 60.4671 6.99837C60.4697 6.95128 60.4628 6.90416 60.4468 6.85984C60.4308 6.81552 60.4061 6.77493 60.3741 6.74051C58.4709 4.6602 56.1671 2.99304 53.6033 1.84091Z" fill="white"/>
<path d="M10.1503 19.0431H9.02515C8.19422 19.0418 7.39236 19.3514 6.77477 19.9119C6.15715 19.3479 5.35371 19.0354 4.52046 19.0352H3.39527C2.50131 19.032 1.64244 19.3857 1.00627 20.019C0.370099 20.6524 0.0083455 21.5139 3.51324e-05 22.4153V27.8743C-0.000487483 27.9038 0.00482519 27.9331 0.0156629 27.9605C0.0265006 27.9879 0.0426462 28.0129 0.0631567 28.034C0.0836673 28.055 0.108132 28.0717 0.135121 28.0831C0.162111 28.0946 0.191085 28.1004 0.220352 28.1004H2.02616C2.08532 28.0994 2.14177 28.0753 2.18361 28.0331C2.22545 27.9909 2.2494 27.934 2.25041 27.8743V22.4153C2.25145 22.114 2.37087 21.8254 2.58251 21.6128C2.79415 21.4001 3.08075 21.2807 3.37953 21.2807H4.50079C4.79957 21.2817 5.08576 21.4021 5.29666 21.6156C5.50756 21.829 5.62598 22.118 5.62598 22.4193V27.8783C5.62545 27.9078 5.63077 27.9371 5.6416 27.9645C5.65244 27.9919 5.66859 28.0169 5.6891 28.0379C5.70961 28.059 5.73407 28.0757 5.76106 28.0871C5.78805 28.0985 5.81703 28.1044 5.84629 28.1044H7.6521C7.70851 28.1034 7.7624 28.0807 7.80266 28.0408C7.84292 28.0009 7.86648 27.947 7.86849 27.8902V22.4312C7.86848 22.2818 7.89772 22.134 7.95451 21.996C8.0113 21.8581 8.09453 21.7329 8.19944 21.6275C8.30434 21.522 8.42884 21.4385 8.56581 21.3818C8.70278 21.325 8.84952 21.296 8.99761 21.2965H10.1189C10.2668 21.2965 10.4132 21.326 10.5498 21.3834C10.6863 21.4407 10.8103 21.5247 10.9145 21.6305C11.0187 21.7363 11.1012 21.8619 11.157 22C11.2129 22.1381 11.2412 22.286 11.2401 22.4351V27.8941C11.2401 27.9534 11.2632 28.0103 11.3044 28.0526C11.3456 28.0949 11.4016 28.1192 11.4604 28.1203H13.2662C13.2955 28.1203 13.3245 28.1144 13.3515 28.103C13.3785 28.0916 13.4029 28.0749 13.4234 28.0538C13.4439 28.0327 13.4601 28.0078 13.4709 27.9804C13.4818 27.953 13.4871 27.9236 13.4866 27.8941V22.4351C13.4897 21.5394 13.1401 20.679 12.5145 20.0429C11.889 19.4069 11.0386 19.0473 10.1503 19.0431Z" fill="white"/>
<path d="M24.053 19.0431H22.0858C22.0423 19.0427 21.9997 19.0553 21.9633 19.0793C21.9269 19.1033 21.8984 19.1376 21.8813 19.178L19.147 25.3431L16.4402 19.174C16.424 19.1336 16.3963 19.0988 16.3606 19.0741C16.325 19.0494 16.2829 19.0359 16.2396 19.0352H14.2725C14.2352 19.0353 14.1986 19.0447 14.1659 19.0627C14.1331 19.0806 14.1054 19.1065 14.0851 19.138C14.0648 19.1695 14.0526 19.2057 14.0496 19.2431C14.0466 19.2806 14.0529 19.3182 14.0679 19.3525L17.9156 28.1401L16.5465 31.2346C16.5305 31.2685 16.5233 31.3061 16.5256 31.3436C16.5279 31.3812 16.5397 31.4175 16.5597 31.4492C16.5798 31.4809 16.6075 31.507 16.6403 31.525C16.673 31.5429 16.7098 31.5522 16.7471 31.5519H18.7142C18.758 31.5515 18.8008 31.5381 18.8371 31.5134C18.8735 31.4887 18.9019 31.4539 18.9188 31.4131L24.2615 19.3684C24.2773 19.3333 24.2841 19.2947 24.2813 19.2563C24.2785 19.2178 24.2661 19.1807 24.2454 19.1483C24.2246 19.1159 24.1961 19.0893 24.1625 19.0709C24.1289 19.0525 24.0912 19.043 24.053 19.0431Z" fill="white"/>
</g>
</g>
<defs>
<clipPath id="clip0_2754_46453">
<rect width="115.473" height="31.6364" fill="white"/>
</clipPath>
<clipPath id="clip1_2754_46453">
<rect width="115.359" height="31.5518" fill="white"/>
</clipPath>
</defs>
</svg>
