<svg width="24" height="24" viewBox="0 0 24 24" fill="none" xmlns="http://www.w3.org/2000/svg">
<mask id="mask0_2916_47908" style="mask-type:alpha" maskUnits="userSpaceOnUse" x="4" y="5" width="16" height="14">
<path d="M13.6364 5.3636C13.2849 5.01213 12.7151 5.01213 12.3636 5.3636C12.0121 5.71508 12.0121 6.28492 12.3636 6.6364L13.6364 5.3636ZM18.2929 11.2929L17.6565 11.9293L17.6565 11.9293L18.2929 11.2929ZM18.2929 12.7071L17.6565 12.0707L17.6565 12.0707L18.2929 12.7071ZM12.3636 17.3636C12.0121 17.7151 12.0121 18.2849 12.3636 18.6364C12.7151 18.9879 13.2849 18.9879 13.6364 18.6364L12.3636 17.3636ZM18 12.9C18.4971 12.9 18.9 12.4971 18.9 12C18.9 11.5029 18.4971 11.1 18 11.1V12.9ZM5 11.1C4.50294 11.1 4.1 11.5029 4.1 12C4.1 12.4971 4.50294 12.9 5 12.9L5 11.1ZM12.3636 6.6364L17.6565 11.9293L18.9293 10.6565L13.6364 5.3636L12.3636 6.6364ZM17.6565 12.0707L12.3636 17.3636L13.6364 18.6364L18.9293 13.3435L17.6565 12.0707ZM17.6565 11.9293C17.6955 11.9683 17.6955 12.0317 17.6565 12.0707L18.9293 13.3435C19.6713 12.6015 19.6713 11.3985 18.9293 10.6565L17.6565 11.9293ZM18 11.1L5 11.1L5 12.9L18 12.9V11.1Z" fill="#09101D"/>
</mask>
<g mask="url(#mask0_2916_47908)">
<rect width="24" height="24" fill="white"/>
</g>
</svg>
