<svg width="344" height="145" viewBox="0 0 344 145" fill="none" xmlns="http://www.w3.org/2000/svg">
<path d="M23.0273 56.216C32.6913 56.216 43.0593 51.48 42.8673 40.472C42.6113 21.272 8.37126 28.184 8.75526 13.976C8.94726 7.192 15.9873 4.376 21.8753 4.376C26.4193 4.376 34.9953 6.424 34.9953 12.248C34.9953 15.192 32.8193 17.752 30.7073 19.544L31.4113 20.312C33.6513 18.84 39.0913 14.808 39.0913 11.928C39.0913 10.776 38.3233 9.752 37.6193 8.92C33.7793 4.76 26.9313 3.16 21.4273 3.16C13.5553 3.16 4.08326 6.744 4.08326 16.024C4.08326 32.664 38.0673 25.24 37.7473 42.264C37.6193 50.776 29.3633 55.064 21.8113 55.064C14.6433 55.064 4.97926 50.776 4.97926 42.456C4.97926 37.912 7.98726 34.456 11.3793 31.832L10.6113 30.808C6.32326 33.304 0.755256 37.528 0.755256 43.032C0.755256 52.632 12.9153 56.216 23.0273 56.216ZM77.3248 3.672L70.7968 10.904L71.5008 11.544L79.6928 7.064L79.8208 6.36L77.3248 3.672ZM65.2288 22.168C54.7968 22.168 47.8208 28.888 47.8208 38.872C47.8208 48.92 54.7968 55.64 65.2288 55.64C75.7248 55.64 82.7008 48.92 82.7008 38.872C82.7008 28.888 75.7248 22.168 65.2288 22.168ZM65.2288 54.808C58.1888 54.808 53.0048 48.408 53.0048 38.872C53.0048 29.4 58.1888 23 65.2288 23C72.3328 23 77.5168 29.4 77.5168 38.872C77.5168 48.408 72.3328 54.808 65.2288 54.808ZM65.2288 33.304C64.9728 36.248 62.6688 38.616 59.7248 38.872C62.6688 39.192 64.9728 41.56 65.2288 44.504C65.5488 41.56 67.8528 39.192 70.7968 38.872C67.8528 38.616 65.5488 36.248 65.2288 33.304ZM59.5968 18.264L64.9728 11.992L68.0448 18.264H72.3968L66.8288 10.904H64.0128L58.3808 18.264H59.5968ZM140.276 43.224C137.46 49.432 130.1 54.232 123.252 54.232C114.548 54.232 110.196 47.704 110.196 39.576C110.196 32.472 113.908 23.512 122.292 23.512C126.9 23.512 130.548 26.968 130.548 31.576C130.548 33.112 128.82 34.072 127.476 34.328L127.732 35.224C130.484 34.712 135.028 33.688 135.028 30.168C135.092 24.856 127.284 22.424 122.484 22.424C111.988 22.424 104.692 28.312 104.692 39.064C104.692 48.984 112.308 55.64 121.972 55.64C130.036 55.64 137.972 51.16 141.236 43.544L140.276 43.224ZM170.3 55L170.236 38.616C170.236 31.704 170.108 22.232 160.892 22.232C152.636 22.232 148.668 30.104 146.684 38.808V11.544C146.876 1.688 139.196 0.0239983 134.268 0.215996L133.884 3.48C135.676 2.136 137.084 1.624 138.236 1.752C140.732 2.008 141.564 5.528 141.436 10.52V55H146.684V48.792C146.876 39.64 150.652 24.344 158.46 24.344C165.564 24.344 165.18 36.632 165.116 41.368L164.988 55H170.3ZM192.972 13.848C192.204 13.336 191.884 12.76 191.82 11.992C191.82 10.392 192.524 9.496 193.804 9.432C195.276 9.368 195.788 10.776 195.788 11.48C195.724 13.976 194.508 15.32 191.628 17.304L192.332 17.752C193.484 16.984 198.348 15.192 198.348 11.736C198.348 9.88 196.748 8.6 194.252 8.6C192.012 8.6 189.58 9.752 189.836 12.056C189.964 13.016 191.116 13.976 192.588 14.552L192.972 13.848ZM200.204 55.064H205.388V23H200.14V29.72C199.884 38.936 195.852 53.848 188.876 53.848C181.772 53.848 181.964 41.368 181.964 36.632V23H176.78V39.448C176.844 46.168 176.716 55.768 185.804 55.832C194.38 55.832 198.284 47.768 200.204 38.936V55.064ZM241.17 13.656H253.394L253.586 24.024C251.538 22.936 249.042 22.488 246.674 22.424C235.41 22.168 228.626 30.424 228.498 41.304C228.434 48.728 234.322 55.384 241.554 55.384C249.234 55.448 252.434 50.776 253.97 45.848L254.098 55H259.346C259.346 54.936 258.706 22.296 258.578 13.656H262.546V11.992H258.514V11.544C258.77 1.688 251.09 0.0239983 246.162 0.215996L245.714 3.48C247.378 2.264 248.722 1.752 249.81 1.752C252.498 1.752 253.394 5.336 253.33 10.52V11.992H241.17V13.656ZM253.842 40.664C253.074 45.848 250.386 54.296 242.45 54.296C235.794 54.36 234.002 46.616 234.002 40.92C234.002 32.664 238.866 23.128 247.058 23.448C250.194 23.576 252.562 25.496 253.65 28.376L253.842 40.664ZM279.956 58.584C279.636 61.528 277.332 63.896 274.388 64.216C277.332 64.472 279.636 66.84 279.956 69.784C280.212 66.84 282.516 64.472 285.46 64.216C282.516 63.896 280.212 61.528 279.956 58.584ZM269.332 27.16L272.788 31.256C275.86 27.096 280.084 24.28 285.396 24.28C288.852 24.28 292.436 26.072 292.436 29.848C292.436 33.88 288.276 34.584 285.14 34.84C277.716 35.416 264.468 35.608 264.468 45.976C264.468 52.312 270.292 55.704 276.116 55.704C282.516 55.704 286.42 52.568 288.468 47.768V55.064H293.652V29.592C293.652 23.96 288.084 22.232 283.412 22.232C278.036 22.232 273.556 23.896 269.332 27.16ZM288.468 44.056C286.996 49.432 283.988 54.104 277.588 54.104C272.916 54.104 269.908 50.648 269.908 46.04C269.908 40.024 274.324 37.208 279.764 36.504C282.196 36.184 285.588 36.248 288.404 35.544L288.468 44.056ZM316.344 22.168C305.912 22.168 298.936 28.888 298.936 38.936C298.936 48.92 305.912 55.64 316.344 55.64C326.84 55.64 333.816 48.92 333.816 38.936C333.816 28.888 326.84 22.168 316.344 22.168ZM316.344 54.808C309.304 54.808 304.12 48.408 304.12 38.936C304.12 29.4 309.304 23 316.344 23C323.448 23 328.632 29.4 328.632 38.936C328.632 48.408 323.448 54.808 316.344 54.808ZM316.344 33.304C316.088 36.248 313.784 38.616 310.84 38.936C313.784 39.192 316.088 41.56 316.344 44.504C316.6 41.56 318.968 39.192 321.912 38.936C318.968 38.616 316.6 36.248 316.344 33.304ZM338.414 52.312C338.414 53.912 339.502 55 341.102 55C342.766 55 343.918 53.912 343.918 52.312C343.918 50.648 342.766 49.56 341.102 49.56C339.502 49.56 338.414 50.648 338.414 52.312ZM338.414 25.752C338.414 27.352 339.502 28.44 341.102 28.44C342.766 28.44 343.918 27.352 343.918 25.752C343.918 24.088 342.766 23 341.102 23C339.502 23 338.414 24.088 338.414 25.752ZM161.666 114.36L151.234 129.592C156.674 136.376 163.394 140.152 172.226 140.152C181.634 140.152 193.282 135.736 193.282 124.728C193.282 117.432 187.522 112.568 181.058 111.16V110.456C186.178 108.92 190.146 105.144 190.146 99.448C190.146 90.872 181.698 87.288 173.378 87.672C165.954 87.992 158.786 91 154.37 96.696L157.186 98.744C164.674 85.304 184.898 85.816 184.898 99.128C184.898 110.328 174.21 111.736 166.082 109.688V113.08C175.362 109.688 187.202 112.824 187.266 124.92C187.33 144.44 157.25 142.264 157.122 126.648C157.058 122.424 160.322 118.328 162.498 114.936L161.666 114.36Z" fill="white"/>
</svg>
