<svg width="372" height="104" viewBox="0 0 372 104" fill="none" xmlns="http://www.w3.org/2000/svg">
<path d="M89.2495 8.615H90.1845C92.5645 8.615 94.8595 8.87 97.1545 9.465C98.0895 9.72 99.0245 10.06 99.7895 10.57C100.64 11.08 100.98 11.675 100.98 12.355C100.98 12.695 100.895 13.035 100.81 13.46C100.555 14.055 100.215 14.65 99.8745 15.16C99.0245 16.35 98.1745 17.455 97.0695 18.39C95.1145 20.175 92.9895 21.79 90.7795 23.32C81.4295 29.61 71.3145 34.455 60.7745 38.45C55.4195 40.405 50.0645 42.19 44.2845 42.36C44.0295 42.36 43.6895 42.36 43.6045 42.7C43.6045 43.04 43.7745 43.21 43.9445 43.38C44.3695 43.635 44.7945 43.805 45.2195 43.805C46.0695 43.805 47.0045 43.805 47.8545 43.635C51.5095 43.21 55.0795 42.275 58.5645 41.085C67.5745 38.025 76.1595 34.115 84.4045 29.525C88.7395 27.06 92.9895 24.51 96.8995 21.28C98.5145 19.92 100.13 18.39 101.405 16.605C102.255 15.415 102.595 14.055 102.595 12.865C102.595 10.485 101.235 8.36 98.9395 7.33999C97.7495 6.745 96.4745 6.32 95.1995 6.065C93.0745 5.64 90.9495 5.555 88.8245 5.555C86.6995 5.555 84.5745 5.64 82.4495 5.895C75.0545 6.745 67.8295 8.52999 60.7745 10.825C50.8295 13.97 41.3095 18.135 32.0445 23.065C24.9045 26.89 18.0195 31.14 11.7295 36.155C9.00951 38.28 6.45951 40.49 4.24951 43.125C3.05951 44.485 1.95451 45.93 1.18951 47.63C0.764512 48.65 0.594512 49.585 0.594512 50.435C0.594512 51.965 1.27451 53.41 2.71951 54.77C4.33451 56.385 6.37451 57.235 8.49951 57.915C11.8145 58.935 15.2145 59.53 18.6145 60.04C25.4145 61.06 32.2145 61.825 38.9295 63.015C43.0095 63.695 47.0895 64.545 51.0845 65.905C52.4445 66.5 53.8045 67.095 55.0795 68.03C56.0995 68.795 56.5245 69.56 56.5245 70.495C56.5245 71.09 56.3545 71.685 56.0145 72.45C55.4195 73.555 54.5695 74.49 53.6345 75.425C51.1695 77.635 48.3645 79.335 45.4745 80.95C40.5445 83.67 35.2745 85.795 30.0045 87.58C24.8195 89.28 19.6345 90.725 14.2795 91.49C13.2595 91.66 12.3245 91.66 11.3045 91.66C10.5395 91.66 9.68951 91.66 8.92451 91.575C8.07451 91.49 7.64951 91.15 7.64951 90.64C7.64951 90.3 7.73451 89.96 8.07451 89.535C8.32951 89.195 8.58451 88.94 8.83951 88.685C9.68951 87.835 10.7095 87.24 11.7295 86.73C14.3645 85.285 17.1695 84.095 19.9745 83.16C25.9245 81.12 31.7045 78.91 38.0795 78.91C38.4195 78.91 38.7595 78.91 38.7595 78.485V78.4C38.7595 78.145 38.5045 77.975 38.2495 77.805C37.6545 77.55 36.9745 77.465 36.3795 77.465C36.0395 77.465 35.7845 77.55 35.4445 77.55C34.0845 77.72 32.7245 77.89 31.3645 78.145C24.7345 79.42 18.3595 81.63 12.1545 84.18C10.7095 84.775 9.34951 85.37 8.15951 86.305C7.22451 86.9 6.45951 87.665 5.94951 88.6C5.77951 89.025 5.60951 89.45 5.60951 89.875C5.60951 90.47 5.86451 91.065 6.28951 91.575C7.13951 92.68 8.32951 93.105 9.60451 93.36C10.4545 93.53 11.3045 93.615 12.0695 93.615C14.0245 93.615 15.9795 93.275 17.8495 92.935C25.7545 91.49 33.3195 89.11 40.7145 86.05C45.1345 84.265 49.2995 82.225 53.2095 79.505C54.9945 78.23 56.6095 76.785 57.7995 74.915C58.4795 73.81 58.8195 72.79 58.8195 71.685C58.8195 70.75 58.5645 69.73 57.9695 68.795C56.9495 67.095 55.5045 65.82 53.8045 64.97C50.9145 63.44 47.7695 62.505 44.6245 61.825C36.4645 59.955 28.2195 59.02 19.9745 57.745C16.2345 57.235 12.4945 56.64 8.83951 55.705C7.47951 55.28 6.11951 54.855 4.84451 54.175C3.65451 53.495 3.14451 52.56 3.14451 51.37C3.14451 51.115 3.14451 50.775 3.22951 50.435C3.39951 49.5 3.82451 48.565 4.24951 47.715C5.26951 45.93 6.62951 44.4 8.07451 42.955C11.4745 39.47 15.2995 36.58 19.2945 33.86C26.6895 28.845 34.4245 24.595 42.5845 20.94C51.9345 16.605 61.6245 13.12 71.7395 10.825C77.4345 9.55 83.2995 8.615 89.2495 8.615ZM82.1905 36.835C82.7855 36.75 83.2955 36.58 83.8055 36.325C85.9305 35.135 88.1405 33.945 90.1805 32.5C90.4355 32.33 90.6905 32.075 90.9455 31.82C91.2005 31.565 91.2855 31.31 91.2855 31.14C91.2855 30.885 91.2005 30.63 90.8605 30.375C90.5205 30.035 90.1805 29.865 89.8405 29.865C89.5855 29.865 89.3305 29.95 88.9905 30.12C88.4805 30.46 87.9705 30.715 87.4605 30.97C85.0805 32.075 82.7005 33.095 80.1505 33.775C79.4705 33.945 79.1305 34.2 79.1305 34.625C79.1305 34.88 79.3005 35.135 79.6405 35.475C80.3205 36.24 81.1705 36.75 82.1905 36.835ZM61.9605 60.295C62.0455 60.21 62.2155 60.21 62.3005 60.21C62.6405 60.125 63.0655 60.125 63.3205 59.955C67.7405 58.425 71.4805 56.045 74.2005 52.22C74.7105 51.625 75.1355 51.285 75.9855 51.2C79.0455 51.115 82.1055 50.86 85.2505 50.69L88.0555 50.435C88.3955 50.435 88.7355 50.435 88.7355 50.01V49.925C88.7355 49.5 88.3955 49.33 87.9705 49.33H87.6305C86.3555 49.33 84.9955 49.33 83.7205 49.415C81.2555 49.67 78.7055 49.5 76.1555 49.755H75.9005C75.5605 49.755 75.3055 49.585 75.1355 48.99C74.7955 47.035 73.7755 46.185 71.9905 46.185C71.6505 46.185 71.3105 46.185 70.9705 46.27C70.8005 46.27 70.5455 46.355 70.3755 46.355C70.1205 46.355 69.9505 46.27 69.6955 46.185C69.2705 45.845 68.9305 45.675 68.5055 45.675C67.9105 45.675 67.3155 46.1 66.7205 46.61C64.1705 48.82 61.9605 51.37 60.3455 54.345C59.8355 55.195 59.4105 56.13 59.2405 57.15V57.575C59.2405 59.105 60.4305 60.295 61.9605 60.295ZM72.3305 51.37V51.54C72.3305 51.965 72.1605 52.05 71.9055 52.305C69.4405 55.195 66.2105 57.15 62.6405 58.34C62.3855 58.425 62.0455 58.595 61.7905 58.595C61.6205 58.595 61.4505 58.51 61.3655 58.425C61.1955 58.255 61.1955 58.17 61.1955 58C61.1955 57.745 61.4505 57.405 61.5355 57.15C62.3855 55.45 63.5755 54.005 64.8505 52.645C65.6155 51.71 66.5505 50.86 67.4005 50.01C67.5705 49.84 67.7405 49.67 67.9955 49.67C68.0805 49.67 68.2505 49.67 68.3355 49.84C69.3555 50.945 70.7155 51.115 72.0755 51.285C72.1605 51.285 72.2455 51.37 72.3305 51.37ZM72.2455 49.755V49.84C71.4805 49.755 70.7155 49.67 70.0355 49.5C69.6955 49.415 69.5255 49.245 69.5255 49.075C69.5255 48.905 69.6105 48.82 69.7805 48.65C70.4605 47.97 71.3105 47.8 72.2455 47.8H72.7555C73.3505 47.885 73.6905 48.14 73.6905 48.735C73.6905 49.33 73.3505 49.67 72.7555 49.755H72.2455ZM74.0305 35.645C73.2655 35.645 72.6705 36.07 72.0755 36.495C70.4605 37.77 68.8455 39.13 67.3155 40.575C67.1455 40.745 66.9755 40.915 66.8055 41.17C66.7205 41.255 66.6355 41.425 66.6355 41.595C66.6355 41.765 66.7205 41.935 66.8055 42.105C67.1455 42.615 67.6555 42.87 68.2505 42.87C68.4205 42.87 68.6755 42.785 68.9305 42.7C69.3555 42.445 69.7805 42.105 70.2055 41.85C71.4805 40.915 72.5855 39.895 73.8605 39.13C74.3705 38.79 74.7105 38.62 74.9655 38.62C75.3055 38.62 75.5605 38.875 76.0705 39.385C77.2605 40.49 78.3655 41.595 79.5555 42.615C79.8105 42.87 80.0655 43.21 80.4055 43.21C80.4905 43.21 80.6605 43.125 80.7455 43.04C80.9155 42.87 81.0005 42.785 81.0005 42.615C81.0005 42.36 80.6605 42.105 80.4905 41.85C79.4705 40.575 78.4505 39.3 77.3455 38.025C76.8355 37.43 76.2405 36.835 75.7305 36.325C75.2205 35.9 74.6255 35.645 74.0305 35.645ZM95.9957 66.245C96.1657 66.075 96.3357 65.82 96.5057 65.65C100.416 61.57 104.411 57.575 108.406 53.665C110.616 51.54 112.741 49.415 114.866 47.205C115.461 46.61 115.971 46.015 116.481 45.335C116.566 45.165 116.651 44.91 116.651 44.74C116.651 44.315 116.481 43.975 116.056 43.635C115.801 43.465 115.546 43.295 115.291 43.295C115.036 43.295 114.866 43.38 114.611 43.55C114.186 43.975 113.761 44.315 113.336 44.655C108.661 49.075 104.156 53.58 99.7357 58.255C93.2757 64.97 87.2407 72.025 81.2907 79.25C77.9757 83.245 74.7457 87.41 71.1757 91.235C68.4557 94.04 65.9057 97.015 63.5257 100.075C63.1007 100.585 62.7607 101.095 62.4207 101.605C62.3357 101.775 62.2507 102.03 62.2507 102.2C62.2507 102.37 62.3357 102.54 62.5057 102.71C62.7607 102.965 63.1007 103.135 63.4407 103.135C63.5257 103.135 63.6957 103.135 63.8657 103.05C64.2907 102.88 64.5457 102.54 64.8857 102.2C68.5407 98.12 72.0257 93.785 75.5107 89.62C79.5907 84.86 83.5007 79.93 88.1757 75.68C91.9157 72.195 95.6557 68.71 99.6507 65.395C105.346 60.72 111.211 56.3 117.586 52.56C120.391 50.86 123.281 49.415 126.341 48.31C127.701 47.8 129.231 47.375 130.761 47.375C131.271 47.375 131.526 47.545 131.526 47.8C131.526 47.97 131.526 48.14 131.356 48.395C130.081 50.435 128.721 52.39 126.086 53.155C121.326 54.345 116.906 56.47 112.911 59.36C112.401 59.785 111.891 60.21 111.466 60.72C111.296 61.06 111.211 61.4 111.211 61.74C111.211 62.25 111.466 62.675 112.061 63.015C112.401 63.185 112.741 63.27 113.081 63.27C113.251 63.27 113.421 63.27 113.591 63.185C114.611 63.015 115.631 62.675 116.651 62.25C121.241 60.295 125.491 57.745 129.231 54.43C129.911 53.835 130.506 53.495 131.356 53.325C135.266 52.305 139.176 51.37 143.171 50.775L144.191 50.52C144.446 50.435 144.701 50.265 144.701 49.925C144.616 49.67 144.446 49.5 144.106 49.415H143.766C143.596 49.415 143.341 49.415 143.086 49.5C140.111 49.84 137.221 50.435 134.331 51.115C133.821 51.2 133.311 51.455 132.716 51.455C132.546 51.455 132.461 51.37 132.291 51.37C132.376 50.86 132.716 50.435 132.971 50.01C133.226 49.5 133.396 48.905 133.396 48.395C133.396 47.715 133.141 47.12 132.716 46.525C132.036 45.76 131.271 45.42 130.336 45.42C130.081 45.42 129.826 45.505 129.571 45.505C126.596 46.015 123.961 47.29 121.326 48.65C116.481 51.115 111.976 54.175 107.556 57.32C103.646 60.21 99.8207 63.27 95.9957 66.245ZM123.281 56.045C120.561 58.17 117.586 59.785 114.271 60.89C116.991 58.765 120.051 57.235 123.281 56.045ZM155.523 55.45C156.203 54.43 156.798 53.75 157.478 53.07L162.153 48.395C162.663 47.885 163.088 47.29 163.598 46.78C163.853 46.355 164.023 45.93 164.023 45.505C164.023 45.25 163.938 44.995 163.768 44.655C163.343 44.145 162.833 43.805 162.238 43.805C162.153 43.805 161.983 43.89 161.813 43.89C161.388 43.975 160.963 44.06 160.538 44.23C159.178 44.655 157.903 45.25 156.543 45.845C152.293 47.885 148.298 50.265 144.218 52.645C143.708 52.9 143.283 53.325 142.688 53.325V53.155C142.688 52.73 142.943 52.56 143.198 52.305C146.088 48.82 149.233 45.59 152.378 42.36C152.803 41.935 153.313 41.68 153.908 41.51C156.458 40.745 158.923 39.555 161.388 38.365C168.018 34.965 174.308 30.97 180.428 26.635C186.463 22.385 192.158 17.795 197.258 12.44C198.363 11.25 199.383 10.06 200.318 8.7C200.658 8.10499 200.998 7.51 201.168 6.745V6.32C201.168 4.95999 200.233 3.94 198.873 3.855H198.363C197.853 3.855 197.428 3.94 197.003 4.025C195.813 4.365 194.623 4.875 193.518 5.38499C188.928 7.595 184.763 10.4 180.683 13.46C172.778 19.325 165.468 25.955 158.413 32.84C154.163 36.92 150.168 41.255 146.173 45.59C144.388 47.545 142.688 49.415 141.073 51.455C140.648 52.135 140.138 52.815 139.713 53.58C139.628 53.835 139.543 54.09 139.543 54.345C139.543 54.685 139.628 55.025 139.883 55.28C140.223 55.705 140.648 55.875 141.158 55.875C141.328 55.875 141.583 55.875 141.753 55.79C142.348 55.62 142.858 55.365 143.453 55.025C145.748 53.75 148.043 52.39 150.338 51.115C153.483 49.33 156.713 47.63 160.028 46.27C160.283 46.185 160.538 46.1 160.878 46.1C160.963 46.1 161.133 46.1 161.303 46.185C159.518 48.14 157.648 49.84 155.778 51.625C155.098 52.305 154.503 53.155 153.993 54.005C153.738 54.345 153.653 54.77 153.653 55.11C153.653 55.45 153.738 55.875 153.993 56.215C154.503 56.81 155.013 57.235 155.778 57.235C155.863 57.235 156.033 57.15 156.203 57.15C157.223 56.98 158.243 56.725 159.178 56.385C162.918 55.11 166.573 53.92 170.313 52.645C171.843 52.135 173.373 51.71 174.818 51.2C175.413 51.03 175.923 50.775 176.433 50.52C176.688 50.35 176.943 50.265 176.943 50.01C176.943 49.925 176.858 49.84 176.858 49.755C176.688 49.5 176.518 49.415 176.263 49.415H176.008C175.838 49.415 175.753 49.5 175.583 49.5C170.568 51.115 165.553 52.645 160.453 54.175C158.923 54.685 157.393 55.195 155.523 55.45ZM156.118 38.875C157.393 37.515 158.753 36.07 160.113 34.795C164.788 30.375 169.463 26.04 174.478 21.875C180.598 16.86 186.803 12.1 193.773 8.275C195.303 7.33999 196.918 6.57499 198.618 6.14999C198.788 6.065 198.958 5.98 199.128 5.98C199.213 5.98 199.298 6.065 199.468 6.14999C199.468 6.83 199.043 7.425 198.618 8.02C197.683 9.55 196.408 10.91 195.218 12.185C190.628 17.115 185.528 21.365 180.088 25.19C173.713 29.695 166.998 33.69 160.113 37.26C158.838 37.94 157.563 38.535 156.118 38.875ZM208.634 49.33C208.634 49.84 208.294 50.095 208.124 50.35C207.359 51.37 206.849 52.475 207.529 53.665C208.209 54.94 209.399 55.195 210.759 55.195C211.779 55.11 212.714 54.94 213.734 54.685C219.344 53.495 224.954 52.22 230.479 51.03C230.904 50.945 231.414 50.86 231.839 50.775C232.094 50.69 232.264 50.52 232.264 50.18C232.264 49.925 232.094 49.67 231.839 49.585C231.499 49.415 231.244 49.5 230.904 49.5C229.799 49.755 228.609 49.925 227.504 50.095C222.914 50.945 218.239 51.88 213.649 52.73C212.374 52.985 211.099 53.24 209.824 53.155C209.144 53.07 209.059 52.9 209.399 52.305C209.909 51.455 210.589 50.69 211.354 49.925C211.779 49.585 212.204 49.16 212.544 48.735C212.969 48.14 212.799 47.545 212.459 46.95C212.119 46.44 211.524 46.44 211.014 46.61C210.674 46.695 210.249 46.865 209.909 46.95C205.829 48.48 201.749 50.095 197.839 51.965C196.819 52.39 195.799 52.9 194.694 53.325C194.949 52.815 195.374 52.39 195.714 52.05C197.074 50.945 198.519 49.84 199.879 48.735C200.559 48.225 201.154 47.63 201.749 47.035C202.174 46.61 202.429 46.1 202.259 45.505C201.919 44.485 201.494 44.06 200.389 44.06C198.604 44.145 196.904 44.57 195.119 44.74C191.549 45.08 187.894 45.505 184.324 45.93C183.729 46.015 183.134 46.1 182.624 45.76C181.264 45.08 180.074 45.42 178.884 46.1C176.759 47.375 174.889 48.99 173.444 51.03C173.104 51.455 172.849 51.965 172.679 52.475C172.254 53.41 172.509 54.26 173.274 55.025C174.124 55.875 175.059 55.875 176.079 55.535C178.629 54.685 181.009 53.41 183.049 51.625C183.219 51.455 183.389 51.285 183.559 51.115C184.324 50.265 184.749 49.33 184.409 48.14C184.154 47.545 184.494 47.46 185.004 47.375C189.169 46.95 193.334 46.525 197.414 46.1C197.754 46.1 198.094 46.015 198.519 46.27C198.009 46.695 197.584 47.035 197.159 47.375C195.204 48.99 193.249 50.69 191.634 52.645C191.209 53.155 190.869 53.58 190.699 54.09C190.444 54.77 190.444 55.365 190.954 55.875C191.379 56.385 191.974 56.47 192.654 56.215C193.504 55.875 194.354 55.535 195.204 55.11C198.944 53.24 202.769 51.455 206.764 50.01C207.359 49.755 207.954 49.585 208.634 49.33ZM175.229 53.495C175.229 53.07 175.484 52.9 175.739 52.645C177.269 50.945 179.054 49.5 181.009 48.48C181.264 48.31 181.519 48.225 181.774 48.14C182.199 47.885 182.454 48.225 182.794 48.48C183.049 48.82 182.964 49.16 182.709 49.5C182.114 50.18 181.434 50.775 180.584 51.285C179.224 52.22 177.779 52.985 176.249 53.495C175.909 53.58 175.569 53.835 175.229 53.495ZM243.434 47.63C243.519 47.715 243.519 47.885 243.519 47.97C243.519 48.14 243.349 48.31 243.264 48.395C241.224 51.2 239.269 54.005 237.229 56.81C236.804 57.405 236.209 57.745 235.529 58.085C224.989 62.93 215.044 68.88 206.034 76.19C200.764 80.525 196.089 85.37 192.094 90.81C190.564 92.935 189.204 95.06 188.269 97.525C187.929 98.375 187.759 99.31 187.674 100.245C187.674 102.03 188.864 103.39 190.734 103.475H191.074C191.839 103.475 192.519 103.305 193.284 103.05C194.644 102.54 195.834 101.86 196.939 101.18C201.869 98.035 206.204 94.295 210.454 90.3C214.534 86.39 218.529 82.395 222.439 78.145C228.049 72.025 233.404 65.65 238.504 59.02C239.099 58.17 239.779 57.575 240.714 57.15C246.494 54.685 252.189 51.965 258.394 50.52C258.564 50.435 258.819 50.35 258.819 50.095C258.819 49.755 258.649 49.585 258.394 49.5H257.459C256.524 49.67 255.674 49.925 254.824 50.18C250.659 51.625 246.494 53.325 242.414 55.025C242.244 55.11 241.989 55.28 241.734 55.28C241.649 55.28 241.564 55.195 241.479 55.195C241.479 54.855 241.734 54.6 241.904 54.43C243.349 52.305 244.794 50.265 246.154 48.055C246.409 47.63 246.664 47.12 246.919 46.525C247.004 46.355 247.004 46.185 247.004 46.015C247.004 45.59 246.834 45.165 246.494 44.825C246.239 44.57 245.984 44.485 245.729 44.485C245.474 44.485 245.219 44.57 244.964 44.655C244.369 44.91 243.859 45.165 243.264 45.505C242.329 46.1 241.309 46.695 240.374 47.375C240.119 47.46 239.949 47.545 239.779 47.545C239.524 47.545 239.354 47.46 239.099 47.205C238.419 46.44 237.654 46.185 236.804 46.185C236.294 46.185 235.784 46.27 235.274 46.44C232.384 47.46 230.089 49.245 228.304 51.795C228.049 52.135 227.879 52.475 227.709 52.985C227.624 53.24 227.624 53.41 227.624 53.665C227.624 54.77 228.389 55.62 229.579 55.62C229.749 55.62 229.919 55.62 230.174 55.535C230.769 55.45 231.279 55.11 231.874 54.855C234.849 53.155 237.739 51.37 240.544 49.5C241.479 48.82 242.414 48.225 243.434 47.63ZM234.254 60.21C232.979 62.42 231.279 64.46 229.664 66.415C222.694 74.915 215.384 83.075 207.394 90.555C203.739 94.04 199.999 97.355 195.664 99.99C194.559 100.67 193.369 101.265 192.094 101.775C191.669 101.945 191.074 102.115 190.564 102.115C190.224 102.115 189.884 102.03 189.629 101.775C189.289 101.435 189.204 101.095 189.204 100.755C189.204 100.245 189.374 99.735 189.459 99.31C190.054 97.185 191.159 95.315 192.349 93.445C195.324 88.855 199.064 84.775 203.059 80.95C209.349 74.915 216.574 70.07 224.054 65.65C227.199 63.865 230.344 62.08 233.574 60.55C233.829 60.38 234.084 60.295 234.254 60.21ZM237.739 48.565H238.079C237.144 49.67 231.704 53.07 230.004 53.58C231.109 51.37 235.529 48.565 237.739 48.565ZM300.332 22.555C299.737 23.235 299.312 23.83 298.802 24.34C294.807 28.675 291.067 33.18 287.412 37.77C281.632 45.08 276.022 52.56 270.497 60.04C265.482 67.01 260.467 73.98 255.877 81.29C254.347 83.67 252.902 85.965 251.882 88.515C251.712 88.94 251.542 89.365 251.542 89.875V90.13C251.627 90.555 251.797 90.895 252.307 90.895C252.732 90.895 252.817 90.555 252.902 90.215C253.242 88.6 254.092 87.24 254.942 85.795C256.897 82.395 259.022 79.165 261.317 75.935C269.902 63.525 279.082 51.455 288.687 39.725C293.447 34.03 298.377 28.42 303.647 23.15C304.327 22.47 305.007 22.045 305.942 21.96C308.662 21.79 311.467 21.705 314.187 21.705C318.267 21.62 322.432 21.535 326.512 21.535C333.482 21.535 340.367 21.705 347.337 22.385C349.547 22.64 351.757 22.895 353.967 23.49C354.477 23.66 355.072 23.66 355.327 24.17C354.052 25.275 352.692 25.87 351.247 26.38C347.337 27.91 343.257 28.76 339.177 29.695C338.157 29.95 337.137 30.205 336.202 30.46C335.777 30.545 335.437 30.715 335.437 31.14V31.225C335.522 31.65 335.777 31.735 336.117 31.735C336.202 31.735 336.372 31.65 336.542 31.65C336.712 31.65 336.967 31.565 337.137 31.48C338.497 31.225 339.857 30.885 341.217 30.63C345.042 29.78 348.952 28.93 352.607 27.4C353.712 26.975 354.817 26.465 355.752 25.785C356.432 25.19 356.857 24.595 356.857 24C356.857 23.235 356.262 22.555 355.242 22.215C353.967 21.705 352.607 21.45 351.247 21.195C346.402 20.43 341.557 20.175 336.712 19.92C331.867 19.75 327.022 19.58 322.177 19.58C320.307 19.58 318.437 19.58 316.567 19.665C315.972 19.665 315.377 19.75 314.697 19.75H309.087C309.087 19.58 309.257 19.495 309.427 19.41C312.657 17.625 315.632 15.5 318.522 13.205C321.582 10.825 324.472 8.36 327.107 5.555C327.617 4.95999 328.212 4.365 328.552 3.6C328.722 3.26 328.807 3.00499 328.807 2.75C328.807 2.23999 328.552 1.81499 328.212 1.39C327.872 0.964996 327.447 0.794998 327.022 0.794998C326.767 0.794998 326.597 0.794998 326.342 0.879997C325.407 1.22 324.557 1.56 323.792 2.07C319.117 4.875 314.952 8.36 310.957 12.015C308.407 14.31 305.942 16.775 303.477 19.24C302.967 19.835 302.372 20.175 301.522 20.175C298.207 20.43 294.807 20.685 291.492 20.94C286.987 21.195 282.567 21.62 278.062 22.045C272.537 22.64 267.012 23.32 261.487 24.085C253.667 25.105 245.847 26.295 238.112 28.165C234.542 29.1 230.972 29.95 227.572 31.31C226.977 31.48 226.467 31.735 226.042 32.075C225.702 32.33 225.532 32.755 225.532 33.095C225.532 33.605 225.787 34.115 226.297 34.285C226.382 34.37 226.467 34.37 226.552 34.37C226.722 34.37 226.807 34.285 226.892 34.2C227.402 33.35 228.252 33.265 229.102 33.01C235.307 31.055 241.682 29.78 248.142 28.505C254.092 27.4 260.212 26.465 266.247 25.7C271.007 25.02 275.852 24.425 280.612 24C283.672 23.66 286.647 23.405 289.622 23.15C292.682 22.81 295.742 22.64 298.802 22.385H299.312C299.567 22.385 299.907 22.385 300.332 22.555ZM324.132 5.3C319.882 9.805 315.207 13.715 310.022 17.03C314.442 12.78 319.032 8.7 324.132 5.3ZM300.87 55.45C301.55 54.43 302.145 53.75 302.825 53.07L307.5 48.395C308.01 47.885 308.435 47.29 308.945 46.78C309.2 46.355 309.37 45.93 309.37 45.505C309.37 45.25 309.285 44.995 309.115 44.655C308.69 44.145 308.18 43.805 307.585 43.805C307.5 43.805 307.33 43.89 307.16 43.89C306.735 43.975 306.31 44.06 305.885 44.23C304.525 44.655 303.25 45.25 301.89 45.845C297.64 47.885 293.645 50.265 289.565 52.645C289.055 52.9 288.63 53.325 288.035 53.325V53.155C288.035 52.73 288.29 52.56 288.545 52.305C291.435 48.82 294.58 45.59 297.725 42.36C298.15 41.935 298.66 41.68 299.255 41.51C301.805 40.745 304.27 39.555 306.735 38.365C313.365 34.965 319.655 30.97 325.775 26.635C331.81 22.385 337.505 17.795 342.605 12.44C343.71 11.25 344.73 10.06 345.665 8.7C346.005 8.10499 346.345 7.51 346.515 6.745V6.32C346.515 4.95999 345.58 3.94 344.22 3.855H343.71C343.2 3.855 342.775 3.94 342.35 4.025C341.16 4.365 339.97 4.875 338.865 5.38499C334.275 7.595 330.11 10.4 326.03 13.46C318.125 19.325 310.815 25.955 303.76 32.84C299.51 36.92 295.515 41.255 291.52 45.59C289.735 47.545 288.035 49.415 286.42 51.455C285.995 52.135 285.485 52.815 285.06 53.58C284.975 53.835 284.89 54.09 284.89 54.345C284.89 54.685 284.975 55.025 285.23 55.28C285.57 55.705 285.995 55.875 286.505 55.875C286.675 55.875 286.93 55.875 287.1 55.79C287.695 55.62 288.205 55.365 288.8 55.025C291.095 53.75 293.39 52.39 295.685 51.115C298.83 49.33 302.06 47.63 305.375 46.27C305.63 46.185 305.885 46.1 306.225 46.1C306.31 46.1 306.48 46.1 306.65 46.185C304.865 48.14 302.995 49.84 301.125 51.625C300.445 52.305 299.85 53.155 299.34 54.005C299.085 54.345 299 54.77 299 55.11C299 55.45 299.085 55.875 299.34 56.215C299.85 56.81 300.36 57.235 301.125 57.235C301.21 57.235 301.38 57.15 301.55 57.15C302.57 56.98 303.59 56.725 304.525 56.385C308.265 55.11 311.92 53.92 315.66 52.645C317.19 52.135 318.72 51.71 320.165 51.2C320.76 51.03 321.27 50.775 321.78 50.52C322.035 50.35 322.29 50.265 322.29 50.01C322.29 49.925 322.205 49.84 322.205 49.755C322.035 49.5 321.865 49.415 321.61 49.415H321.355C321.185 49.415 321.1 49.5 320.93 49.5C315.915 51.115 310.9 52.645 305.8 54.175C304.27 54.685 302.74 55.195 300.87 55.45ZM301.465 38.875C302.74 37.515 304.1 36.07 305.46 34.795C310.135 30.375 314.81 26.04 319.825 21.875C325.945 16.86 332.15 12.1 339.12 8.275C340.65 7.33999 342.265 6.57499 343.965 6.14999C344.135 6.065 344.305 5.98 344.475 5.98C344.56 5.98 344.645 6.065 344.815 6.14999C344.815 6.83 344.39 7.425 343.965 8.02C343.03 9.55 341.755 10.91 340.565 12.185C335.975 17.115 330.875 21.365 325.435 25.19C319.06 29.695 312.345 33.69 305.46 37.26C304.185 37.94 302.91 38.535 301.465 38.875ZM328.736 51.285C328.566 51.71 328.481 51.965 328.396 52.135C328.311 52.39 328.226 52.56 328.141 52.73C328.056 53.07 327.971 53.495 327.971 53.835C327.971 55.195 328.906 56.13 330.436 56.13H330.861C331.456 56.045 332.136 55.875 332.731 55.705C336.896 54.345 340.976 52.815 344.971 51.2C345.396 51.03 345.821 50.86 346.161 50.605C346.331 50.435 346.586 50.35 346.586 50.095L346.501 49.925C346.416 49.755 346.246 49.585 345.991 49.585H345.821C345.481 49.67 345.141 49.755 344.886 49.925C341.061 51.37 337.151 52.56 333.241 53.835C332.391 54.09 331.456 54.345 330.521 54.515H330.266C329.926 54.515 329.841 54.43 329.841 54.175C329.841 54.005 329.841 53.835 329.926 53.665C330.521 52.39 331.371 51.37 332.306 50.265C332.731 49.755 333.156 49.245 333.496 48.735C333.666 48.48 333.751 48.31 333.751 48.14C333.751 47.8 333.581 47.545 333.411 47.29C333.156 46.95 332.901 46.78 332.561 46.78C332.391 46.78 332.221 46.865 332.051 46.95C331.456 47.29 330.946 47.545 330.436 47.885C327.801 49.67 325.251 51.455 322.446 52.985C322.021 53.24 321.596 53.58 320.831 53.58C321.341 52.985 321.681 52.475 322.021 51.965C323.211 50.52 324.486 49.075 325.761 47.63C326.101 47.29 326.271 47.035 326.271 46.695C326.271 46.44 326.101 46.1 325.676 45.76C325.336 45.42 324.996 45.25 324.571 45.25C324.146 45.25 323.721 45.505 323.296 45.93C321.511 47.885 319.981 50.01 318.791 52.39C318.536 52.815 318.366 53.325 318.366 53.835V54.175C318.366 55.195 319.131 55.875 320.066 55.875C320.236 55.875 320.491 55.875 320.661 55.79C321.086 55.62 321.511 55.365 321.936 55.195C323.636 54.345 325.081 53.325 326.696 52.39C327.206 51.965 327.801 51.54 328.736 51.285ZM359.944 35.22C359.944 34.71 359.944 34.37 359.774 34.03C359.179 32.585 357.224 31.48 355.269 31.48C354.759 31.31 353.654 32.5 353.399 32.925L353.229 33.18C353.144 33.69 353.994 33.605 354.334 33.775C355.184 34.115 356.714 34.795 356.629 35.73C356.544 35.985 356.204 36.325 355.609 36.92C352.634 39.81 352.634 40.745 354.504 43.465C355.014 43.72 355.099 43.72 355.524 43.38C355.864 43.04 356.034 42.785 355.864 42.445C354.334 39.81 356.119 39.3 358.244 37.6C359.094 36.92 359.689 36.07 359.944 35.22ZM344.644 54.515C345.494 53.07 346.514 51.88 347.534 50.69C347.619 50.52 347.874 50.35 348.044 50.35C348.894 50.265 349.064 49.67 349.319 49.075C349.489 48.735 349.574 48.395 349.574 48.14C349.574 47.545 349.234 47.035 348.554 46.61C348.299 46.44 348.044 46.27 347.789 46.27C347.449 46.27 347.024 46.525 346.514 47.12C344.814 48.905 343.284 50.86 342.094 53.07C341.754 53.665 341.499 54.345 341.499 55.11C341.584 56.385 342.434 57.32 343.624 57.32C343.879 57.32 344.134 57.235 344.389 57.15C344.984 56.98 345.579 56.64 346.174 56.3C349.064 54.685 351.784 52.9 354.504 51.115C354.844 50.86 355.099 50.605 355.609 50.605C355.439 50.945 355.354 51.2 355.184 51.455C354.759 52.22 354.249 52.985 353.824 53.835C353.484 54.43 353.059 54.77 352.379 54.94C346.684 56.98 341.329 59.7 336.059 62.675C326.879 68.03 318.464 74.235 311.409 82.14C308.604 85.2 306.309 88.6 304.694 92.34C303.929 94.04 303.419 95.825 303.419 97.78C303.419 101.265 305.799 103.645 309.284 103.815H309.794C311.409 103.815 312.854 103.475 314.384 102.88C317.189 101.775 319.739 100.16 322.119 98.375C327.814 94.125 332.489 88.94 336.909 83.5C343.964 74.83 350.254 65.65 355.864 55.96C356.119 55.365 356.459 54.94 357.139 54.685C361.729 53.325 366.064 51.285 370.909 50.775C371.164 50.69 371.504 50.69 371.504 50.35V50.18C371.504 49.925 371.249 49.755 370.994 49.67C370.739 49.67 370.484 49.585 370.229 49.585C369.889 49.585 369.634 49.67 369.294 49.755C368.529 49.84 367.679 50.01 366.914 50.265C364.109 50.945 361.389 51.88 358.669 52.73C358.414 52.815 358.159 52.985 357.904 52.985C357.819 52.985 357.734 52.9 357.649 52.9C357.649 52.39 357.904 52.05 358.074 51.625C358.414 50.945 358.754 50.18 359.009 49.415C359.094 49.16 359.094 48.905 359.094 48.735C359.094 48.055 358.839 47.46 358.329 47.035C358.074 46.865 357.819 46.78 357.564 46.78C357.054 46.78 356.629 47.12 356.204 47.375C354.589 48.48 352.889 49.585 351.274 50.69C349.149 52.05 347.024 53.41 344.644 54.515ZM351.614 56.98H351.784C351.784 57.32 351.614 57.49 351.444 57.745C346.684 65.395 341.839 72.96 336.399 80.1C332.574 85.2 328.409 89.96 323.734 94.295C320.589 97.1 317.274 99.65 313.279 101.265C312.004 101.775 310.729 102.115 309.454 102.285H308.944C306.564 102.285 305.289 101.01 305.119 98.715V98.12C305.119 95.485 306.054 93.19 307.244 90.895C309.284 87.07 312.004 83.755 314.979 80.695C321.949 73.64 329.939 67.86 338.694 63.015C342.519 60.89 346.429 58.935 350.509 57.32C350.849 57.15 351.189 56.98 351.614 56.98Z" fill="#A16207"/>
</svg>
