<svg width="40" height="40" viewBox="0 0 40 40" fill="none" xmlns="http://www.w3.org/2000/svg">
<path fill-rule="evenodd" clip-rule="evenodd" d="M40 20C40 25.7806 37.5502 30.9705 33.622 34.6414C31.7635 36.3713 29.5248 37.7637 27.1172 38.692C24.9208 39.5359 22.5132 40 20.0211 40C19.1341 40 18.2471 39.9578 17.4023 39.8312C16.5998 39.7468 15.8395 39.5781 15.0792 39.3671C13.2629 38.903 11.5734 38.1857 10.0106 37.2996C8.99683 36.7089 8.06758 36.076 7.18057 35.3165C5.11088 33.5865 3.37909 31.4346 2.15417 29.0295C1.39387 27.5105 0.802534 25.865 0.422386 24.135C0.126716 22.7848 0 21.4346 0 20C0 16.0338 1.14044 12.3629 3.12566 9.2827C3.97043 7.97468 4.94192 6.75105 6.08237 5.65401C9.67265 2.1519 14.6146 0 20.0211 0C20.4435 0 20.9081 2.57469e-06 21.3305 0.0421967C23.6114 0.210973 25.7656 0.717298 27.7508 1.56118C28.0887 1.68776 28.4266 1.85654 28.7645 2.02532C30.2006 2.74262 31.5523 3.62869 32.8194 4.64135C33.2418 4.9789 33.622 5.35865 34.0021 5.7384C34.1288 5.86498 34.2978 5.99156 34.4245 6.16034C37.8881 9.74684 40 14.6413 40 20Z" fill="url(#paint0_radial_2888_47805)"/>
<path opacity="0.5" fill-rule="evenodd" clip-rule="evenodd" d="M0.210938 22.9806L0.824347 26.1083C0.824347 26.1083 4.19811 28.3061 12.0574 27.503C19.9167 26.7 21.757 22.4735 24.824 20.0221C27.8911 17.5707 33.8335 15.6265 35.367 13.6823C36.9005 11.7804 35.597 7.93422 35.597 7.93422L34.9836 7.00439C34.9836 7.00439 36.0954 10.3011 34.7536 12.7102C33.4501 15.1193 27.5844 16.2605 24.4023 19.3458C21.2202 22.4312 14.7411 24.798 9.18206 24.8403C3.73805 24.8826 0.210938 22.9806 0.210938 22.9806Z" fill="#4E79A6"/>
<path opacity="0.5" fill-rule="evenodd" clip-rule="evenodd" d="M3.58984 31.2074L4.82069 33.1987C4.82069 33.1987 10.4749 35.0205 18.9754 33.1987C27.4759 31.3769 33.8994 26.0809 36.8611 23.0727C39.8613 20.0646 39.4767 15.8702 39.4767 15.8702L39.2074 14.5991C39.2074 14.5991 38.6689 18.963 35.361 23.0727C32.0531 27.1824 26.5143 30.9108 18.5523 32.4361C10.6287 34.0037 3.58984 31.2074 3.58984 31.2074Z" fill="#386293"/>
<path opacity="0.5" fill-rule="evenodd" clip-rule="evenodd" d="M1.47852 12.2549C1.47852 12.2549 12.3258 16.387 20.6958 14.5505C29.0658 12.7557 31.3178 6.74536 31.468 3.65669L29.9291 2.36279C29.9291 2.36279 29.9666 8.54013 24.6744 12.2966C19.3821 16.0114 5.79489 13.7992 2.15412 10.5853L1.47852 12.2549Z" fill="#2A3D67"/>
<defs>
<radialGradient id="paint0_radial_2888_47805" cx="0" cy="0" r="1" gradientUnits="userSpaceOnUse" gradientTransform="translate(14.3308 14.3351) scale(29.3529 29.3219)">
<stop offset="0.00558659" stop-color="#48719F"/>
<stop offset="0.348958" stop-color="#386294"/>
<stop offset="0.692708" stop-color="#264063"/>
<stop offset="1" stop-color="#19344F"/>
</radialGradient>
</defs>
</svg>
