<svg width="40" height="40" viewBox="0 0 40 40" fill="none" xmlns="http://www.w3.org/2000/svg">
<path fill-rule="evenodd" clip-rule="evenodd" d="M40 19.9999C40 21.8986 39.7466 23.7974 39.2397 25.5274C38.226 29.0717 36.2408 32.194 33.622 34.6413C31.7635 36.3713 29.5248 37.7637 27.075 38.692C24.8786 39.5359 22.471 40 19.9789 40C19.641 40 19.2608 40 18.9229 39.9578C18.416 39.9156 17.8669 39.8734 17.3601 39.8312C13.5164 39.3249 9.96832 37.7215 7.13833 35.3164C6.08236 34.4303 5.11088 33.4177 4.22387 32.3206C3.59029 31.4767 2.99894 30.6329 2.49208 29.7046C2.36536 29.4936 2.23865 29.2404 2.11193 29.0295C2.11193 29.0295 2.11193 29.0295 2.11193 28.9873C1.98522 28.7341 1.85849 28.5231 1.77402 28.27C1.43611 27.5105 1.14043 26.7088 0.887001 25.9071C0.718047 25.3164 0.549103 24.7257 0.422387 24.1349C0.337909 23.713 0.253432 23.2911 0.211193 22.8269C0.0844773 21.8986 0 20.9704 0 19.9999C0 19.4514 -7.73539e-06 18.9028 0.0844696 18.3543C0.126708 18.0168 0.168955 17.6792 0.211193 17.3417C0.464625 15.3585 1.01372 13.502 1.81626 11.772C2.1964 10.9281 2.66104 10.0842 3.1679 9.32474C4.01267 8.01672 4.98416 6.79308 6.12461 5.69603C9.71489 2.1939 14.6568 0.0419922 20.0634 0.0419922C20.2746 0.0419922 20.4857 0.0419922 20.6969 0.0419922C20.9081 0.0419922 21.1616 0.0419915 21.3727 0.0841858C22.5132 0.168574 23.6536 0.337352 24.7518 0.590518C25.3854 0.759295 26.019 0.928072 26.6104 1.13904C27.0327 1.26563 27.4129 1.4344 27.8353 1.60318C28.1309 1.72976 28.4266 1.85635 28.7223 1.98293C28.7645 2.02512 28.8068 2.02512 28.8912 2.06732C30.8342 2.99559 32.6082 4.26142 34.1288 5.78042C34.34 5.99139 34.5512 6.20236 34.7624 6.45552C34.8891 6.6243 35.0581 6.75088 35.1848 6.91966C35.4382 7.17283 35.6494 7.46819 35.8606 7.72135C36.6632 8.73402 37.339 9.83107 37.9303 10.9703C38.6061 12.3205 39.1552 13.7551 39.5354 15.2319C39.7888 16.7087 40 18.3121 40 19.9999Z" fill="url(#paint0_radial_2888_47752)"/>
<path fill-rule="evenodd" clip-rule="evenodd" d="M28.7645 2.02529C28.68 2.02529 28.6378 2.02529 28.5533 2.06749C28.3421 2.10968 28.1309 2.06749 27.9197 2.02529C27.7508 1.9831 27.6663 1.89871 27.4551 1.89871C27.2017 1.85652 26.9905 1.77213 26.7371 1.72993C26.4836 1.68774 26.2724 1.60335 26.019 1.51896C25.8078 1.43457 25.7233 1.47677 25.5544 1.51896C25.3854 1.56116 25.2587 1.47677 25.0898 1.43457C24.9208 1.35018 24.7096 1.35018 24.5407 1.30799C24.0338 1.2236 23.5269 1.05482 23.0201 0.928241C22.7244 0.843852 22.4287 0.843852 22.0908 0.843852C21.8374 0.843852 21.6262 0.928241 21.3728 0.928241C21.2038 0.928241 21.0771 0.886047 20.9081 0.886047C20.7392 0.843853 20.5702 0.886047 20.4013 0.886047C20.1478 0.843853 20.0211 0.801659 19.7677 0.886047C19.5565 0.928242 19.4298 0.92824 19.2186 0.970435C19.0074 0.970435 18.754 1.05482 18.5428 1.09702C18.1626 1.18141 17.7402 1.2658 17.3601 1.2658C17.1066 1.2658 16.7687 1.18141 16.5575 1.2658C16.4308 1.30799 16.3464 1.47677 16.2196 1.56116C16.0084 1.77213 15.7973 1.9409 15.6283 2.15188C15.4593 2.36285 15.2904 2.61601 15.2904 2.91137C15.2904 3.16454 15.4171 3.4599 15.5438 3.67087C15.6705 3.92404 15.7128 4.13501 15.4593 4.30379C15.1637 4.51476 14.7835 4.68353 14.4456 4.81012C14.1922 4.89451 13.981 4.9367 13.812 4.76792C13.7276 4.72573 13.6853 4.59915 13.6008 4.51476C13.5164 4.47256 13.3897 4.51476 13.3052 4.55695C13.0517 4.64134 12.7983 4.72573 12.5449 4.76792C12.3759 4.81012 12.2492 4.89451 12.0802 4.89451C11.9113 4.9367 11.7846 4.81012 11.5734 4.85231C11.32 4.89451 11.0243 5.02109 10.7709 5.02109C10.5597 5.02109 10.3062 4.9367 10.1373 4.85231C10.0528 4.81012 10.0106 4.72573 9.88384 4.76792C9.79937 4.76792 9.67265 4.89451 9.63041 4.97889C9.54593 5.06328 9.54593 5.18987 9.46146 5.27426C9.37698 5.40084 9.33474 5.48523 9.25026 5.61181C9.12355 5.82278 8.99683 6.03375 8.87012 6.24472C8.78564 6.37131 8.70116 6.58228 8.57444 6.70886C8.5322 6.79325 8.40549 6.83544 8.32101 6.87764C8.10981 7.00422 7.89862 7.173 7.68743 7.29958C7.30728 7.59494 6.92714 7.9325 6.54699 8.22786C6.25132 8.43883 5.82893 8.56541 5.49103 8.73419C5.27983 8.81858 5.06864 8.90296 4.85745 8.98735C4.77297 9.02955 4.64625 9.02955 4.60401 9.11394C4.51953 9.19833 4.4773 9.28271 4.43506 9.4093C4.2661 9.62027 4.05491 9.87344 3.92819 10.1266C3.84371 10.2954 3.80147 10.422 3.717 10.5907C3.63252 10.8017 3.5058 11.0127 3.46356 11.2658C3.29461 11.73 3.29461 12.2363 3.08342 12.7005C2.99894 12.9536 2.82999 13.2068 2.70327 13.4599C2.49208 13.8819 2.44983 14.3882 2.4076 14.8524C2.36536 15.1055 2.4076 15.4431 2.44984 15.6962C2.49208 15.9916 2.49208 16.287 2.49208 16.5823C2.49208 16.8777 2.28089 17.2152 2.11193 17.4262C1.94298 17.6372 1.64731 17.7216 1.43611 17.9325C1.26716 18.1013 1.05596 18.2701 0.971484 18.5233C0.929245 18.6077 0.971484 18.7342 0.971484 18.8608C0.929245 19.114 0.844773 19.325 0.844773 19.5781C0.802535 19.8735 0.802532 20.1688 0.802532 20.5064C0.802532 20.6752 0.802532 20.8018 0.802532 20.9705C0.802532 21.1393 0.844763 21.2659 0.887002 21.3925C0.887002 21.4769 0.887002 21.6034 0.887002 21.6878C0.887002 21.8144 0.971484 21.941 0.971484 22.0254C1.05596 22.3208 1.0982 22.5739 1.14044 22.8693C1.18267 23.1224 1.30939 23.3756 1.35163 23.6288C1.47835 23.9663 1.52059 24.3039 1.60506 24.6836C1.6473 24.9368 1.64731 25.2322 1.68955 25.4853C1.73179 25.6963 1.77402 25.9073 1.77402 26.1182C1.77402 26.4558 1.68955 26.7512 1.68955 27.0887C1.68955 27.6372 1.90073 28.1858 2.02745 28.7343C2.06969 28.9031 2.11192 29.0296 2.15416 29.1984C0.760286 26.498 0 23.4178 0 20.1688C0 16.2026 1.14044 12.5317 3.12566 9.45149C3.97043 8.14347 4.94192 6.91983 6.08236 5.86497C9.67265 2.36285 14.6146 0.210938 20.0211 0.210938C20.4435 0.210938 20.9081 0.210938 21.3305 0.253133C23.9493 0.210938 26.4836 0.886046 28.7645 2.02529Z" fill="url(#paint1_linear_2888_47752)"/>
<path opacity="0.1" fill-rule="evenodd" clip-rule="evenodd" d="M21.2461 29.3673C21.2461 29.3673 23.1046 32.1099 25.5967 34.3462C28.0888 36.5825 28.4267 38.1015 28.4267 38.1015C28.4267 38.1015 33.1152 36.1606 36.452 31.5192C39.7889 26.92 21.2461 29.3673 21.2461 29.3673Z" fill="black" fill-opacity="0.5"/>
<path opacity="0.4" fill-rule="evenodd" clip-rule="evenodd" d="M24.6256 0.548526C23.5274 0.29536 22.4292 0.126584 21.2465 0.0421953C21.0353 0.0421953 20.7819 0 20.5707 0C21.0353 0.253166 21.5 0.717304 21.5844 1.22364C21.7534 2.06752 22.0491 2.82702 22.1758 3.62871C22.3447 4.4304 22.3025 5.44307 21.9224 6.16037C21.7112 6.62451 21.4155 7.00426 21.0353 7.38401C20.7819 7.63717 20.5285 7.80595 20.3595 8.1435C20.1906 8.48106 19.9794 8.77642 19.7682 9.07178C19.4725 9.53592 19.1346 10.0001 18.7545 10.422C18.6277 10.5908 18.501 10.6752 18.3743 10.8439C18.2476 11.0549 18.1631 11.2659 17.9941 11.4347C17.614 11.8144 17.0649 12.0676 16.6003 12.2364C15.9667 12.4895 15.4176 12.7427 14.8262 13.0802C13.9815 13.5444 13.2634 14.0929 12.2919 14.1351C11.954 14.1351 11.6161 14.0929 11.2782 14.1351C10.8558 14.1773 10.4757 14.3461 10.0955 14.4305C9.75762 14.5148 9.37747 14.557 9.03956 14.6414C8.44822 14.7258 7.98359 14.9368 7.43448 15.0634C6.71643 15.2321 5.95614 15.1899 5.19584 15.3165C4.52002 15.4009 3.97092 15.4853 3.2951 15.3165C2.28137 15.0634 1.73227 14.5992 1.94346 13.5022C2.07018 12.7849 2.02795 12.2363 1.69004 11.73C0.887503 13.46 0.338393 15.3587 0.0849609 17.2997C0.549586 17.5106 1.09869 17.595 1.56331 17.6372C3.04167 17.806 4.64674 17.1309 5.99837 16.6246C6.67419 16.3714 7.39225 15.9916 8.15255 15.9073C8.95508 15.8229 9.6309 15.9073 10.4334 15.7385C13.1367 15.0634 15.7977 14.1351 18.2476 12.7005C19.2613 12.1098 19.6837 11.2659 20.4018 10.422C20.9931 9.6625 21.7111 9.07178 22.4292 8.43886C23.1473 7.80595 23.7808 7.21523 24.2032 6.37134C24.6679 5.48526 25.048 4.4726 25.2592 3.50213C25.4704 2.40508 25.1747 1.39241 24.6256 0.548526ZM24.4989 3.24896C24.4567 3.45993 24.4144 3.7131 24.3722 3.92407C24.2032 4.4726 23.8653 5.02112 23.3585 5.27429C23.1473 5.40087 22.8094 5.31648 22.6826 5.10551C22.5982 4.97893 22.5982 4.81015 22.5982 4.68357C22.5559 4.38821 22.5137 4.13504 22.5137 3.83968C22.5137 3.16457 22.5137 2.48946 22.4292 1.81435C22.5137 2.1941 22.4292 1.22363 23.0206 0.970469C23.3162 0.843886 23.7386 0.970469 23.9498 1.18144C24.2032 1.4768 24.2877 1.94094 24.3722 2.27849C24.4567 2.65824 24.5412 2.91141 24.4989 3.24896Z" fill="url(#paint2_linear_2888_47752)" fill-opacity="0.5"/>
<path opacity="0.4" fill-rule="evenodd" clip-rule="evenodd" d="M21.5837 35.1898C21.5415 35.1898 21.457 35.232 21.4148 35.232L21.7949 35.2741C21.7949 35.232 21.7104 35.1898 21.5837 35.1898ZM21.5837 35.1898C21.5415 35.1898 21.457 35.232 21.4148 35.232L21.7949 35.2741C21.7949 35.232 21.7104 35.1898 21.5837 35.1898ZM39.4084 15.1475C39.4084 15.6538 39.2395 16.2023 39.2395 16.7087C39.2395 17.426 39.1128 17.9745 38.9438 18.6496C38.8171 19.1137 38.5637 19.4513 38.4369 19.9154C38.268 20.4218 38.0146 20.8859 37.7611 21.35C37.2543 22.2783 36.7052 23.2488 36.494 24.3036C36.2828 25.2741 36.2405 26.0758 35.7759 26.9619C35.3113 27.8058 34.6355 28.5231 34.1286 29.3669C33.9174 29.7467 33.7485 29.7467 33.3683 29.9999C32.9882 30.2952 32.608 30.7172 32.2279 31.0125C31.4253 31.6454 30.665 32.1096 29.6513 32.4893C29.0177 32.7425 28.4264 32.9113 27.7506 32.9957C27.3282 33.08 26.9058 32.9957 26.4834 33.08C25.8076 33.2066 25.174 33.3754 24.4982 33.5864C23.4422 33.9239 22.344 34.1349 21.288 34.4725C20.5278 34.6834 19.8097 34.8522 19.0494 34.9788C18.5848 35.0632 18.2046 35.3163 17.74 35.232C17.2754 35.1476 16.8107 34.9788 16.3461 34.81C15.7548 34.6412 15.2479 34.599 14.6143 34.599C13.7696 34.599 12.7558 34.7256 11.8688 34.5568C10.8973 34.3881 9.96808 34.0927 8.9966 33.9239C8.40525 33.7973 7.98286 33.5442 7.43376 33.3332C6.9269 33.08 6.42004 33.0378 5.87094 32.8691C5.32184 32.7003 4.77274 32.4471 4.22363 32.3205C5.06841 33.4176 6.03989 34.4303 7.1381 35.3163C9.96809 37.7214 13.4739 39.3248 17.3598 39.8311C17.8667 39.8733 18.3736 39.9577 18.9227 39.9577C20.0631 39.7045 21.1613 39.367 22.3018 39.0294C24.2025 38.4387 25.8498 37.2995 27.7506 36.7509C28.4686 36.54 29.1022 36.329 29.7358 35.9915C30.2426 35.7383 30.7495 35.6961 31.2141 35.4851C32.9882 34.7256 34.2975 33.0378 35.1001 31.3501C35.438 30.5906 35.7759 29.7467 36.4517 29.156C36.7052 28.9028 37.0431 28.734 37.2543 28.4387C37.5077 28.1433 37.6766 27.8058 37.9301 27.4682C38.3525 26.9197 38.7326 26.329 39.1128 25.7804C39.155 25.696 39.1972 25.6538 39.2395 25.5695C39.7463 23.7973 39.9998 21.9407 39.9998 20.042C39.9998 18.312 39.7886 16.7087 39.4084 15.1475ZM21.0346 35.3163C21.1191 35.2741 21.2036 35.1898 21.288 35.1476C21.3725 35.1054 21.4992 35.1476 21.5837 35.1898C21.7527 35.1476 21.8794 35.1476 22.0061 35.232C22.0906 35.2741 22.2173 35.3585 22.2595 35.4429C22.3018 35.5273 22.2595 35.5695 22.1751 35.6539C22.0906 35.7383 22.0483 35.7383 21.9216 35.7383C21.7104 35.7805 21.4992 35.8227 21.2458 35.7805C21.1191 35.7805 20.9079 35.7383 20.8234 35.6539C20.8234 35.4851 20.9501 35.4007 21.0346 35.3163ZM22.344 37.9324C22.2173 38.1012 22.0906 38.2699 21.9216 38.3543C21.7527 38.4809 21.5837 38.5231 21.457 38.6497C21.0346 38.8607 20.6122 39.1138 20.1898 39.2404C20.0209 39.2826 19.8097 39.2826 19.6407 39.2826C19.4295 39.3248 19.1761 39.3248 18.9649 39.3248C18.7115 39.3248 18.4158 39.367 18.1624 39.4092C17.909 39.4092 17.6133 39.4514 17.3598 39.4514C16.8952 39.4936 16.5151 39.4092 16.0927 39.2404C15.7125 39.1138 15.3324 38.9029 14.9945 38.6919C14.7411 38.5231 14.5299 38.3121 14.3609 38.1012C14.1497 37.9324 14.023 37.7214 13.8963 37.4683C13.854 37.3839 13.8118 37.2995 13.854 37.1729C13.854 37.1307 13.8963 37.0885 13.8963 37.0885C13.9808 37.0463 14.0652 36.9619 14.1075 36.9619C14.2342 36.8775 14.4031 36.8775 14.5721 36.8353C14.9523 36.7931 15.3324 36.8353 15.7125 36.8775C15.9237 36.8775 16.1349 36.9197 16.3461 36.8775C16.6418 36.8353 16.9375 36.7509 17.1909 36.6666C17.8667 36.4978 18.5425 36.329 19.2184 36.2868C19.8942 36.2024 20.6545 36.118 21.3303 36.2446C21.5837 36.2868 21.9216 36.3712 22.1328 36.4978C22.3018 36.6244 22.4285 36.7931 22.513 36.9619C22.6397 37.2995 22.5552 37.637 22.344 37.9324ZM27.6661 36.2024C27.5394 36.329 27.3704 36.4134 27.2015 36.54C26.9903 36.7088 26.7791 36.7931 26.5679 36.9197C26.3989 37.0463 26.1877 37.1307 26.0188 37.2151C25.8076 37.2995 25.6386 37.3839 25.4274 37.5104C25.2162 37.5948 25.005 37.6792 24.7938 37.7636C24.6249 37.8058 24.4559 37.8902 24.287 37.848C24.1603 37.8058 23.9913 37.7636 23.9068 37.6792C23.7379 37.5104 23.7801 37.3417 23.8224 37.2573C23.8224 37.1307 23.7801 36.9197 23.8224 36.7509C23.8646 36.6666 23.9491 36.54 23.9913 36.4556C24.1603 36.118 24.4137 35.9071 24.6671 35.6539C24.8783 35.4429 25.1318 35.2742 25.4274 35.1476C25.7653 35.021 26.1877 34.9788 26.5256 34.9366C26.9058 34.8944 27.5816 34.8522 27.7928 35.3163C27.9195 35.6117 27.8773 35.9071 27.6661 36.2024ZM21.8371 35.232C21.7949 35.232 21.7104 35.1898 21.626 35.1476C21.5837 35.1476 21.4992 35.1898 21.457 35.1898L21.8371 35.232Z" fill="url(#paint3_linear_2888_47752)" fill-opacity="0.5"/>
<path opacity="0.4" fill-rule="evenodd" clip-rule="evenodd" d="M37.8042 10.8857V10.9701C37.762 11.5186 37.5508 11.8984 37.3396 12.4047C37.1706 12.8267 37.0017 13.1642 36.7905 13.544C36.4526 14.1769 36.2836 14.7676 36.0302 15.4849C35.6078 16.5398 35.4388 17.679 34.8053 18.6495C34.2562 19.5355 34.0872 20.5904 33.6648 21.5187C33.158 22.5735 32.3554 23.2908 31.5106 24.0503C31.1305 24.3879 30.7926 24.8098 30.4547 25.1896C30.0745 25.5693 29.8211 26.0757 29.3565 26.4132C28.4272 27.0883 27.3713 27.679 26.442 28.3964C25.8929 28.8183 25.5128 29.409 24.8792 29.7466C24.2878 30.1263 23.612 30.3795 23.0207 30.717C22.4716 31.0546 21.9225 31.3921 21.3311 31.6453C20.6553 31.8985 20.1062 31.8141 19.3882 31.8563C18.6279 31.8985 17.8253 32.1094 17.1073 32.3626C16.5159 32.5736 16.0091 32.7846 15.3755 32.5736C14.9531 32.447 14.6152 32.1516 14.1928 32.0673C13.1791 31.8563 12.0809 32.0673 11.0671 32.0251C10.2646 31.9829 9.41984 31.8141 8.6173 31.6453C7.85701 31.5187 7.22343 30.9702 6.50537 30.7592C5.57612 30.5061 4.52015 30.717 3.67538 30.3795C3.29523 30.2529 2.95732 29.9575 2.66165 29.7466C2.57717 29.7044 2.53494 29.6622 2.45046 29.62C2.32374 29.409 2.19703 29.1558 2.07031 28.9449C2.28151 29.0293 2.4927 29.1137 2.70389 29.2402C3.84434 29.7888 5.28045 29.7044 6.50537 29.9153C7.89925 30.1685 9.29312 30.5061 10.687 30.6748C11.2783 30.7592 11.8274 30.717 12.4188 30.6748C13.2213 30.5905 14.0238 30.5905 14.8264 30.4639C16.178 30.2107 17.5297 29.5778 18.9235 29.7466C19.177 29.7888 19.4726 29.9153 19.7261 29.9153C20.1062 29.9153 20.4019 29.5778 20.6976 29.3668C21.2467 29.0293 21.838 29.0715 22.3449 28.6073C22.8095 28.1432 23.3586 27.8478 23.9499 27.5525C25.4705 26.793 26.6954 25.5271 27.9204 24.3035C28.9341 23.2908 29.9056 22.236 30.5814 21.0123C31.2572 19.7887 31.1305 18.3119 31.6374 17.0461C32.0175 16.1178 32.3132 15.2739 32.9045 14.4722C33.2002 14.0925 33.5381 13.7549 33.8338 13.3752C34.1717 12.9954 34.3406 12.5735 34.5941 12.1093C34.8475 11.603 35.2276 11.1811 35.4388 10.6325C35.65 10.1262 35.6078 9.70427 35.6078 9.15575C35.6078 8.60722 35.6078 8.0165 35.6078 7.42578C36.4948 8.64942 37.2129 9.74647 37.8042 10.8857Z" fill="url(#paint4_linear_2888_47752)" fill-opacity="0.5"/>
<path opacity="0.4" fill-rule="evenodd" clip-rule="evenodd" d="M34.6357 6.37117C34.4245 6.1602 34.2133 5.90703 34.0021 5.69606C32.4815 4.17707 30.7075 2.95343 28.7645 1.98296C28.7223 1.94077 28.68 1.94077 28.5956 1.89857C28.2999 1.77199 28.0042 1.64541 27.7085 1.51883C27.2862 1.35005 26.906 1.18127 26.4836 1.05469C26.6103 1.13908 26.7793 1.22347 26.8215 1.22347C27.075 1.35005 27.2862 1.43444 27.4551 1.64541C27.6241 1.85638 27.7085 2.02516 27.7085 2.32052C27.7085 2.57368 27.7508 2.86904 27.793 3.12221C27.8353 3.37537 27.962 3.58635 28.0042 3.83951C28.0465 3.9661 28.0465 4.09268 28.0887 4.26146C28.1732 4.59901 28.2999 4.93657 28.3844 5.27412C28.5111 5.90703 28.1732 6.41337 27.962 6.96189C27.6241 7.84797 27.4129 8.73405 27.1172 9.66232C26.906 10.3796 26.5259 11.0969 25.9768 11.6455C25.4277 12.1518 24.6251 12.2784 24.1605 12.8269C23.7381 13.3332 23.2313 13.7974 22.6399 14.0505C21.9641 14.3881 21.2038 14.6413 20.4857 14.8522C19.9789 15.021 19.4298 15.021 18.8807 15.1476C18.2049 15.3164 17.6135 15.6539 17.0222 15.9071C16.3464 16.2024 15.755 16.54 15.0792 16.8354C14.4034 17.1307 13.812 17.5105 13.1362 17.7636C12.7983 17.8902 12.4604 17.9746 12.1647 18.059C11.4889 18.3122 10.8553 18.7341 10.1373 18.8185C9.88385 18.8607 9.63041 18.9029 9.37697 18.9029C9.16578 18.9029 8.99683 18.9451 8.82788 18.9873C8.1943 19.2404 7.81415 19.9155 7.09609 19.9577C6.42027 19.9577 5.78669 19.9155 5.15311 19.9999C4.8152 20.0421 4.51954 19.9999 4.22387 20.0421C4.13939 20.0421 4.01267 20.0843 3.92819 20.0421C3.84371 19.9999 3.717 19.9155 3.59029 19.8312C3.33685 19.7046 3.12566 19.5358 2.91446 19.367C2.49208 19.0295 1.94298 19.2404 1.47835 19.1138C1.35164 19.0717 1.14044 19.1138 1.01373 19.0295C0.718055 18.8607 0.337902 18.4809 0.0844696 18.27C0.0422309 18.8185 0 19.367 0 19.9155C0 20.886 0.0844773 21.8143 0.211193 22.7426C0.253432 23.1645 0.337909 23.5864 0.422387 24.0506C0.549103 24.6413 0.718047 25.2742 0.887001 25.8227C1.14043 26.6244 1.43611 27.4261 1.77402 28.1856C2.32312 28.27 2.87222 28.3544 3.42132 28.27C4.22386 28.1434 4.98415 28.0168 5.78669 28.059C6.54698 28.1012 7.22281 28.3544 7.94086 28.481C8.7434 28.6076 9.58817 28.7341 10.4329 28.7763C11.1932 28.8185 11.9535 28.9029 12.6716 28.9873C13.2207 29.0717 13.812 29.1561 14.3611 29.1983C15.8395 29.2827 17.2756 28.9029 18.7117 28.7763C19.4298 28.692 20.1478 28.5232 20.8659 28.3544C21.2883 28.27 21.7107 28.1434 22.0908 27.8903C22.5977 27.5527 22.9356 27.0886 23.358 26.7088C23.8648 26.2869 24.3717 25.8649 24.8786 25.4852C25.301 25.1476 25.7233 24.7679 26.188 24.4725C26.5259 24.2616 26.906 24.0084 27.2439 23.7552C27.8775 23.2489 28.4266 22.6582 28.9757 22.0253C29.736 21.1392 30.0317 19.9155 30.3273 18.8185C30.623 17.8058 30.792 16.8354 31.3411 15.9071C31.5945 15.4851 31.8057 14.9788 31.9324 14.4725C32.0169 14.1771 32.0591 13.7974 32.1858 13.502C32.397 13.0379 32.8617 12.6581 33.1151 12.2362C33.3263 11.8986 33.5797 11.5611 33.7064 11.1391C34.0021 10.3796 34.2133 9.62013 34.34 8.77624C34.4245 8.18552 34.6357 7.59481 34.8046 7.00409C34.8469 6.9197 34.8469 6.79311 34.8891 6.70872C34.8891 6.66653 34.7624 6.49775 34.6357 6.37117ZM8.57444 20.0421C8.61668 19.9577 9.37698 19.6624 9.46146 19.6202C9.46146 19.6202 9.46145 19.6202 9.41922 19.6202L8.91235 19.8312C9.46145 19.6624 10.4329 20.2109 9.96831 20.8016C9.8416 20.9704 9.46146 21.0548 9.25026 21.097C9.03907 21.1392 8.91235 21.0548 8.78563 20.886C8.65892 20.7172 8.57444 20.4641 8.57444 20.2531C8.57444 20.2109 8.57444 20.0843 8.57444 20.0421ZM2.61879 25.4008C2.02745 25.232 1.6473 25.0211 1.30939 24.5147C1.05596 24.1772 0.887009 23.8818 0.802532 23.5021C0.760293 23.1645 0.633572 22.9113 0.718049 22.5738C0.760288 22.3206 0.887009 22.0253 1.01373 21.8143C1.14044 21.5611 1.35163 21.2658 1.35163 21.1814C1.94297 21.1392 2.49207 21.097 3.04118 21.097C3.67476 21.097 4.35058 21.1814 4.98416 21.1814C5.27983 21.1814 5.5755 21.1814 5.87117 21.1392C6.16684 21.097 6.42027 21.0126 6.71594 20.9704C7.22281 20.886 7.68743 20.8438 8.15206 21.0548C8.48996 21.2236 8.65892 21.6455 8.82788 21.9831C8.91235 22.194 8.99683 22.3206 8.99683 22.5738C8.99683 22.8691 8.99683 23.1223 8.95459 23.3755C8.95459 23.4599 8.91235 23.5864 8.91235 23.6708C8.48996 24.5569 7.39176 24.8523 6.54699 25.1898C5.27983 25.6962 3.88595 25.7384 2.61879 25.4008ZM11.6156 27.3417C11.3622 28.0168 10.264 28.2278 9.63041 28.27C9.33474 28.27 8.95459 28.2278 8.65892 28.059C8.48997 27.9747 8.36325 27.8059 8.23654 27.6371C8.15206 27.5105 8.02534 27.2995 7.68743 27.3839C7.7719 27.0042 7.85639 26.6666 8.02534 26.3291C8.15206 26.1603 8.321 26.0337 8.48996 25.8649C8.78563 25.6118 9.12355 25.3586 9.46146 25.1898C10.0106 24.8945 10.6019 25.1054 11.1088 25.3586C11.4889 25.5274 11.7423 25.7806 11.8268 26.1603C11.9535 26.6244 11.7846 26.9198 11.6156 27.3417ZM19.0496 27.2152C18.8384 27.6793 18.5428 27.8059 18.1204 28.059C17.6135 28.3122 16.9377 28.5232 16.3886 28.5232C16.0929 28.5232 15.7973 28.3966 15.5438 28.27C15.3749 28.1856 15.1637 28.1434 15.037 28.0168C14.6568 27.6371 14.5723 27.1308 14.8258 27.2152C14.6568 26.8776 14.5723 26.54 14.5301 26.2025C14.6146 26.1603 14.6568 26.0759 14.6568 25.9915C14.868 25.6118 15.2481 25.2742 15.6705 25.0632C16.3463 24.6835 17.2334 24.5991 17.9937 24.9367C18.3316 25.0632 18.5428 25.232 18.754 25.4852C18.8807 25.6118 19.0074 25.6962 19.1341 25.8649C19.2608 26.2025 19.1763 26.8354 19.0496 27.2152ZM21.2883 27.1308C21.1616 27.2152 20.9504 27.3839 20.8237 27.3839C20.6969 27.3417 20.4857 27.1308 20.4857 26.962L20.4013 26.8776C20.5702 26.5822 20.7392 26.3291 20.9081 26.0337C21.1616 26.1603 21.415 26.1181 21.5839 26.4135C21.7951 26.7088 21.4995 26.962 21.2883 27.1308ZM26.9905 13.8396C26.7793 14.1349 26.4836 14.4303 26.1457 14.5569C25.7233 14.7256 25.132 14.8944 25.0898 14.2193C25.0898 13.8396 25.132 13.5442 25.301 13.2066C25.5544 12.7003 25.7656 12.5737 26.2724 12.3206C26.4414 12.3206 26.6526 12.405 26.7793 12.4472C27.0327 12.5315 27.2862 12.7847 27.3284 13.0801C27.3706 13.3754 27.1595 13.6286 26.9905 13.8396ZM32.2703 11.0125C32.0591 11.6877 31.7635 12.3206 31.4678 12.9113C31.1299 13.6708 31.0876 14.4725 30.8764 15.2742C30.792 15.7383 30.5385 16.2446 30.1162 16.4134C29.905 16.4978 29.736 16.4556 29.5248 16.4556C29.3136 16.4556 28.9757 16.54 28.9757 16.7088C28.849 16.3712 28.68 15.9493 28.5956 15.6117C28.5111 15.232 28.4688 14.81 28.4266 14.3881C28.3421 13.9661 28.3421 13.5442 28.2999 13.1223C28.2577 12.7425 28.1732 12.3206 28.1732 11.9408C28.1732 10.6328 28.9335 8.98722 30.1584 8.3965C30.5385 8.22772 30.9187 8.14333 31.3411 8.18552C31.8057 8.26991 32.1014 8.3965 32.3126 8.86064C32.566 9.49355 32.4393 10.3374 32.2703 11.0125Z" fill="url(#paint5_linear_2888_47752)" fill-opacity="0.5"/>
<path opacity="0.4" fill-rule="evenodd" clip-rule="evenodd" d="M26.4412 12.2363C26.3989 12.2785 26.3145 12.2785 26.2722 12.3207C26.1455 12.3207 26.061 12.2785 25.9766 12.3207L26.4412 12.2363Z" fill="url(#paint6_linear_2888_47752)" fill-opacity="0.5"/>
<path opacity="0.4" fill-rule="evenodd" clip-rule="evenodd" d="M1.30908 21.1816C1.26684 21.1816 1.22461 21.1816 1.22461 21.1816C1.30909 21.1393 1.30908 21.1393 1.30908 21.1816Z" fill="url(#paint7_linear_2888_47752)" fill-opacity="0.5"/>
<path opacity="0.3" fill-rule="evenodd" clip-rule="evenodd" d="M8.57487 36.456C8.57487 36.456 10.3911 37.1311 11.7005 36.7514C11.7005 36.7514 12.2074 32.4897 10.6023 29.7471C8.99725 27.0045 6.25174 31.1395 6.25174 31.1395L5.61816 33.7556C5.61816 33.7556 7.13876 35.5699 8.57487 36.456Z" fill="black" fill-opacity="0.5"/>
<path fill-rule="evenodd" clip-rule="evenodd" d="M4.13965 37.3843C4.18189 37.4265 4.22413 37.4688 4.22413 37.5532C4.13965 37.5532 4.13965 37.511 4.13965 37.4265C4.13965 37.342 4.18189 37.3843 4.22413 37.2998C4.22413 37.2998 4.22412 37.2998 4.26636 37.2998L4.13965 37.3843Z" fill="#0EDBFF"/>
<defs>
<radialGradient id="paint0_radial_2888_47752" cx="0" cy="0" r="1" gradientUnits="userSpaceOnUse" gradientTransform="translate(7.58074 10.6353) scale(32.1442 32.1105)">
<stop offset="0.00558659" stop-color="#60DBFF"/>
<stop offset="0.0937306" stop-color="#60D5FF"/>
<stop offset="0.211" stop-color="#5FC4FF"/>
<stop offset="0.3446" stop-color="#5DA9FF"/>
<stop offset="0.4903" stop-color="#5A82FF"/>
<stop offset="0.6442" stop-color="#5751FF"/>
<stop offset="0.6844" stop-color="#5643FF"/>
<stop offset="0.7432" stop-color="#563DF8"/>
<stop offset="0.8282" stop-color="#552EE5"/>
<stop offset="0.9287" stop-color="#5315C6"/>
<stop offset="1" stop-color="#5200AB"/>
</radialGradient>
<linearGradient id="paint1_linear_2888_47752" x1="-0.0372545" y1="14.5012" x2="28.7483" y2="14.5012" gradientUnits="userSpaceOnUse">
<stop offset="0.0111732" stop-color="#81E0FF"/>
<stop offset="0.3224" stop-color="#82DDFF"/>
<stop offset="0.5506" stop-color="#86D4FF"/>
<stop offset="0.7523" stop-color="#8BC4FF"/>
<stop offset="0.9375" stop-color="#94ADFF"/>
<stop offset="1" stop-color="#97A4FF"/>
</linearGradient>
<linearGradient id="paint2_linear_2888_47752" x1="0.145742" y1="8.84312" x2="25.3119" y2="8.84312" gradientUnits="userSpaceOnUse">
<stop stop-color="#B8C2FF"/>
<stop offset="1" stop-color="#7D72B3"/>
</linearGradient>
<linearGradient id="paint3_linear_2888_47752" x1="4.2295" y1="27.5555" x2="39.9845" y2="27.5555" gradientUnits="userSpaceOnUse">
<stop stop-color="#B8C2FF"/>
<stop offset="1" stop-color="#7D72B3"/>
</linearGradient>
<linearGradient id="paint4_linear_2888_47752" x1="2.11842" y1="20.1674" x2="37.8017" y2="20.1674" gradientUnits="userSpaceOnUse">
<stop stop-color="#B8C2FF"/>
<stop offset="1" stop-color="#7D72B3"/>
</linearGradient>
<linearGradient id="paint5_linear_2888_47752" x1="-0.0363675" y1="15.1863" x2="35.0386" y2="15.1863" gradientUnits="userSpaceOnUse">
<stop stop-color="#B8C2FF"/>
<stop offset="1" stop-color="#7D72B3"/>
</linearGradient>
<linearGradient id="paint6_linear_2888_47752" x1="25.9487" y1="12.2983" x2="26.4302" y2="12.2983" gradientUnits="userSpaceOnUse">
<stop stop-color="#E8DDFF"/>
<stop offset="1" stop-color="#AA8AD8"/>
</linearGradient>
<linearGradient id="paint7_linear_2888_47752" x1="1.21781" y1="21.1861" x2="1.31778" y2="21.1861" gradientUnits="userSpaceOnUse">
<stop stop-color="#E8DDFF"/>
<stop offset="1" stop-color="#AA8AD8"/>
</linearGradient>
</defs>
</svg>
