<svg width="19" height="13" viewBox="0 0 19 13" fill="none" xmlns="http://www.w3.org/2000/svg">
<path d="M7.94888 2.47494C8.3115 2.13499 8.32987 1.56543 7.98992 1.20281C7.64996 0.840191 7.08041 0.821819 6.71779 1.16178L7.94888 2.47494ZM2 6.81836L1.38445 6.16178L0.684097 6.81836L1.38445 7.47494L2 6.81836ZM6.71779 12.4749C7.08041 12.8149 7.64996 12.7965 7.98992 12.4339C8.32987 12.0713 8.3115 11.5017 7.94888 11.1618L6.71779 12.4749ZM18 7.71836C18.4971 7.71836 18.9 7.31542 18.9 6.81836C18.9 6.3213 18.4971 5.91836 18 5.91836V7.71836ZM6.71779 1.16178L1.38445 6.16178L2.61555 7.47494L7.94888 2.47494L6.71779 1.16178ZM1.38445 7.47494L6.71779 12.4749L7.94888 11.1618L2.61555 6.16178L1.38445 7.47494ZM2 7.71836L18 7.71836V5.91836L2 5.91836L2 7.71836Z" fill="white"/>
</svg>
