<svg width="14" height="14" viewBox="0 0 14 14" fill="none" xmlns="http://www.w3.org/2000/svg">
<path d="M13.667 7.08683L13.667 6.9135C13.667 3.28683 10.7137 0.333496 7.08699 0.333496L6.91366 0.333496C3.28699 0.333496 0.33366 3.28683 0.33366 6.9135L0.33366 7.08683C0.33366 10.7135 3.28699 13.6668 6.91366 13.6668L7.08699 13.6668C10.7137 13.6668 13.667 10.7135 13.667 7.08683ZM6.50033 9.06016L6.50033 6.14683L5.70699 6.9335C5.51366 7.1335 5.20033 7.1335 5.00033 6.9335C4.90699 6.84016 4.85366 6.7135 4.85366 6.58016C4.85366 6.4535 4.90699 6.32683 5.00033 6.22683L6.64699 4.58683C6.84033 4.3935 7.16032 4.3935 7.35366 4.58683L9.00033 6.22683C9.19366 6.42683 9.19366 6.74016 9.00033 6.9335C8.80033 7.1335 8.48699 7.1335 8.29366 6.9335L7.50033 6.14683L7.50033 9.06016C7.50033 9.34016 7.27366 9.56016 7.00033 9.56016C6.72699 9.56016 6.50033 9.34016 6.50033 9.06016Z" fill="white" fill-opacity="0.8"/>
</svg>
