<svg width="20" height="23" viewBox="0 0 20 23" fill="none" xmlns="http://www.w3.org/2000/svg">
<path d="M10.4011 22.1043L10.7413 22.7727H10.7413L10.4011 22.1043ZM9.59888 22.1043L9.25872 22.7727H9.25872L9.59888 22.1043ZM18.25 10.728C18.25 13.7412 16.6831 16.1827 14.828 18.0175C12.9744 19.8509 10.901 21.0083 10.061 21.4358L10.7413 22.7727C11.6475 22.3115 13.8736 21.0713 15.8828 19.084C17.8906 17.0982 19.75 14.2959 19.75 10.728H18.25ZM10 2.47803C14.5563 2.47803 18.25 6.17168 18.25 10.728H19.75C19.75 5.34325 15.3848 0.978027 10 0.978027V2.47803ZM1.75 10.728C1.75 6.17168 5.44365 2.47803 10 2.47803V0.978027C4.61522 0.978027 0.25 5.34325 0.25 10.728H1.75ZM9.93904 21.4358C9.099 21.0083 7.0256 19.8509 5.17199 18.0175C3.31687 16.1827 1.75 13.7412 1.75 10.728H0.25C0.25 14.2959 2.10942 17.0982 4.11717 19.084C6.12643 21.0713 8.35248 22.3115 9.25872 22.7727L9.93904 21.4358ZM10.061 21.4358C10.0208 21.4563 9.97918 21.4563 9.93904 21.4358L9.25872 22.7727C9.72632 23.0107 10.2737 23.0107 10.7413 22.7727L10.061 21.4358ZM13.1071 10.728C13.1071 12.4441 11.716 13.8352 10 13.8352V15.3352C12.5445 15.3352 14.6071 13.2725 14.6071 10.728H13.1071ZM10 7.62088C11.716 7.62088 13.1071 9.012 13.1071 10.728H14.6071C14.6071 8.18357 12.5445 6.12088 10 6.12088V7.62088ZM6.89286 10.728C6.89286 9.012 8.28397 7.62088 10 7.62088V6.12088C7.45554 6.12088 5.39286 8.18357 5.39286 10.728H6.89286ZM10 13.8352C8.28397 13.8352 6.89286 12.4441 6.89286 10.728H5.39286C5.39286 13.2725 7.45554 15.3352 10 15.3352V13.8352Z" fill="white"/>
</svg>

