<svg width="147" height="65" viewBox="0 0 147 65" fill="none" xmlns="http://www.w3.org/2000/svg">
<path d="M0 49.4316C0 53.2764 1.50506 56.9833 4.20733 59.7074C6.9096 62.4316 10.5696 63.9833 14.3836 63.9833H23.756C23.9613 63.9833 24.1665 63.8971 24.3204 63.7419C24.4743 63.5867 24.5599 63.3798 24.5599 63.1729V56.7247C24.5599 56.5178 24.4743 56.3109 24.3204 56.1557C24.1665 56.0005 23.9613 55.9143 23.756 55.9143H16.5044C12.3141 55.9143 8.02129 52.4661 8.03839 48.2419L8.12391 16.1385C8.12391 15.9316 8.0384 15.7247 7.88447 15.5695C7.74765 15.4316 7.54241 15.3454 7.33717 15.3281H0.872251C0.769634 15.3281 0.667016 15.3454 0.564398 15.3798C0.46178 15.4143 0.376265 15.4833 0.307853 15.5523C0.239442 15.6385 0.17103 15.7247 0.136824 15.8281C0.0855148 15.9316 0.0684119 16.035 0.0684119 16.1385L0 49.4316Z" fill="white"/>
<path d="M146.213 15.6201H139.8C139.594 15.6201 139.389 15.7063 139.235 15.8615C139.081 16.0167 138.996 16.2236 138.996 16.4305L138.876 63.4477C138.876 63.5511 138.893 63.6546 138.944 63.758C138.979 63.8615 139.047 63.9477 139.115 64.0167C139.184 64.0856 139.286 64.1546 139.372 64.1891C139.475 64.2236 139.577 64.258 139.68 64.258H146.111C146.213 64.258 146.316 64.2408 146.418 64.1891C146.521 64.1546 146.607 64.0856 146.675 64.0167C146.743 63.9477 146.812 63.8615 146.846 63.758C146.88 63.6546 146.914 63.5511 146.914 63.4477L147.017 16.4305C147.017 16.327 147 16.2236 146.966 16.1201C146.931 16.0167 146.863 15.9305 146.795 15.8443C146.726 15.7753 146.624 15.7063 146.538 15.6718C146.418 15.6374 146.316 15.6201 146.213 15.6201Z" fill="white"/>
<path d="M114.847 56.8974C113.102 56.8974 111.375 56.3801 109.921 55.3974C108.468 54.4146 107.339 53.018 106.655 51.3974C105.988 49.7594 105.817 47.9663 106.159 46.2422C106.501 44.518 107.339 42.9146 108.587 41.6732C109.819 40.4318 111.409 39.5698 113.12 39.2422C114.83 38.8974 116.626 39.087 118.233 39.7594C119.858 40.4318 121.226 41.587 122.201 43.0525C123.176 44.518 123.689 46.2422 123.689 48.018C123.689 49.1905 123.45 50.3456 123.005 51.4318C122.56 52.518 121.91 53.5008 121.072 54.3284C120.251 55.156 119.277 55.8111 118.199 56.2594C117.122 56.7077 115.976 56.9318 114.813 56.9318H114.847V56.8974ZM130.924 31.8112H124.51C124.407 31.8112 124.305 31.8284 124.202 31.8629C124.1 31.8974 124.014 31.9663 123.946 32.0353C123.877 32.1043 123.809 32.1905 123.775 32.2939C123.74 32.3974 123.706 32.5008 123.706 32.6043V33.5008C121.158 31.9146 118.216 31.0353 115.223 30.9663C112.213 30.8974 109.254 31.6387 106.638 33.1043C104.021 34.5698 101.832 36.7249 100.292 39.3284C98.7702 41.9318 97.9663 44.9146 97.9492 47.9318C97.9492 50.9663 98.736 53.9318 100.258 56.5525C101.78 59.1732 103.952 61.3284 106.569 62.8111C109.186 64.2939 112.145 65.0525 115.155 64.9836C118.165 64.9318 121.09 64.0698 123.655 62.4836V63.3801C123.655 63.4836 123.672 63.587 123.706 63.6905C123.74 63.7939 123.809 63.8801 123.877 63.9491C123.946 64.018 124.031 64.087 124.134 64.1215C124.236 64.156 124.339 64.1905 124.442 64.1905H130.855C131.061 64.1905 131.266 64.1042 131.42 63.9491C131.574 63.7939 131.659 63.587 131.659 63.3801L131.728 32.5698C131.728 32.4663 131.71 32.3629 131.659 32.2594C131.625 32.156 131.557 32.0698 131.488 32.0008C131.42 31.9318 131.334 31.8629 131.232 31.8284C131.129 31.8284 131.026 31.8112 130.924 31.8112Z" fill="white"/>
<path d="M80.1262 39.0009C81.6484 38.8974 83.1706 39.1905 84.5559 39.8629C85.9241 40.5354 87.1043 41.5526 87.9765 42.8112C88.0962 42.9836 88.2673 43.1043 88.4554 43.156C88.6606 43.2078 88.8659 43.1733 89.0369 43.0698L94.6125 39.8457C94.698 39.794 94.7835 39.7078 94.8519 39.6216C94.9203 39.5353 94.9716 39.4319 94.9887 39.3285C95.0229 39.225 95.0229 39.1043 95.0058 39.0009C94.9887 38.8974 94.9545 38.794 94.9032 38.6905C92.9193 35.6043 90.0118 33.2595 86.5912 31.9836C83.1706 30.7078 79.4421 30.5871 75.9531 31.6216C72.4641 32.656 69.4027 34.8112 67.2135 37.7595C65.0414 40.7078 63.8613 44.2767 63.8613 47.9491C63.8613 51.6216 65.0414 55.1905 67.2135 58.1388C69.3856 61.0871 72.4641 63.225 75.9531 64.2767C79.4421 65.3284 83.1706 65.1905 86.5912 63.9146C90.0118 62.6388 92.9193 60.294 94.9032 57.2078C94.9545 57.1216 95.0058 57.0181 95.0229 56.8974C95.04 56.794 95.04 56.6733 95.0058 56.5698C94.9716 56.4664 94.9374 56.3629 94.869 56.2767C94.8006 56.1905 94.7151 56.1215 94.6296 56.0526L89.0711 52.794C88.9001 52.6905 88.6948 52.656 88.4896 52.7078C88.2844 52.7595 88.1133 52.8802 88.0107 53.0526C87.1556 54.2767 85.9926 55.2595 84.6585 55.9147C83.3245 56.5698 81.8365 56.8802 80.3486 56.794C78.8606 56.7078 77.424 56.2595 76.1584 55.4664C74.8927 54.6733 73.8495 53.5698 73.114 52.2595C72.3786 50.9491 71.9852 49.4836 71.9852 47.9664C71.9681 46.4664 72.3444 44.9836 73.0456 43.656C73.7468 42.3285 74.773 41.2078 76.0386 40.3974C77.2872 39.5871 78.7238 39.1043 80.2118 39.0009H80.1262V39.0009Z" fill="white"/>
<path d="M38.9767 55.9828C40.5673 56.7069 42.346 56.931 44.0734 56.6379C45.8008 56.3448 47.3913 55.5345 48.657 54.3276C49.9226 53.1207 50.8119 51.5517 51.2053 49.8276C51.5987 48.1034 51.4618 46.3103 50.8461 44.6724C50.2133 43.0172 49.1187 41.6034 47.6992 40.5862C46.2796 39.569 44.5865 39 42.8248 38.9483C41.0803 38.8965 39.3529 39.3793 37.865 40.3103C36.377 41.2414 35.214 42.6034 34.4957 44.2241C34.0168 45.2931 33.7603 46.4483 33.7261 47.6207C33.6919 48.7931 33.8971 49.9655 34.3076 51.0517C34.718 52.1379 35.3508 53.1552 36.1547 54C36.9585 54.8276 37.9163 55.5 38.9767 55.9828ZM49.4779 32.2931C52.5222 33.6724 55.1048 35.9138 56.8835 38.7586C58.6622 41.6034 59.5686 44.931 59.4831 48.2931C59.3976 51.6552 58.3201 54.931 56.3875 57.6724C54.4549 60.4138 51.7526 62.5345 48.6399 63.7241C45.5271 64.931 42.1236 65.1724 38.857 64.4138C35.6074 63.6724 32.6315 61.9655 30.3397 59.5172C28.0479 57.069 26.5257 53.9827 25.9613 50.6724C25.3969 47.3448 25.8416 43.9483 27.2098 40.8621C29.0399 36.7586 32.4262 33.5517 36.5994 31.9483C40.7554 30.3448 45.3903 30.4655 49.4779 32.2931Z" fill="white"/>
<path d="M55.7216 18.2413C51.8563 16.4827 47.7003 15.5344 43.4588 15.3965C43.3562 15.3965 43.2535 15.4137 43.1509 15.4482C43.0483 15.4827 42.9628 15.5517 42.8773 15.6206C42.8089 15.6896 42.7405 15.793 42.7062 15.8792C42.672 15.9827 42.6378 16.0861 42.6549 16.1896V22.6723C42.6549 22.8792 42.7234 23.0861 42.8773 23.2413C43.0141 23.3965 43.2193 23.4827 43.4246 23.4827C49.7185 23.7068 55.6703 26.3965 60.0316 30.9827C60.1855 31.1206 60.3736 31.2068 60.5789 31.2068C60.7841 31.2068 60.9893 31.1206 61.1262 30.9827L65.915 26.6379C66.0005 26.5689 66.0518 26.4827 66.1031 26.3792C66.1544 26.2758 66.1715 26.1723 66.1715 26.0689C66.1715 25.9654 66.1544 25.862 66.1202 25.7586C66.086 25.6551 66.0176 25.5689 65.9492 25.4827C63.0588 22.431 59.5698 19.9654 55.7216 18.2413Z" fill="white"/>
<path d="M61.9471 4.17241C56.1321 1.53448 49.8553 0.12069 43.493 0C43.3903 0 43.2877 0.0172414 43.1851 0.0517241C43.0825 0.0862069 42.997 0.155172 42.9115 0.224138C42.843 0.293103 42.7746 0.396552 42.7404 0.482759C42.7062 0.568966 42.672 0.689655 42.6891 0.793103V7.27586C42.6891 7.48276 42.7746 7.68966 42.9115 7.84483C43.0483 8 43.2535 8.08621 43.4588 8.08621C48.7094 8.2069 53.8745 9.39655 58.6633 11.5517C63.4521 13.7241 67.7621 16.8276 71.3366 20.6897C71.4734 20.8448 71.6787 20.931 71.8839 20.9483C72.0891 20.9655 72.2944 20.8793 72.4654 20.7414L77.2542 16.4138C77.3397 16.3448 77.4081 16.2586 77.4424 16.1552C77.4937 16.0517 77.5108 15.9483 77.5279 15.8448C77.5279 15.7414 77.5108 15.6379 77.4766 15.5345C77.4424 15.431 77.391 15.3448 77.3055 15.2586C72.9956 10.569 67.7621 6.7931 61.9471 4.17241Z" fill="white"/>
</svg>

