<svg width="351" height="91" viewBox="0 0 351 91" fill="none" xmlns="http://www.w3.org/2000/svg">
<path d="M7.39451 6.04H4.24951C3.14451 6.125 2.03951 6.21 1.01951 6.29499C0.509512 6.38 0.254512 6.635 0.254512 7.06C0.254512 7.23 0.339512 7.48499 0.509512 7.74C0.849512 8.24999 1.27451 8.42 1.86951 8.59C3.22951 8.845 4.58951 8.93 5.94951 9.015C9.43451 9.185 12.8345 9.27 16.3195 9.27H22.0995C24.0545 9.27 26.0095 9.27 27.8795 9.355H29.6645C33.5745 10.12 37.3995 11.225 40.8845 13.435C44.3695 15.645 46.6645 18.705 47.3445 22.87C47.5145 23.89 47.5995 24.91 47.5995 25.93C47.5995 28.14 47.1745 30.35 46.4945 32.56C46.2395 33.325 45.8145 34.005 45.3045 34.6C41.3945 38.935 37.5695 43.185 33.7445 47.52C26.6895 55.51 19.8895 63.67 13.1745 72C9.94451 75.995 6.62951 80.075 3.56951 84.24C3.14451 84.92 2.71951 85.515 2.37951 86.195C2.29451 86.365 2.29451 86.535 2.29451 86.705C2.29451 87.045 2.46451 87.385 2.71951 87.64C2.88951 87.81 3.05951 87.81 3.22951 87.81C3.48451 87.81 3.82451 87.64 3.99451 87.47C4.75951 86.96 5.52451 86.365 6.11951 85.685C9.34951 82.54 12.6645 79.48 15.7245 76.25C21.2495 70.64 26.6895 64.86 31.7895 58.825C36.0395 53.725 40.1195 48.455 43.5195 42.675C44.9645 40.125 46.6645 37.66 48.7895 35.535C53.6345 30.605 58.5645 25.59 63.6645 20.66C67.0645 17.43 70.4645 14.2 73.6095 10.715C74.5445 9.61 75.4795 9.27 76.9245 9.27C88.3995 9.355 99.7895 9.27 111.265 9.525C115.515 9.695 119.765 9.78 124.015 9.95C126.055 10.035 128.095 10.035 130.135 10.375C131.07 10.46 132.005 10.46 132.94 10.63C133.28 10.63 133.705 10.63 133.79 10.205V10.035C133.79 9.695 133.535 9.525 133.195 9.43999C132.855 9.355 132.515 9.27 132.09 9.27C128.86 8.845 125.63 8.67499 122.315 8.505C117.215 8.24999 112.115 7.995 107.015 7.91C98.3445 7.825 89.5895 7.57 80.9195 7.57H77.1795C76.4995 7.57 76.0745 7.4 75.5645 6.89C75.0545 6.29499 74.7145 5.955 74.2895 5.955C73.9495 5.955 73.6095 6.21 73.1845 6.55C72.3345 7.315 71.4845 7.4 70.4645 7.4C61.1145 7.23 51.7645 7.4 42.4145 7.145C39.7795 7.06 37.1445 7.06 34.5095 7.06H25.5845C25.1595 7.06 24.8195 7.06 24.3945 6.975C18.7845 6.29499 13.0895 6.21 7.39451 6.04ZM36.1245 9.355H69.9545C66.3845 13.01 62.7295 16.325 59.3295 19.81C55.8445 23.465 52.3595 26.865 48.8745 30.52C48.9595 28.99 49.1295 27.545 49.1295 26.015C49.1295 25.25 49.1295 24.57 48.9595 23.805C48.6195 21.595 47.9395 19.47 46.7495 17.515C45.4745 15.56 43.8595 13.945 42.0745 12.67C40.2045 11.31 38.1645 10.375 36.1245 9.355ZM8.92451 80.33C18.8695 68.09 29.2395 56.275 40.1195 44.885C39.9495 45.14 39.7795 45.48 39.6095 45.82C36.3795 50.75 32.6395 55.34 28.8145 59.76C23.0345 66.475 16.9995 72.85 10.6245 79.055C10.1145 79.48 9.68951 79.99 8.92451 80.33ZM67.3687 52.45C68.0487 51.43 68.6437 50.75 69.3237 50.07L73.9987 45.395C74.5087 44.885 74.9337 44.29 75.4437 43.78C75.6987 43.355 75.8687 42.93 75.8687 42.505C75.8687 42.25 75.7837 41.995 75.6137 41.655C75.1887 41.145 74.6787 40.805 74.0837 40.805C73.9987 40.805 73.8287 40.89 73.6587 40.89C73.2337 40.975 72.8087 41.06 72.3837 41.23C71.0237 41.655 69.7487 42.25 68.3887 42.845C64.1387 44.885 60.1437 47.265 56.0637 49.645C55.5537 49.9 55.1287 50.325 54.5337 50.325V50.155C54.5337 49.73 54.7887 49.56 55.0437 49.305C57.9337 45.82 61.0787 42.59 64.2237 39.36C64.6487 38.935 65.1587 38.68 65.7537 38.51C68.3037 37.745 70.7687 36.555 73.2337 35.365C79.8637 31.965 86.1537 27.97 92.2737 23.635C98.3087 19.385 104.004 14.795 109.104 9.43999C110.209 8.24999 111.229 7.06 112.164 5.7C112.504 5.10499 112.844 4.51 113.014 3.745V3.32C113.014 1.95999 112.079 0.939998 110.719 0.854999H110.209C109.699 0.854999 109.274 0.939998 108.849 1.025C107.659 1.365 106.469 1.875 105.364 2.38499C100.774 4.595 96.6087 7.4 92.5287 10.46C84.6237 16.325 77.3137 22.955 70.2587 29.84C66.0087 33.92 62.0137 38.255 58.0187 42.59C56.2337 44.545 54.5337 46.415 52.9187 48.455C52.4937 49.135 51.9837 49.815 51.5587 50.58C51.4737 50.835 51.3887 51.09 51.3887 51.345C51.3887 51.685 51.4737 52.025 51.7287 52.28C52.0687 52.705 52.4937 52.875 53.0037 52.875C53.1737 52.875 53.4287 52.875 53.5987 52.79C54.1937 52.62 54.7037 52.365 55.2987 52.025C57.5937 50.75 59.8887 49.39 62.1837 48.115C65.3287 46.33 68.5587 44.63 71.8737 43.27C72.1287 43.185 72.3837 43.1 72.7237 43.1C72.8087 43.1 72.9787 43.1 73.1487 43.185C71.3637 45.14 69.4937 46.84 67.6237 48.625C66.9437 49.305 66.3487 50.155 65.8387 51.005C65.5837 51.345 65.4987 51.77 65.4987 52.11C65.4987 52.45 65.5837 52.875 65.8387 53.215C66.3487 53.81 66.8587 54.235 67.6237 54.235C67.7087 54.235 67.8787 54.15 68.0487 54.15C69.0687 53.98 70.0887 53.725 71.0237 53.385C74.7637 52.11 78.4187 50.92 82.1587 49.645C83.6887 49.135 85.2187 48.71 86.6637 48.2C87.2587 48.03 87.7687 47.775 88.2787 47.52C88.5337 47.35 88.7887 47.265 88.7887 47.01C88.7887 46.925 88.7037 46.84 88.7037 46.755C88.5337 46.5 88.3637 46.415 88.1087 46.415H87.8537C87.6837 46.415 87.5987 46.5 87.4287 46.5C82.4137 48.115 77.3987 49.645 72.2987 51.175C70.7687 51.685 69.2387 52.195 67.3687 52.45ZM67.9637 35.875C69.2387 34.515 70.5987 33.07 71.9587 31.795C76.6337 27.375 81.3087 23.04 86.3237 18.875C92.4437 13.86 98.6487 9.1 105.619 5.275C107.149 4.33999 108.764 3.57499 110.464 3.14999C110.634 3.065 110.804 2.98 110.974 2.98C111.059 2.98 111.144 3.065 111.314 3.14999C111.314 3.83 110.889 4.425 110.464 5.02C109.529 6.55 108.254 7.91 107.064 9.185C102.474 14.115 97.3737 18.365 91.9337 22.19C85.5587 26.695 78.8437 30.69 71.9587 34.26C70.6837 34.94 69.4087 35.535 67.9637 35.875ZM108.24 34.345C109.26 34.26 110.11 33.75 110.79 32.985C111.13 32.645 111.3 32.39 111.3 32.135C111.3 31.71 110.96 31.455 110.28 31.285C107.73 30.605 105.35 29.585 102.97 28.48C102.46 28.225 101.95 27.97 101.44 27.63C101.1 27.46 100.845 27.375 100.59 27.375C100.25 27.375 99.9097 27.545 99.5697 27.885C99.2297 28.14 99.1447 28.395 99.1447 28.65C99.1447 28.82 99.2297 29.075 99.4847 29.33C99.7397 29.585 99.9947 29.84 100.25 30.01C102.29 31.455 104.5 32.645 106.625 33.835C107.135 34.09 107.645 34.26 108.24 34.345ZM95.7447 47.775C95.8297 47.86 95.8297 47.945 95.9147 48.03C95.3197 48.88 94.7247 49.815 94.3847 50.75C94.2147 51.09 94.2147 51.43 94.2147 51.77C94.2147 52.62 94.7247 53.3 95.6597 53.725C96.0847 53.895 96.5097 53.98 96.9347 53.98H97.3597C98.8897 53.81 100.42 53.3 101.865 52.79C106.965 51.005 112.15 49.22 117.335 47.435C117.59 47.35 117.845 47.265 118.015 47.095C118.185 47.01 118.355 46.925 118.355 46.755V46.585C118.355 46.33 118.185 46.245 117.93 46.16C117.845 46.075 117.675 46.075 117.59 46.075C117.335 46.075 117.08 46.16 116.825 46.245L111.215 48.03C106.88 49.39 102.63 50.92 98.2097 52.025C97.7847 52.11 97.2747 52.365 96.9347 52.365C96.7647 52.365 96.5947 52.28 96.5097 52.11C96.4247 51.94 96.3397 51.855 96.3397 51.685C96.3397 51.175 96.8497 50.75 97.1047 50.325C98.2097 48.71 99.5697 47.18 100.93 45.82L102.97 43.78C103.225 43.525 103.31 43.27 103.31 43.015C103.31 42.76 103.225 42.59 103.055 42.335C102.715 41.91 102.375 41.74 102.12 41.74C101.865 41.74 101.61 41.825 101.355 41.995C99.9947 42.93 98.6347 43.78 97.3597 44.715C97.0197 44.97 96.7647 45.055 96.5097 45.055C96.2547 45.055 95.9997 44.97 95.7447 44.715C94.8097 43.865 93.7897 43.525 92.7697 43.525C91.7497 43.525 90.8147 43.865 89.7947 44.375C87.9247 45.48 86.4797 46.925 85.3747 48.71C85.1197 49.05 84.9497 49.305 84.8647 49.645C84.7797 49.9 84.6947 50.155 84.6947 50.41C84.6947 51.43 85.4597 52.195 86.5647 52.195H86.9047C87.5847 52.11 88.1797 51.855 88.7747 51.6C90.3897 50.665 92.0047 49.815 93.7047 48.88C94.3847 48.54 95.0647 48.115 95.7447 47.775ZM87.5847 50.155C89.5397 47.775 92.2597 46.075 93.9597 46.075C94.1297 46.075 94.3847 46.075 94.5547 46.16C93.8747 47.01 90.2197 49.05 87.5847 50.155ZM97.2747 33.155C96.5097 33.155 95.9147 33.58 95.3197 34.005C93.7047 35.28 92.0897 36.64 90.5597 38.085C90.3897 38.255 90.2197 38.425 90.0497 38.68C89.9647 38.765 89.8797 38.935 89.8797 39.105C89.8797 39.275 89.9647 39.445 90.0497 39.615C90.3897 40.125 90.8997 40.38 91.4947 40.38C91.6647 40.38 91.9197 40.295 92.1747 40.21C92.5997 39.955 93.0247 39.615 93.4497 39.36C94.7247 38.425 95.8297 37.405 97.1047 36.64C97.6147 36.3 97.9547 36.13 98.2097 36.13C98.5497 36.13 98.8047 36.385 99.3147 36.895C100.505 38 101.61 39.105 102.8 40.125C103.055 40.38 103.31 40.72 103.65 40.72C103.735 40.72 103.905 40.635 103.99 40.55C104.16 40.38 104.245 40.295 104.245 40.125C104.245 39.87 103.905 39.615 103.735 39.36C102.715 38.085 101.695 36.81 100.59 35.535C100.08 34.94 99.4847 34.345 98.9747 33.835C98.4647 33.41 97.8697 33.155 97.2747 33.155ZM131.916 45.14C131.066 46.415 130.386 47.435 129.791 48.54C129.451 49.05 129.111 49.645 129.026 50.24C128.941 50.495 128.941 50.75 128.941 51.005C128.941 52.195 129.706 53.045 130.981 53.045C131.151 53.045 131.406 52.96 131.576 52.96C132.341 52.79 133.106 52.535 133.871 52.195C137.781 50.75 141.606 49.22 145.601 47.945L146.366 47.69C146.621 47.605 146.791 47.52 146.791 47.265V47.095C146.791 46.755 146.536 46.585 146.196 46.5C145.771 46.5 145.346 46.67 144.921 46.755C141.096 47.775 137.356 49.22 133.616 50.41C133.106 50.58 132.681 50.75 132.256 50.835C132.001 50.92 131.661 51.09 131.406 51.09C131.321 51.09 131.151 51.005 131.066 50.92C130.981 50.835 130.981 50.75 130.981 50.58C130.981 50.325 131.236 49.985 131.406 49.73C132.001 48.88 132.681 48.03 133.276 47.095C133.616 46.585 133.956 46.075 134.211 45.565C134.381 45.225 134.466 44.97 134.466 44.715C134.466 44.29 134.296 43.95 133.956 43.525C133.616 43.1 133.191 42.93 132.766 42.93C132.511 42.93 132.341 42.93 132.086 43.015C131.151 43.27 130.216 43.695 129.366 44.12C125.286 46.16 121.376 48.455 117.381 50.835C117.211 51.005 116.956 51.09 116.701 51.09H116.446C116.616 50.75 116.956 50.58 117.211 50.325L123.331 44.205C123.756 43.695 124.011 43.355 124.011 42.93C124.011 42.505 123.671 42.08 123.076 41.655C122.821 41.485 122.566 41.315 122.311 41.315C121.971 41.315 121.546 41.57 121.036 42.165C118.316 44.97 115.596 47.86 113.216 51.09C112.876 51.6 112.451 52.195 112.281 52.79C112.196 53.045 112.111 53.215 112.111 53.47C112.111 53.725 112.281 54.065 112.536 54.405C112.876 54.66 113.216 54.83 113.556 54.83C113.726 54.83 113.896 54.745 114.151 54.66C114.576 54.49 115.001 54.235 115.426 53.98C119.846 51.26 124.266 48.54 129.026 46.33C129.876 45.905 130.726 45.48 131.916 45.14ZM255.597 5.615H256.532C258.912 5.615 261.207 5.87 263.502 6.465C264.437 6.72 265.372 7.06 266.137 7.57C266.987 8.08 267.327 8.67499 267.327 9.355C267.327 9.695 267.242 10.035 267.157 10.46C266.902 11.055 266.562 11.65 266.222 12.16C265.372 13.35 264.522 14.455 263.417 15.39C261.462 17.175 259.337 18.79 257.127 20.32C247.777 26.61 237.662 31.455 227.122 35.45C221.767 37.405 216.412 39.19 210.632 39.36C210.377 39.36 210.037 39.36 209.952 39.7C209.952 40.04 210.122 40.21 210.292 40.38C210.717 40.635 211.142 40.805 211.567 40.805C212.417 40.805 213.352 40.805 214.202 40.635C217.857 40.21 221.427 39.275 224.912 38.085C233.922 35.025 242.507 31.115 250.752 26.525C255.087 24.06 259.337 21.51 263.247 18.28C264.862 16.92 266.477 15.39 267.752 13.605C268.602 12.415 268.942 11.055 268.942 9.865C268.942 7.48499 267.582 5.36 265.287 4.33999C264.097 3.745 262.822 3.32 261.547 3.065C259.422 2.64 257.297 2.555 255.172 2.555C253.047 2.555 250.922 2.64 248.797 2.895C241.402 3.745 234.177 5.52999 227.122 7.825C217.177 10.97 207.657 15.135 198.392 20.065C191.252 23.89 184.367 28.14 178.077 33.155C175.357 35.28 172.807 37.49 170.597 40.125C169.407 41.485 168.302 42.93 167.537 44.63C167.112 45.65 166.942 46.585 166.942 47.435C166.942 48.965 167.622 50.41 169.067 51.77C170.682 53.385 172.722 54.235 174.847 54.915C178.162 55.935 181.562 56.53 184.962 57.04C191.762 58.06 198.562 58.825 205.277 60.015C209.357 60.695 213.437 61.545 217.432 62.905C218.792 63.5 220.152 64.095 221.427 65.03C222.447 65.795 222.872 66.56 222.872 67.495C222.872 68.09 222.702 68.685 222.362 69.45C221.767 70.555 220.917 71.49 219.982 72.425C217.517 74.635 214.712 76.335 211.822 77.95C206.892 80.67 201.622 82.795 196.352 84.58C191.167 86.28 185.982 87.725 180.627 88.49C179.607 88.66 178.672 88.66 177.652 88.66C176.887 88.66 176.037 88.66 175.272 88.575C174.422 88.49 173.997 88.15 173.997 87.64C173.997 87.3 174.082 86.96 174.422 86.535C174.677 86.195 174.932 85.94 175.187 85.685C176.037 84.835 177.057 84.24 178.077 83.73C180.712 82.285 183.517 81.095 186.322 80.16C192.272 78.12 198.052 75.91 204.427 75.91C204.767 75.91 205.107 75.91 205.107 75.485V75.4C205.107 75.145 204.852 74.975 204.597 74.805C204.002 74.55 203.322 74.465 202.727 74.465C202.387 74.465 202.132 74.55 201.792 74.55C200.432 74.72 199.072 74.89 197.712 75.145C191.082 76.42 184.707 78.63 178.502 81.18C177.057 81.775 175.697 82.37 174.507 83.305C173.572 83.9 172.807 84.665 172.297 85.6C172.127 86.025 171.957 86.45 171.957 86.875C171.957 87.47 172.212 88.065 172.637 88.575C173.487 89.68 174.677 90.105 175.952 90.36C176.802 90.53 177.652 90.615 178.417 90.615C180.372 90.615 182.327 90.275 184.197 89.935C192.102 88.49 199.667 86.11 207.062 83.05C211.482 81.265 215.647 79.225 219.557 76.505C221.342 75.23 222.957 73.785 224.147 71.915C224.827 70.81 225.167 69.79 225.167 68.685C225.167 67.75 224.912 66.73 224.317 65.795C223.297 64.095 221.852 62.82 220.152 61.97C217.262 60.44 214.117 59.505 210.972 58.825C202.812 56.955 194.567 56.02 186.322 54.745C182.582 54.235 178.842 53.64 175.187 52.705C173.827 52.28 172.467 51.855 171.192 51.175C170.002 50.495 169.492 49.56 169.492 48.37C169.492 48.115 169.492 47.775 169.577 47.435C169.747 46.5 170.172 45.565 170.597 44.715C171.617 42.93 172.977 41.4 174.422 39.955C177.822 36.47 181.647 33.58 185.642 30.86C193.037 25.845 200.772 21.595 208.932 17.94C218.282 13.605 227.972 10.12 238.087 7.825C243.782 6.55 249.647 5.615 255.597 5.615ZM248.538 33.835C249.133 33.75 249.643 33.58 250.153 33.325C252.278 32.135 254.488 30.945 256.528 29.5C256.783 29.33 257.038 29.075 257.293 28.82C257.548 28.565 257.633 28.31 257.633 28.14C257.633 27.885 257.548 27.63 257.208 27.375C256.868 27.035 256.528 26.865 256.188 26.865C255.933 26.865 255.678 26.95 255.338 27.12C254.828 27.46 254.318 27.715 253.808 27.97C251.428 29.075 249.048 30.095 246.498 30.775C245.818 30.945 245.478 31.2 245.478 31.625C245.478 31.88 245.648 32.135 245.988 32.475C246.668 33.24 247.518 33.75 248.538 33.835ZM228.308 57.295C228.393 57.21 228.563 57.21 228.648 57.21C228.988 57.125 229.413 57.125 229.668 56.955C234.088 55.425 237.828 53.045 240.548 49.22C241.058 48.625 241.483 48.285 242.333 48.2C245.393 48.115 248.453 47.86 251.598 47.69L254.403 47.435C254.743 47.435 255.083 47.435 255.083 47.01V46.925C255.083 46.5 254.743 46.33 254.318 46.33H253.978C252.703 46.33 251.343 46.33 250.068 46.415C247.603 46.67 245.053 46.5 242.503 46.755H242.248C241.908 46.755 241.653 46.585 241.483 45.99C241.143 44.035 240.123 43.185 238.338 43.185C237.998 43.185 237.658 43.185 237.318 43.27C237.148 43.27 236.893 43.355 236.723 43.355C236.468 43.355 236.298 43.27 236.043 43.185C235.618 42.845 235.278 42.675 234.853 42.675C234.258 42.675 233.663 43.1 233.068 43.61C230.518 45.82 228.308 48.37 226.693 51.345C226.183 52.195 225.758 53.13 225.588 54.15V54.575C225.588 56.105 226.778 57.295 228.308 57.295ZM238.678 48.37V48.54C238.678 48.965 238.508 49.05 238.253 49.305C235.788 52.195 232.558 54.15 228.988 55.34C228.733 55.425 228.393 55.595 228.138 55.595C227.968 55.595 227.798 55.51 227.713 55.425C227.543 55.255 227.543 55.17 227.543 55C227.543 54.745 227.798 54.405 227.883 54.15C228.733 52.45 229.923 51.005 231.198 49.645C231.963 48.71 232.898 47.86 233.748 47.01C233.918 46.84 234.088 46.67 234.343 46.67C234.428 46.67 234.598 46.67 234.683 46.84C235.703 47.945 237.063 48.115 238.423 48.285C238.508 48.285 238.593 48.37 238.678 48.37ZM238.593 46.755V46.84C237.828 46.755 237.063 46.67 236.383 46.5C236.043 46.415 235.873 46.245 235.873 46.075C235.873 45.905 235.958 45.82 236.128 45.65C236.808 44.97 237.658 44.8 238.593 44.8H239.103C239.698 44.885 240.038 45.14 240.038 45.735C240.038 46.33 239.698 46.67 239.103 46.755H238.593ZM240.378 32.645C239.613 32.645 239.018 33.07 238.423 33.495C236.808 34.77 235.193 36.13 233.663 37.575C233.493 37.745 233.323 37.915 233.153 38.17C233.068 38.255 232.983 38.425 232.983 38.595C232.983 38.765 233.068 38.935 233.153 39.105C233.493 39.615 234.003 39.87 234.598 39.87C234.768 39.87 235.023 39.785 235.278 39.7C235.703 39.445 236.128 39.105 236.553 38.85C237.828 37.915 238.933 36.895 240.208 36.13C240.718 35.79 241.058 35.62 241.313 35.62C241.653 35.62 241.908 35.875 242.418 36.385C243.608 37.49 244.713 38.595 245.903 39.615C246.158 39.87 246.413 40.21 246.753 40.21C246.838 40.21 247.008 40.125 247.093 40.04C247.263 39.87 247.348 39.785 247.348 39.615C247.348 39.36 247.008 39.105 246.838 38.85C245.818 37.575 244.798 36.3 243.693 35.025C243.183 34.43 242.588 33.835 242.078 33.325C241.568 32.9 240.973 32.645 240.378 32.645ZM287.588 52.45C288.268 51.43 288.863 50.75 289.543 50.07L294.218 45.395C294.728 44.885 295.153 44.29 295.663 43.78C295.918 43.355 296.088 42.93 296.088 42.505C296.088 42.25 296.003 41.995 295.833 41.655C295.408 41.145 294.898 40.805 294.303 40.805C294.218 40.805 294.048 40.89 293.878 40.89C293.453 40.975 293.028 41.06 292.603 41.23C291.243 41.655 289.968 42.25 288.608 42.845C284.358 44.885 280.363 47.265 276.283 49.645C275.773 49.9 275.348 50.325 274.753 50.325V50.155C274.753 49.73 275.008 49.56 275.263 49.305C278.153 45.82 281.298 42.59 284.443 39.36C284.868 38.935 285.378 38.68 285.973 38.51C288.523 37.745 290.988 36.555 293.453 35.365C300.083 31.965 306.373 27.97 312.493 23.635C318.528 19.385 324.223 14.795 329.323 9.43999C330.428 8.24999 331.448 7.06 332.383 5.7C332.723 5.10499 333.063 4.51 333.233 3.745V3.32C333.233 1.95999 332.298 0.939998 330.938 0.854999H330.428C329.918 0.854999 329.493 0.939998 329.068 1.025C327.878 1.365 326.688 1.875 325.583 2.38499C320.993 4.595 316.828 7.4 312.748 10.46C304.843 16.325 297.533 22.955 290.478 29.84C286.228 33.92 282.233 38.255 278.238 42.59C276.453 44.545 274.753 46.415 273.138 48.455C272.713 49.135 272.203 49.815 271.778 50.58C271.693 50.835 271.608 51.09 271.608 51.345C271.608 51.685 271.693 52.025 271.948 52.28C272.288 52.705 272.713 52.875 273.223 52.875C273.393 52.875 273.648 52.875 273.818 52.79C274.413 52.62 274.923 52.365 275.518 52.025C277.813 50.75 280.108 49.39 282.403 48.115C285.548 46.33 288.778 44.63 292.093 43.27C292.348 43.185 292.603 43.1 292.943 43.1C293.028 43.1 293.198 43.1 293.368 43.185C291.583 45.14 289.713 46.84 287.843 48.625C287.163 49.305 286.568 50.155 286.058 51.005C285.803 51.345 285.718 51.77 285.718 52.11C285.718 52.45 285.803 52.875 286.058 53.215C286.568 53.81 287.078 54.235 287.843 54.235C287.928 54.235 288.098 54.15 288.268 54.15C289.288 53.98 290.308 53.725 291.243 53.385C294.983 52.11 298.638 50.92 302.378 49.645C303.908 49.135 305.438 48.71 306.883 48.2C307.478 48.03 307.988 47.775 308.498 47.52C308.753 47.35 309.008 47.265 309.008 47.01C309.008 46.925 308.923 46.84 308.923 46.755C308.753 46.5 308.583 46.415 308.328 46.415H308.073C307.903 46.415 307.818 46.5 307.648 46.5C302.633 48.115 297.618 49.645 292.518 51.175C290.988 51.685 289.458 52.195 287.588 52.45ZM288.183 35.875C289.458 34.515 290.818 33.07 292.178 31.795C296.853 27.375 301.528 23.04 306.543 18.875C312.663 13.86 318.868 9.1 325.838 5.275C327.368 4.33999 328.983 3.57499 330.683 3.14999C330.853 3.065 331.023 2.98 331.193 2.98C331.278 2.98 331.363 3.065 331.533 3.14999C331.533 3.83 331.108 4.425 330.683 5.02C329.748 6.55 328.473 7.91 327.283 9.185C322.693 14.115 317.593 18.365 312.153 22.19C305.778 26.695 299.063 30.69 292.178 34.26C290.903 34.94 289.628 35.535 288.183 35.875ZM306.444 63.925C306.444 62.735 305.339 61.375 304.319 61.205C304.149 61.205 303.894 61.205 303.724 61.29C302.959 61.63 302.534 62.31 302.534 62.99C302.534 63.415 302.704 63.84 303.044 64.265C303.299 64.52 303.554 64.69 303.809 64.945C304.064 65.285 304.489 65.54 304.829 65.54C305.084 65.54 305.254 65.455 305.424 65.37C306.104 65.03 306.359 64.52 306.444 63.925ZM305.339 57.295C305.424 57.21 305.594 57.21 305.679 57.21C306.019 57.125 306.444 57.125 306.699 56.955C311.119 55.425 314.859 53.045 317.579 49.22C318.089 48.625 318.514 48.285 319.364 48.2C322.424 48.115 325.484 47.86 328.629 47.69L331.434 47.435C331.774 47.435 332.114 47.435 332.114 47.01V46.925C332.114 46.5 331.774 46.33 331.349 46.33H331.009C329.734 46.33 328.374 46.33 327.099 46.415C324.634 46.67 322.084 46.5 319.534 46.755H319.279C318.939 46.755 318.684 46.585 318.514 45.99C318.174 44.035 317.154 43.185 315.369 43.185C315.029 43.185 314.689 43.185 314.349 43.27C314.179 43.27 313.924 43.355 313.754 43.355C313.499 43.355 313.329 43.27 313.074 43.185C312.649 42.845 312.309 42.675 311.884 42.675C311.289 42.675 310.694 43.1 310.099 43.61C307.549 45.82 305.339 48.37 303.724 51.345C303.214 52.195 302.789 53.13 302.619 54.15V54.575C302.619 56.105 303.809 57.295 305.339 57.295ZM315.709 48.37V48.54C315.709 48.965 315.539 49.05 315.284 49.305C312.819 52.195 309.589 54.15 306.019 55.34C305.764 55.425 305.424 55.595 305.169 55.595C304.999 55.595 304.829 55.51 304.744 55.425C304.574 55.255 304.574 55.17 304.574 55C304.574 54.745 304.829 54.405 304.914 54.15C305.764 52.45 306.954 51.005 308.229 49.645C308.994 48.71 309.929 47.86 310.779 47.01C310.949 46.84 311.119 46.67 311.374 46.67C311.459 46.67 311.629 46.67 311.714 46.84C312.734 47.945 314.094 48.115 315.454 48.285C315.539 48.285 315.624 48.37 315.709 48.37ZM315.624 46.755V46.84C314.859 46.755 314.094 46.67 313.414 46.5C313.074 46.415 312.904 46.245 312.904 46.075C312.904 45.905 312.989 45.82 313.159 45.65C313.839 44.97 314.689 44.8 315.624 44.8H316.134C316.729 44.885 317.069 45.14 317.069 45.735C317.069 46.33 316.729 46.67 316.134 46.755H315.624ZM327.562 52.705C327.902 51.94 328.412 51.515 328.752 51.005C329.687 50.07 330.707 49.22 331.727 48.37C333.342 47.01 334.957 45.735 336.827 44.715C337.082 44.545 337.337 44.46 337.507 44.46C337.677 44.46 337.932 44.545 338.102 44.97C338.272 45.395 338.527 45.565 338.867 45.565C339.122 45.565 339.462 45.395 339.632 44.97C339.887 44.63 339.972 44.29 339.972 43.865C339.972 43.61 339.887 43.27 339.632 42.93C339.122 42.335 338.612 41.91 337.762 41.91H337.422C336.657 42.08 335.977 42.42 335.297 42.845C331.897 45.055 328.837 47.605 326.287 50.665C325.947 51.09 325.607 51.515 325.437 52.025C325.267 52.365 325.267 52.62 325.267 52.875C325.267 53.385 325.522 53.81 326.117 54.15C326.542 54.32 327.052 54.405 327.477 54.405C327.817 54.405 328.157 54.405 328.497 54.32C329.687 54.065 330.877 53.64 332.067 53.215C338.017 51.175 343.882 49.05 350.002 47.35C350.172 47.265 350.342 47.265 350.512 47.18C350.682 47.01 350.852 46.925 350.852 46.755V46.585C350.767 46.245 350.512 46.16 350.257 46.16C350.002 46.16 349.662 46.245 349.322 46.33C348.217 46.585 347.112 46.84 346.007 47.18C340.822 48.795 335.552 50.41 330.367 52.025C329.517 52.28 328.752 52.62 327.562 52.705Z" fill="#0E7490"/>
</svg>
